<svg width="337" height="127" viewBox="0 0 337 127" fill="none" xmlns="http://www.w3.org/2000/svg">
<path fill-rule="evenodd" clip-rule="evenodd" d="M23.1902 112.233C47.8764 132.367 84.2903 130.929 107.301 107.918C109.331 105.888 111.192 103.754 112.886 101.533C113.298 101.769 113.739 101.982 114.21 102.17C115.519 102.678 116.974 102.931 118.575 102.931C120.177 102.931 121.626 102.678 122.923 102.17C124.232 101.651 125.309 100.952 126.155 100.072C127 99.1811 127.649 98.1491 128.1 96.9761C128.551 95.8031 128.777 94.5399 128.777 93.1865C128.777 91.833 128.551 90.5698 128.1 89.3968C127.649 88.2239 127 87.1975 126.155 86.3178C125.309 85.4267 124.232 84.7275 122.923 84.2199C122.713 84.1377 122.499 84.0622 122.281 83.9933C129.863 61.9835 124.869 36.602 107.301 19.0336C82.7561 -5.51119 42.9611 -5.51119 18.4164 19.0336C-4.59419 42.0441 -6.03248 78.458 14.1015 103.144C21.9965 97.6914 27.6168 95.2464 29.3524 96.982C31.088 98.7175 28.643 104.338 23.1902 112.233ZM121.766 85.433C121.943 84.9548 122.115 84.4749 122.281 83.9933C121.153 83.6369 119.918 83.4586 118.575 83.4586C116.974 83.4586 115.519 83.7124 114.21 84.2199C112.913 84.7275 111.842 85.4267 110.996 86.3178C110.161 87.1975 109.518 88.2239 109.067 89.3968C108.616 90.5698 108.391 91.833 108.391 93.1865C108.391 94.5399 108.616 95.8031 109.067 96.9761C109.518 98.1491 110.161 99.1811 110.996 100.072C111.535 100.632 112.165 101.119 112.886 101.533C113.203 101.118 113.514 100.699 113.819 100.278C115.137 101.032 116.722 101.409 118.575 101.409C121.169 101.409 123.239 100.67 124.784 99.1924C126.329 97.7036 127.102 95.7016 127.102 93.1865C127.102 90.6826 126.329 88.6919 124.784 87.2144C123.94 86.3952 122.934 85.8014 121.766 85.433ZM121.766 85.433C119.83 90.6366 117.181 95.6352 113.819 100.278C113.292 99.9764 112.808 99.6146 112.366 99.1924C110.832 97.7036 110.065 95.7016 110.065 93.1865C110.065 90.6713 110.832 88.675 112.366 87.1975C113.912 85.72 115.981 84.9812 118.575 84.9812C119.747 84.9812 120.81 85.1318 121.766 85.433ZM13.887 79.7089C12.1722 80.2572 11.6312 82.4411 12.9043 83.7141C12.9682 83.778 13.0564 83.8114 13.1466 83.8065C20.7139 83.396 28.4178 86.0811 34.1983 91.8616C39.9815 97.6448 42.6663 105.353 42.2528 112.924C42.2483 113.007 42.2792 113.089 42.3384 113.148C43.5139 114.324 45.5305 113.823 46.0409 112.24C48.226 105.467 53.2899 90.6976 57.8165 84.3365C56.8185 80.0251 54.9313 76.4898 52.2712 73.8297C49.4939 71.0524 45.7626 69.1176 41.1902 68.1577C34.6569 72.7472 20.6499 77.5466 13.887 79.7089ZM63.9256 78.65L63.9301 78.6463C68.8071 74.5887 73.6511 70.5585 78.292 65.9175C91.1593 53.0502 100.361 37.9055 105.898 21.781C106.245 20.7701 105.29 19.8156 104.279 20.1627C88.1548 25.6992 73.0102 34.9011 60.1429 47.7683C54.9282 52.983 50.1452 57.766 45.5901 63.5263C49.6968 64.8357 53.2894 66.9368 56.2268 69.8741C59.0256 72.6729 61.0652 76.0668 62.3841 79.9335C62.8982 79.5049 63.4121 79.0773 63.9256 78.65ZM144.942 103.236C143.566 103.236 142.185 103.038 140.797 102.644C139.41 102.238 138.282 101.786 137.414 101.29L138.074 99.9199C138.886 100.371 139.918 100.783 141.17 101.155C142.422 101.527 143.657 101.713 144.875 101.713C146.578 101.713 147.92 101.386 148.901 100.732C149.882 100.078 150.373 99.1022 150.373 97.8051C150.373 96.6208 149.899 95.7524 148.952 95.1997C148.005 94.6358 146.561 94.2072 144.621 93.914C143.831 93.7899 143.149 93.6658 142.574 93.5418C141.999 93.4177 141.344 93.2203 140.611 92.9496C139.89 92.6789 139.297 92.3631 138.835 92.0022C138.373 91.6413 137.978 91.162 137.651 90.5642C137.335 89.9664 137.177 89.284 137.177 88.5171C137.177 86.8704 137.814 85.6016 139.089 84.7105C140.363 83.8082 142.162 83.3571 144.486 83.3571C146.933 83.3571 149.059 83.8646 150.864 84.8797L150.102 86.2332C148.557 85.3309 146.696 84.8797 144.519 84.8797C140.73 84.8797 138.835 86.0809 138.835 88.4833C138.835 88.878 138.908 89.2446 139.055 89.5829C139.202 89.91 139.376 90.192 139.579 90.4288C139.794 90.6657 140.081 90.8856 140.442 91.0886C140.814 91.2917 141.153 91.4552 141.457 91.5793C141.773 91.6921 142.168 91.8105 142.642 91.9345C143.127 92.0473 143.516 92.1319 143.809 92.1883C144.113 92.2447 144.503 92.3124 144.976 92.3913C145.766 92.5154 146.459 92.6507 147.057 92.7974C147.666 92.944 148.298 93.1583 148.952 93.4403C149.606 93.7222 150.142 94.0493 150.559 94.4215C150.988 94.7937 151.337 95.273 151.608 95.8595C151.89 96.4348 152.031 97.0946 152.031 97.839C152.031 99.5082 151.388 100.828 150.102 101.798C148.828 102.756 147.108 103.236 144.942 103.236ZM81.093 84.2538V102.17H82.8186V93.8463H97.0975V102.17H98.8231V84.2538H97.0975V92.256H82.8186V84.2538H81.093ZM166.877 86.0471V102.17H168.603V86.0471H176.859V84.5244H158.621V86.0471H166.877ZM185.343 101.882V84.2538H187.069V100.36H200.587V101.882H185.343ZM216.363 84.4568L208.462 102.17H210.188L211.406 99.5308H226.362L227.58 102.17H229.305L221.421 84.4568H216.363ZM225.702 98.0081H212.1L217.293 86.0471H220.474L225.702 98.0081ZM246.181 102.576C244.952 102.576 243.802 102.384 242.73 102.001C241.659 101.606 240.717 101.042 239.905 100.309C239.104 99.5759 238.472 98.6397 238.01 97.5006C237.548 96.3502 237.316 95.0644 237.316 93.6433V84.2538H239.042V93.6771C239.042 96.0005 239.702 97.7995 241.021 99.074C242.341 100.348 244.061 100.986 246.181 100.986C248.257 100.986 249.965 100.337 251.308 99.0401C252.65 97.7318 253.321 95.9441 253.321 93.6771V84.2538H255.046V93.6433C255.046 95.0644 254.81 96.3502 254.336 97.5006C253.873 98.651 253.236 99.5928 252.424 100.326C251.612 101.048 250.67 101.606 249.599 102.001C248.539 102.384 247.4 102.576 246.181 102.576ZM265.409 84.2538V102.17H267.135V86.7745L280.923 102.17H282.835V84.2538H281.109V99.8691L267.236 84.2538H265.409ZM302.773 102.745C299.547 102.745 297.01 101.849 295.16 100.055C293.321 98.2619 292.402 95.9498 292.402 93.1188C292.402 91.7766 292.633 90.5191 293.096 89.3461C293.57 88.1731 294.235 87.1467 295.092 86.267C295.961 85.3873 297.055 84.6936 298.374 84.1861C299.694 83.6785 301.16 83.4248 302.773 83.4248C304.86 83.4248 306.766 83.9098 308.491 84.8797L307.409 86.0471C306.089 85.2688 304.544 84.8797 302.773 84.8797C300.179 84.8797 298.064 85.658 296.429 87.2144C294.805 88.7596 293.993 90.7277 293.993 93.1188C293.993 95.5325 294.805 97.5006 296.429 99.0232C298.053 100.535 300.168 101.29 302.773 101.29C304.803 101.29 306.478 100.867 307.798 100.021L308.83 101.121C307.228 102.204 305.209 102.745 302.773 102.745ZM318.549 84.2538V102.17H320.275V93.8463H334.554V102.17H336.28V84.2538H334.554V92.256H320.275V84.2538H318.549Z" fill="url(#paint0_linear)"/>
<mask id="path-2-outside-1" maskUnits="userSpaceOnUse" x="112.102" y="82.3809" width="225" height="22" fill="black">
<rect fill="white" x="112.102" y="82.3809" width="225" height="22"/>
<path d="M113.102 101.559C113.512 101.794 113.952 102.006 114.421 102.194C115.73 102.701 117.185 102.955 118.786 102.955C120.388 102.955 121.837 102.701 123.134 102.194C124.443 101.675 125.52 100.976 126.366 100.096C127.212 99.2049 127.86 98.1729 128.311 96.9999C128.762 95.8269 128.988 94.5637 128.988 93.2103C128.988 91.8568 128.762 90.5936 128.311 89.4206C127.86 88.2476 127.212 87.2213 126.366 86.3415C125.52 85.4505 124.443 84.7512 123.134 84.2437C122.926 84.1621 122.714 84.0871 122.497 84.0187C122.331 84.5002 122.159 84.9801 121.982 85.4583C123.148 85.8268 124.152 86.4201 124.995 87.2382C126.54 88.7157 127.313 90.7064 127.313 93.2103C127.313 95.7254 126.54 97.7274 124.995 99.2162C123.45 100.694 121.38 101.432 118.786 101.432C116.935 101.432 115.351 101.056 114.035 100.304C113.729 100.725 113.418 101.144 113.102 101.559Z"/>
<path d="M141.009 102.667C142.396 103.062 143.777 103.26 145.153 103.26C147.319 103.26 149.039 102.78 150.313 101.822C151.599 100.852 152.242 99.532 152.242 97.8627C152.242 97.1183 152.101 96.4585 151.819 95.8833C151.549 95.2968 151.199 94.8175 150.77 94.4453C150.353 94.0731 149.817 93.746 149.163 93.464C148.509 93.1821 147.877 92.9678 147.268 92.8211C146.67 92.6745 145.977 92.5392 145.187 92.4151C144.714 92.3362 144.324 92.2685 144.02 92.2121C143.727 92.1557 143.338 92.0711 142.853 91.9583C142.379 91.8342 141.984 91.7158 141.668 91.603C141.364 91.479 141.025 91.3154 140.653 91.1124C140.292 90.9094 140.005 90.6895 139.79 90.4526C139.587 90.2158 139.413 89.9338 139.266 89.6067C139.119 89.2683 139.046 88.9018 139.046 88.507C139.046 86.1047 140.941 84.9035 144.731 84.9035C146.907 84.9035 148.768 85.3546 150.313 86.2569L151.075 84.9035C149.27 83.8884 147.144 83.3809 144.697 83.3809C142.373 83.3809 140.574 83.832 139.3 84.7343C138.025 85.6253 137.388 86.8942 137.388 88.5409C137.388 89.3078 137.546 89.9902 137.862 90.588C138.189 91.1857 138.584 91.6651 139.046 92.026C139.508 92.3869 140.101 92.7027 140.822 92.9734C141.556 93.2441 142.21 93.4415 142.785 93.5655C143.36 93.6896 144.043 93.8137 144.832 93.9377C146.772 94.231 148.216 94.6596 149.163 95.2235C150.11 95.7762 150.584 96.6446 150.584 97.8289C150.584 99.1259 150.094 100.102 149.112 100.756C148.131 101.41 146.789 101.737 145.086 101.737C143.868 101.737 142.633 101.551 141.381 101.179C140.129 100.806 139.097 100.395 138.285 99.9436L137.625 101.314C138.493 101.81 139.621 102.261 141.009 102.667Z"/>
<path d="M167.088 86.0708V102.194H168.814V86.0708H177.07V84.5482H158.832V86.0708H167.088Z"/>
<path d="M185.554 84.2775V101.906H200.798V100.384H187.28V84.2775H185.554Z"/>
<path fill-rule="evenodd" clip-rule="evenodd" d="M216.574 84.4805L208.673 102.194H210.399L211.617 99.5545H226.573L227.791 102.194H229.516L221.633 84.4805H216.574ZM225.913 98.0319H212.311L217.505 86.0708H220.685L225.913 98.0319Z"/>
<path d="M242.941 102.025C244.013 102.408 245.163 102.6 246.393 102.6C247.611 102.6 248.75 102.408 249.81 102.025C250.881 101.63 251.823 101.072 252.635 100.35C253.447 99.6166 254.085 98.6748 254.547 97.5244C255.021 96.3739 255.258 95.0882 255.258 93.667V84.2775H253.532V93.7009C253.532 95.9679 252.861 97.7556 251.519 99.0639C250.177 100.361 248.468 101.009 246.393 101.009C244.272 101.009 242.552 100.372 241.233 99.0977C239.913 97.8232 239.253 96.0243 239.253 93.7009V84.2775H237.527V93.667C237.527 95.0882 237.759 96.3739 238.221 97.5244C238.684 98.6635 239.315 99.5996 240.116 100.333C240.928 101.066 241.87 101.63 242.941 102.025Z"/>
<path d="M265.62 84.2775V102.194H267.346V86.7983L281.134 102.194H283.046V84.2775H281.32V99.8929L267.447 84.2775H265.62Z"/>
<path d="M295.371 100.079C297.221 101.872 299.758 102.769 302.984 102.769C305.42 102.769 307.439 102.228 309.041 101.145L308.009 100.045C306.689 100.891 305.014 101.314 302.984 101.314C300.379 101.314 298.264 100.558 296.64 99.047C295.016 97.5244 294.204 95.5562 294.204 93.1426C294.204 90.7515 295.016 88.7834 296.64 87.2382C298.275 85.6817 300.39 84.9035 302.984 84.9035C304.755 84.9035 306.3 85.2926 307.62 86.0708L308.702 84.9035C306.977 83.9335 305.071 83.4485 302.984 83.4485C301.371 83.4485 299.905 83.7023 298.585 84.2098C297.266 84.7174 296.172 85.411 295.303 86.2908C294.446 87.1705 293.781 88.1969 293.307 89.3699C292.845 90.5428 292.613 91.8004 292.613 93.1426C292.613 95.9735 293.533 98.2857 295.371 100.079Z"/>
<path d="M318.761 84.2775V102.194H320.486V93.8701H334.765V102.194H336.491V84.2775H334.765V92.2798H320.486V84.2775H318.761Z"/>
</mask>
<path d="M113.102 101.559C113.512 101.794 113.952 102.006 114.421 102.194C115.73 102.701 117.185 102.955 118.786 102.955C120.388 102.955 121.837 102.701 123.134 102.194C124.443 101.675 125.52 100.976 126.366 100.096C127.212 99.2049 127.86 98.1729 128.311 96.9999C128.762 95.8269 128.988 94.5637 128.988 93.2103C128.988 91.8568 128.762 90.5936 128.311 89.4206C127.86 88.2476 127.212 87.2213 126.366 86.3415C125.52 85.4505 124.443 84.7512 123.134 84.2437C122.926 84.1621 122.714 84.0871 122.497 84.0187C122.331 84.5002 122.159 84.9801 121.982 85.4583C123.148 85.8268 124.152 86.4201 124.995 87.2382C126.54 88.7157 127.313 90.7064 127.313 93.2103C127.313 95.7254 126.54 97.7274 124.995 99.2162C123.45 100.694 121.38 101.432 118.786 101.432C116.935 101.432 115.351 101.056 114.035 100.304C113.729 100.725 113.418 101.144 113.102 101.559Z" fill="url(#paint1_linear)"/>
<path d="M141.009 102.667C142.396 103.062 143.777 103.26 145.153 103.26C147.319 103.26 149.039 102.78 150.313 101.822C151.599 100.852 152.242 99.532 152.242 97.8627C152.242 97.1183 152.101 96.4585 151.819 95.8833C151.549 95.2968 151.199 94.8175 150.77 94.4453C150.353 94.0731 149.817 93.746 149.163 93.464C148.509 93.1821 147.877 92.9678 147.268 92.8211C146.67 92.6745 145.977 92.5392 145.187 92.4151C144.714 92.3362 144.324 92.2685 144.02 92.2121C143.727 92.1557 143.338 92.0711 142.853 91.9583C142.379 91.8342 141.984 91.7158 141.668 91.603C141.364 91.479 141.025 91.3154 140.653 91.1124C140.292 90.9094 140.005 90.6895 139.79 90.4526C139.587 90.2158 139.413 89.9338 139.266 89.6067C139.119 89.2683 139.046 88.9018 139.046 88.507C139.046 86.1047 140.941 84.9035 144.731 84.9035C146.907 84.9035 148.768 85.3546 150.313 86.2569L151.075 84.9035C149.27 83.8884 147.144 83.3809 144.697 83.3809C142.373 83.3809 140.574 83.832 139.3 84.7343C138.025 85.6253 137.388 86.8942 137.388 88.5409C137.388 89.3078 137.546 89.9902 137.862 90.588C138.189 91.1857 138.584 91.6651 139.046 92.026C139.508 92.3869 140.101 92.7027 140.822 92.9734C141.556 93.2441 142.21 93.4415 142.785 93.5655C143.36 93.6896 144.043 93.8137 144.832 93.9377C146.772 94.231 148.216 94.6596 149.163 95.2235C150.11 95.7762 150.584 96.6446 150.584 97.8289C150.584 99.1259 150.094 100.102 149.112 100.756C148.131 101.41 146.789 101.737 145.086 101.737C143.868 101.737 142.633 101.551 141.381 101.179C140.129 100.806 139.097 100.395 138.285 99.9436L137.625 101.314C138.493 101.81 139.621 102.261 141.009 102.667Z" fill="url(#paint2_linear)"/>
<path d="M167.088 86.0708V102.194H168.814V86.0708H177.07V84.5482H158.832V86.0708H167.088Z" fill="url(#paint3_linear)"/>
<path d="M185.554 84.2775V101.906H200.798V100.384H187.28V84.2775H185.554Z" fill="url(#paint4_linear)"/>
<path fill-rule="evenodd" clip-rule="evenodd" d="M216.574 84.4805L208.673 102.194H210.399L211.617 99.5545H226.573L227.791 102.194H229.516L221.633 84.4805H216.574ZM225.913 98.0319H212.311L217.505 86.0708H220.685L225.913 98.0319Z" fill="url(#paint5_linear)"/>
<path d="M242.941 102.025C244.013 102.408 245.163 102.6 246.393 102.6C247.611 102.6 248.75 102.408 249.81 102.025C250.881 101.63 251.823 101.072 252.635 100.35C253.447 99.6166 254.085 98.6748 254.547 97.5244C255.021 96.3739 255.258 95.0882 255.258 93.667V84.2775H253.532V93.7009C253.532 95.9679 252.861 97.7556 251.519 99.0639C250.177 100.361 248.468 101.009 246.393 101.009C244.272 101.009 242.552 100.372 241.233 99.0977C239.913 97.8232 239.253 96.0243 239.253 93.7009V84.2775H237.527V93.667C237.527 95.0882 237.759 96.3739 238.221 97.5244C238.684 98.6635 239.315 99.5996 240.116 100.333C240.928 101.066 241.87 101.63 242.941 102.025Z" fill="url(#paint6_linear)"/>
<path d="M265.62 84.2775V102.194H267.346V86.7983L281.134 102.194H283.046V84.2775H281.32V99.8929L267.447 84.2775H265.62Z" fill="url(#paint7_linear)"/>
<path d="M295.371 100.079C297.221 101.872 299.758 102.769 302.984 102.769C305.42 102.769 307.439 102.228 309.041 101.145L308.009 100.045C306.689 100.891 305.014 101.314 302.984 101.314C300.379 101.314 298.264 100.558 296.64 99.047C295.016 97.5244 294.204 95.5562 294.204 93.1426C294.204 90.7515 295.016 88.7834 296.64 87.2382C298.275 85.6817 300.39 84.9035 302.984 84.9035C304.755 84.9035 306.3 85.2926 307.62 86.0708L308.702 84.9035C306.977 83.9335 305.071 83.4485 302.984 83.4485C301.371 83.4485 299.905 83.7023 298.585 84.2098C297.266 84.7174 296.172 85.411 295.303 86.2908C294.446 87.1705 293.781 88.1969 293.307 89.3699C292.845 90.5428 292.613 91.8004 292.613 93.1426C292.613 95.9735 293.533 98.2857 295.371 100.079Z" fill="url(#paint8_linear)"/>
<path d="M318.761 84.2775V102.194H320.486V93.8701H334.765V102.194H336.491V84.2775H334.765V92.2798H320.486V84.2775H318.761Z" fill="url(#paint9_linear)"/>
<path d="M113.102 101.559C113.512 101.794 113.952 102.006 114.421 102.194C115.73 102.701 117.185 102.955 118.786 102.955C120.388 102.955 121.837 102.701 123.134 102.194C124.443 101.675 125.52 100.976 126.366 100.096C127.212 99.2049 127.86 98.1729 128.311 96.9999C128.762 95.8269 128.988 94.5637 128.988 93.2103C128.988 91.8568 128.762 90.5936 128.311 89.4206C127.86 88.2476 127.212 87.2213 126.366 86.3415C125.52 85.4505 124.443 84.7512 123.134 84.2437C122.926 84.1621 122.714 84.0871 122.497 84.0187C122.331 84.5002 122.159 84.9801 121.982 85.4583C123.148 85.8268 124.152 86.4201 124.995 87.2382C126.54 88.7157 127.313 90.7064 127.313 93.2103C127.313 95.7254 126.54 97.7274 124.995 99.2162C123.45 100.694 121.38 101.432 118.786 101.432C116.935 101.432 115.351 101.056 114.035 100.304C113.729 100.725 113.418 101.144 113.102 101.559Z" stroke="url(#paint10_linear)" stroke-width="0.68964" mask="url(#path-2-outside-1)"/>
<path d="M141.009 102.667C142.396 103.062 143.777 103.26 145.153 103.26C147.319 103.26 149.039 102.78 150.313 101.822C151.599 100.852 152.242 99.532 152.242 97.8627C152.242 97.1183 152.101 96.4585 151.819 95.8833C151.549 95.2968 151.199 94.8175 150.77 94.4453C150.353 94.0731 149.817 93.746 149.163 93.464C148.509 93.1821 147.877 92.9678 147.268 92.8211C146.67 92.6745 145.977 92.5392 145.187 92.4151C144.714 92.3362 144.324 92.2685 144.02 92.2121C143.727 92.1557 143.338 92.0711 142.853 91.9583C142.379 91.8342 141.984 91.7158 141.668 91.603C141.364 91.479 141.025 91.3154 140.653 91.1124C140.292 90.9094 140.005 90.6895 139.79 90.4526C139.587 90.2158 139.413 89.9338 139.266 89.6067C139.119 89.2683 139.046 88.9018 139.046 88.507C139.046 86.1047 140.941 84.9035 144.731 84.9035C146.907 84.9035 148.768 85.3546 150.313 86.2569L151.075 84.9035C149.27 83.8884 147.144 83.3809 144.697 83.3809C142.373 83.3809 140.574 83.832 139.3 84.7343C138.025 85.6253 137.388 86.8942 137.388 88.5409C137.388 89.3078 137.546 89.9902 137.862 90.588C138.189 91.1857 138.584 91.6651 139.046 92.026C139.508 92.3869 140.101 92.7027 140.822 92.9734C141.556 93.2441 142.21 93.4415 142.785 93.5655C143.36 93.6896 144.043 93.8137 144.832 93.9377C146.772 94.231 148.216 94.6596 149.163 95.2235C150.11 95.7762 150.584 96.6446 150.584 97.8289C150.584 99.1259 150.094 100.102 149.112 100.756C148.131 101.41 146.789 101.737 145.086 101.737C143.868 101.737 142.633 101.551 141.381 101.179C140.129 100.806 139.097 100.395 138.285 99.9436L137.625 101.314C138.493 101.81 139.621 102.261 141.009 102.667Z" stroke="url(#paint11_linear)" stroke-width="0.68964" mask="url(#path-2-outside-1)"/>
<path d="M167.088 86.0708V102.194H168.814V86.0708H177.07V84.5482H158.832V86.0708H167.088Z" stroke="url(#paint12_linear)" stroke-width="0.68964" mask="url(#path-2-outside-1)"/>
<path d="M185.554 84.2775V101.906H200.798V100.384H187.28V84.2775H185.554Z" stroke="url(#paint13_linear)" stroke-width="0.68964" mask="url(#path-2-outside-1)"/>
<path fill-rule="evenodd" clip-rule="evenodd" d="M216.574 84.4805L208.673 102.194H210.399L211.617 99.5545H226.573L227.791 102.194H229.516L221.633 84.4805H216.574ZM225.913 98.0319H212.311L217.505 86.0708H220.685L225.913 98.0319Z" stroke="url(#paint14_linear)" stroke-width="0.68964" mask="url(#path-2-outside-1)"/>
<path d="M242.941 102.025C244.013 102.408 245.163 102.6 246.393 102.6C247.611 102.6 248.75 102.408 249.81 102.025C250.881 101.63 251.823 101.072 252.635 100.35C253.447 99.6166 254.085 98.6748 254.547 97.5244C255.021 96.3739 255.258 95.0882 255.258 93.667V84.2775H253.532V93.7009C253.532 95.9679 252.861 97.7556 251.519 99.0639C250.177 100.361 248.468 101.009 246.393 101.009C244.272 101.009 242.552 100.372 241.233 99.0977C239.913 97.8232 239.253 96.0243 239.253 93.7009V84.2775H237.527V93.667C237.527 95.0882 237.759 96.3739 238.221 97.5244C238.684 98.6635 239.315 99.5996 240.116 100.333C240.928 101.066 241.87 101.63 242.941 102.025Z" stroke="url(#paint15_linear)" stroke-width="0.68964" mask="url(#path-2-outside-1)"/>
<path d="M265.62 84.2775V102.194H267.346V86.7983L281.134 102.194H283.046V84.2775H281.32V99.8929L267.447 84.2775H265.62Z" stroke="url(#paint16_linear)" stroke-width="0.68964" mask="url(#path-2-outside-1)"/>
<path d="M295.371 100.079C297.221 101.872 299.758 102.769 302.984 102.769C305.42 102.769 307.439 102.228 309.041 101.145L308.009 100.045C306.689 100.891 305.014 101.314 302.984 101.314C300.379 101.314 298.264 100.558 296.64 99.047C295.016 97.5244 294.204 95.5562 294.204 93.1426C294.204 90.7515 295.016 88.7834 296.64 87.2382C298.275 85.6817 300.39 84.9035 302.984 84.9035C304.755 84.9035 306.3 85.2926 307.62 86.0708L308.702 84.9035C306.977 83.9335 305.071 83.4485 302.984 83.4485C301.371 83.4485 299.905 83.7023 298.585 84.2098C297.266 84.7174 296.172 85.411 295.303 86.2908C294.446 87.1705 293.781 88.1969 293.307 89.3699C292.845 90.5428 292.613 91.8004 292.613 93.1426C292.613 95.9735 293.533 98.2857 295.371 100.079Z" stroke="url(#paint17_linear)" stroke-width="0.68964" mask="url(#path-2-outside-1)"/>
<path d="M318.761 84.2775V102.194H320.486V93.8701H334.765V102.194H336.491V84.2775H334.765V92.2798H320.486V84.2775H318.761Z" stroke="url(#paint18_linear)" stroke-width="0.68964" mask="url(#path-2-outside-1)"/>
<defs>
<linearGradient id="paint0_linear" x1="338.414" y1="52.6977" x2="-76.8752" y2="213.389" gradientUnits="userSpaceOnUse">
<stop stop-color="#00A084"/>
<stop offset="1" stop-color="#75D4A7"/>
</linearGradient>
<linearGradient id="paint1_linear" x1="337.909" y1="91.6157" x2="250.817" y2="233.176" gradientUnits="userSpaceOnUse">
<stop stop-color="#00A084"/>
<stop offset="1" stop-color="#75D4A7"/>
</linearGradient>
<linearGradient id="paint2_linear" x1="337.909" y1="91.6157" x2="250.817" y2="233.176" gradientUnits="userSpaceOnUse">
<stop stop-color="#00A084"/>
<stop offset="1" stop-color="#75D4A7"/>
</linearGradient>
<linearGradient id="paint3_linear" x1="337.909" y1="91.6157" x2="250.817" y2="233.176" gradientUnits="userSpaceOnUse">
<stop stop-color="#00A084"/>
<stop offset="1" stop-color="#75D4A7"/>
</linearGradient>
<linearGradient id="paint4_linear" x1="337.909" y1="91.6157" x2="250.817" y2="233.176" gradientUnits="userSpaceOnUse">
<stop stop-color="#00A084"/>
<stop offset="1" stop-color="#75D4A7"/>
</linearGradient>
<linearGradient id="paint5_linear" x1="337.909" y1="91.6157" x2="250.817" y2="233.176" gradientUnits="userSpaceOnUse">
<stop stop-color="#00A084"/>
<stop offset="1" stop-color="#75D4A7"/>
</linearGradient>
<linearGradient id="paint6_linear" x1="337.909" y1="91.6157" x2="250.817" y2="233.176" gradientUnits="userSpaceOnUse">
<stop stop-color="#00A084"/>
<stop offset="1" stop-color="#75D4A7"/>
</linearGradient>
<linearGradient id="paint7_linear" x1="337.909" y1="91.6157" x2="250.817" y2="233.176" gradientUnits="userSpaceOnUse">
<stop stop-color="#00A084"/>
<stop offset="1" stop-color="#75D4A7"/>
</linearGradient>
<linearGradient id="paint8_linear" x1="337.909" y1="91.6157" x2="250.817" y2="233.176" gradientUnits="userSpaceOnUse">
<stop stop-color="#00A084"/>
<stop offset="1" stop-color="#75D4A7"/>
</linearGradient>
<linearGradient id="paint9_linear" x1="337.909" y1="91.6157" x2="250.817" y2="233.176" gradientUnits="userSpaceOnUse">
<stop stop-color="#00A084"/>
<stop offset="1" stop-color="#75D4A7"/>
</linearGradient>
<linearGradient id="paint10_linear" x1="337.909" y1="91.6157" x2="250.817" y2="233.176" gradientUnits="userSpaceOnUse">
<stop stop-color="#00A084"/>
<stop offset="1" stop-color="#75D4A7"/>
</linearGradient>
<linearGradient id="paint11_linear" x1="337.909" y1="91.6157" x2="250.817" y2="233.176" gradientUnits="userSpaceOnUse">
<stop stop-color="#00A084"/>
<stop offset="1" stop-color="#75D4A7"/>
</linearGradient>
<linearGradient id="paint12_linear" x1="337.909" y1="91.6157" x2="250.817" y2="233.176" gradientUnits="userSpaceOnUse">
<stop stop-color="#00A084"/>
<stop offset="1" stop-color="#75D4A7"/>
</linearGradient>
<linearGradient id="paint13_linear" x1="337.909" y1="91.6157" x2="250.817" y2="233.176" gradientUnits="userSpaceOnUse">
<stop stop-color="#00A084"/>
<stop offset="1" stop-color="#75D4A7"/>
</linearGradient>
<linearGradient id="paint14_linear" x1="337.909" y1="91.6157" x2="250.817" y2="233.176" gradientUnits="userSpaceOnUse">
<stop stop-color="#00A084"/>
<stop offset="1" stop-color="#75D4A7"/>
</linearGradient>
<linearGradient id="paint15_linear" x1="337.909" y1="91.6157" x2="250.817" y2="233.176" gradientUnits="userSpaceOnUse">
<stop stop-color="#00A084"/>
<stop offset="1" stop-color="#75D4A7"/>
</linearGradient>
<linearGradient id="paint16_linear" x1="337.909" y1="91.6157" x2="250.817" y2="233.176" gradientUnits="userSpaceOnUse">
<stop stop-color="#00A084"/>
<stop offset="1" stop-color="#75D4A7"/>
</linearGradient>
<linearGradient id="paint17_linear" x1="337.909" y1="91.6157" x2="250.817" y2="233.176" gradientUnits="userSpaceOnUse">
<stop stop-color="#00A084"/>
<stop offset="1" stop-color="#75D4A7"/>
</linearGradient>
<linearGradient id="paint18_linear" x1="337.909" y1="91.6157" x2="250.817" y2="233.176" gradientUnits="userSpaceOnUse">
<stop stop-color="#00A084"/>
<stop offset="1" stop-color="#75D4A7"/>
</linearGradient>
</defs>
</svg>
