<svg width="401" height="62" viewBox="0 0 401 62" fill="none" xmlns="http://www.w3.org/2000/svg">
<path d="M90.8756 42.5771V21.6959H92.8868V31.0224H109.529V21.6959H111.54V42.5771H109.529V32.8759H92.8868V42.5771H90.8756ZM140.032 42.5771C138.52 43.1686 136.831 43.4644 134.965 43.4644C133.098 43.4644 131.402 43.1686 129.877 42.5771C128.366 41.9724 127.117 41.1574 126.131 40.1321C125.158 39.0936 124.409 37.8908 123.883 36.5237C123.357 35.1566 123.095 33.6843 123.095 32.1069C123.095 30.5295 123.357 29.0572 123.883 27.6901C124.409 26.323 125.158 25.1268 126.131 24.1015C127.117 23.063 128.366 22.248 129.877 21.6565C131.402 21.0649 133.098 20.7692 134.965 20.7692C136.831 20.7692 138.52 21.0649 140.032 21.6565C141.557 22.248 142.812 23.063 143.798 24.1015C144.784 25.1268 145.54 26.323 146.066 27.6901C146.592 29.0572 146.854 30.5295 146.854 32.1069C146.854 33.6843 146.592 35.1566 146.066 36.5237C145.54 37.8908 144.784 39.0936 143.798 40.1321C142.812 41.1574 141.557 41.9724 140.032 42.5771ZM127.728 39.1067C129.529 40.8288 131.941 41.6898 134.965 41.6898C137.988 41.6898 140.4 40.8288 142.201 39.1067C144.002 37.3716 144.902 35.0383 144.902 32.1069C144.902 29.1887 144.002 26.8685 142.201 25.1465C140.413 23.4113 138.001 22.5438 134.965 22.5438C131.941 22.5438 129.529 23.4048 127.728 25.1268C125.94 26.8488 125.047 29.1755 125.047 32.1069C125.047 35.0383 125.94 37.3716 127.728 39.1067ZM166.099 43.8193C164.495 43.8193 162.885 43.5893 161.268 43.1292C159.651 42.6559 158.337 42.1301 157.325 41.5518L158.094 39.9546C159.04 40.4804 160.243 40.9602 161.702 41.394C163.161 41.8278 164.601 42.0447 166.02 42.0447C168.005 42.0447 169.569 41.6635 170.713 40.9011C171.857 40.1386 172.429 39.0016 172.429 37.4899C172.429 36.1096 171.876 35.0974 170.772 34.4533C169.668 33.7961 167.985 33.2966 165.724 32.9548C164.804 32.8102 164.009 32.6656 163.339 32.521C162.668 32.3764 161.906 32.1463 161.051 31.8309C160.21 31.5154 159.52 31.1473 158.981 30.7267C158.442 30.306 157.982 29.7473 157.601 29.0506C157.233 28.3539 157.049 27.5587 157.049 26.6648C157.049 24.7456 157.791 23.2667 159.277 22.2283C160.762 21.1767 162.859 20.6508 165.567 20.6508C168.419 20.6508 170.897 21.2424 173 22.4255L172.113 24.0029C170.312 22.9513 168.143 22.4255 165.606 22.4255C161.189 22.4255 158.981 23.8254 158.981 26.6253C158.981 27.0854 159.066 27.5127 159.237 27.907C159.408 28.2882 159.612 28.6169 159.849 28.8929C160.098 29.169 160.434 29.4253 160.854 29.6619C161.288 29.8985 161.682 30.0891 162.037 30.2337C162.405 30.3652 162.865 30.5032 163.417 30.6478C163.983 30.7792 164.436 30.8778 164.778 30.9436C165.133 31.0093 165.586 31.0882 166.139 31.1802C167.059 31.3248 167.867 31.4825 168.564 31.6534C169.274 31.8243 170.01 32.074 170.772 32.4027C171.535 32.7313 172.159 33.1125 172.645 33.5463C173.145 33.9801 173.552 34.5388 173.868 35.2223C174.197 35.8927 174.361 36.6617 174.361 37.5293C174.361 39.4748 173.612 41.0128 172.113 42.1433C170.628 43.2606 168.623 43.8193 166.099 43.8193ZM192.067 42.5771V23.786H182.445V22.0114H203.701V23.786H194.079V42.5771H192.067ZM213.994 42.2419V21.6959H216.005V40.4673H231.759V42.2419H213.994ZM241.342 42.5771L250.551 21.9325H256.446L265.635 42.5771H263.624L262.204 39.5011H244.773L243.354 42.5771H241.342ZM245.582 37.7265H261.435L255.342 23.786H251.635L245.582 37.7265ZM285.708 43.0503C284.275 43.0503 282.934 42.8268 281.685 42.3799C280.436 41.9198 279.339 41.2626 278.392 40.4081C277.459 39.5537 276.723 38.4626 276.184 37.135C275.645 35.7941 275.375 34.2956 275.375 32.6393V21.6959H277.387V32.6787C277.387 35.3866 278.156 37.4833 279.694 38.9687C281.232 40.4541 283.236 41.1968 285.708 41.1968C288.126 41.1968 290.118 40.441 291.682 38.9293C293.246 37.4044 294.028 35.3209 294.028 32.6787V21.6959H296.04V32.6393C296.04 34.2956 295.764 35.7941 295.211 37.135C294.673 38.4758 293.93 39.5734 292.983 40.4278C292.037 41.2691 290.939 41.9198 289.691 42.3799C288.455 42.8268 287.127 43.0503 285.708 43.0503ZM308.521 42.5771V21.6959H310.651L326.819 39.8955V21.6959H328.83V42.5771H326.602L310.532 24.6338V42.5771H308.521ZM352.472 43.2475C348.713 43.2475 345.755 42.2024 343.599 40.1123C341.456 38.0223 340.385 35.3275 340.385 32.028C340.385 30.4638 340.655 28.9981 341.193 27.631C341.746 26.2639 342.521 25.0676 343.52 24.0423C344.532 23.017 345.807 22.2086 347.345 21.617C348.883 21.0255 350.592 20.7297 352.472 20.7297C354.904 20.7297 357.125 21.295 359.137 22.4255L357.875 23.786C356.337 22.879 354.536 22.4255 352.472 22.4255C349.449 22.4255 346.984 23.3325 345.078 25.1465C343.185 26.9474 342.239 29.2412 342.239 32.028C342.239 34.8411 343.185 37.135 345.078 38.9096C346.971 40.671 349.436 41.5518 352.472 41.5518C354.838 41.5518 356.79 41.0588 358.328 40.0729L359.531 41.3546C357.664 42.6165 355.311 43.2475 352.472 43.2475ZM371.263 42.5771V21.6959H373.274V31.0224H389.916V21.6959H391.927V42.5771H389.916V32.8759H373.274V42.5771H371.263Z" fill="black"/>
<path d="M90.8756 42.5771H90.4167V43.036H90.8756V42.5771ZM90.8756 21.6959V21.237H90.4167V21.6959H90.8756ZM92.8868 21.6959H93.3457V21.237H92.8868V21.6959ZM92.8868 31.0224H92.4279V31.4813H92.8868V31.0224ZM109.529 31.0224V31.4813H109.988V31.0224H109.529ZM109.529 21.6959V21.237H109.07V21.6959H109.529ZM111.54 21.6959H111.999V21.237H111.54V21.6959ZM111.54 42.5771V43.036H111.999V42.5771H111.54ZM109.529 42.5771H109.07V43.036H109.529V42.5771ZM109.529 32.8759H109.988V32.417H109.529V32.8759ZM92.8868 32.8759V32.417H92.4279V32.8759H92.8868ZM92.8868 42.5771V43.036H93.3457V42.5771H92.8868ZM91.3345 42.5771V21.6959H90.4167V42.5771H91.3345ZM90.8756 22.1548H92.8868V21.237H90.8756V22.1548ZM92.4279 21.6959V31.0224H93.3457V21.6959H92.4279ZM92.8868 31.4813H109.529V30.5635H92.8868V31.4813ZM109.988 31.0224V21.6959H109.07V31.0224H109.988ZM109.529 22.1548H111.54V21.237H109.529V22.1548ZM111.081 21.6959V42.5771H111.999V21.6959H111.081ZM111.54 42.1182H109.529V43.036H111.54V42.1182ZM109.988 42.5771V32.8759H109.07V42.5771H109.988ZM109.529 32.417H92.8868V33.3348H109.529V32.417ZM92.4279 32.8759V42.5771H93.3457V32.8759H92.4279ZM92.8868 42.1182H90.8756V43.036H92.8868V42.1182ZM140.032 42.5771L140.199 43.0044L140.201 43.0037L140.032 42.5771ZM129.877 42.5771L129.707 43.0032L129.711 43.0049L129.877 42.5771ZM126.131 40.1321L125.796 40.4458L125.8 40.4501L126.131 40.1321ZM126.131 24.1015L125.798 23.7855L125.798 23.7856L126.131 24.1015ZM129.877 21.6565L129.711 21.2286L129.71 21.2291L129.877 21.6565ZM140.032 21.6565L139.865 22.0838L139.866 22.0843L140.032 21.6565ZM143.798 24.1015L143.465 24.4174L143.467 24.4195L143.798 24.1015ZM143.798 40.1321L144.129 40.4501L144.131 40.448L143.798 40.1321ZM127.728 39.1067L127.409 39.436L127.411 39.4384L127.728 39.1067ZM142.201 39.1067L142.518 39.4384L142.519 39.4372L142.201 39.1067ZM142.201 25.1465L141.881 25.4758L141.884 25.4782L142.201 25.1465ZM127.728 25.1268L127.411 24.7951L127.41 24.7963L127.728 25.1268ZM139.865 42.1497C138.414 42.7175 136.783 43.0055 134.965 43.0055V43.9233C136.88 43.9233 138.627 43.6197 140.199 43.0044L139.865 42.1497ZM134.965 43.0055C133.147 43.0055 131.508 42.7176 130.043 42.1493L129.711 43.0049C131.296 43.6197 133.049 43.9233 134.965 43.9233V43.0055ZM130.048 42.151C128.588 41.567 127.396 40.786 126.462 39.814L125.8 40.4501C126.837 41.5288 128.144 42.3778 129.707 43.0031L130.048 42.151ZM126.466 39.8184C125.535 38.8243 124.817 37.6725 124.312 36.359L123.455 36.6884C124.001 38.1091 124.782 39.3629 125.796 40.4458L126.466 39.8184ZM124.312 36.359C123.807 35.0484 123.553 33.6324 123.553 32.1069H122.636C122.636 33.7363 122.907 35.2648 123.455 36.6884L124.312 36.359ZM123.553 32.1069C123.553 30.5814 123.807 29.1655 124.312 27.8548L123.455 27.5254C122.907 28.949 122.636 30.4775 122.636 32.1069H123.553ZM124.312 27.8548C124.817 26.5418 125.534 25.3974 126.464 24.4173L125.798 23.7856C124.782 24.8562 124.002 26.1042 123.455 27.5254L124.312 27.8548ZM126.464 24.4174C127.398 23.4339 128.587 22.6541 130.045 22.0838L129.71 21.2291C128.144 21.8419 126.836 22.6921 125.798 23.7855L126.464 24.4174ZM130.043 22.0843C131.508 21.516 133.147 21.228 134.965 21.228V20.3103C133.049 20.3103 131.296 20.6139 129.711 21.2286L130.043 22.0843ZM134.965 21.228C136.783 21.228 138.414 21.516 139.865 22.0838L140.199 21.2291C138.627 20.6139 136.88 20.3103 134.965 20.3103V21.228ZM139.866 22.0843C141.337 22.6548 142.532 23.4346 143.465 24.4174L144.131 23.7855C143.092 22.6913 141.777 21.8412 140.198 21.2286L139.866 22.0843ZM143.467 24.4195C144.41 25.3994 145.133 26.5431 145.637 27.8548L146.494 27.5254C145.947 26.1029 145.159 24.8542 144.129 23.7834L143.467 24.4195ZM145.637 27.8548C146.142 29.1655 146.396 30.5814 146.396 32.1069H147.313C147.313 30.4775 147.042 28.949 146.494 27.5254L145.637 27.8548ZM146.396 32.1069C146.396 33.6324 146.142 35.0484 145.637 36.359L146.494 36.6884C147.042 35.2648 147.313 33.7363 147.313 32.1069H146.396ZM145.637 36.359C145.133 37.6712 144.409 38.8223 143.465 39.8161L144.131 40.448C145.159 39.3649 145.947 38.1104 146.494 36.6884L145.637 36.359ZM143.467 39.814C142.534 40.7853 141.336 41.5663 139.863 42.1505L140.201 43.0037C141.778 42.3785 143.091 41.5295 144.129 40.4501L143.467 39.814ZM127.411 39.4384C129.315 41.2588 131.85 42.1487 134.965 42.1487V41.2309C132.033 41.2309 129.743 40.3987 128.045 38.7751L127.411 39.4384ZM134.965 42.1487C138.079 42.1487 140.614 41.2588 142.518 39.4384L141.884 38.7751C140.186 40.3987 137.897 41.2309 134.965 41.2309V42.1487ZM142.519 39.4372C144.426 37.6006 145.361 35.1397 145.361 32.1069H144.444C144.444 34.9369 143.578 37.1425 141.883 38.7763L142.519 39.4372ZM145.361 32.1069C145.361 29.0867 144.425 26.6383 142.518 24.8148L141.884 25.4782C143.579 27.0988 144.444 29.2906 144.444 32.1069H145.361ZM142.521 24.8172C140.629 22.9815 138.093 22.0849 134.965 22.0849V23.0026C137.91 23.0026 140.197 23.8412 141.881 25.4758L142.521 24.8172ZM134.965 22.0849C131.85 22.0849 129.315 22.9747 127.411 24.7951L128.045 25.4585C129.743 23.8348 132.033 23.0026 134.965 23.0026V22.0849ZM127.41 24.7963C125.516 26.6204 124.588 29.0753 124.588 32.1069H125.505C125.505 29.2758 126.365 27.0772 128.047 25.4573L127.41 24.7963ZM124.588 32.1069C124.588 35.1387 125.516 37.5992 127.409 39.436L128.048 38.7775C126.365 37.1439 125.505 34.9379 125.505 32.1069H124.588ZM161.268 43.1292L161.139 43.5696L161.143 43.5705L161.268 43.1292ZM157.325 41.5518L156.911 41.3527L156.726 41.738L157.097 41.9502L157.325 41.5518ZM158.094 39.9546L158.317 39.5535L157.891 39.3172L157.68 39.7555L158.094 39.9546ZM170.772 34.4533L170.538 34.8477L170.541 34.8497L170.772 34.4533ZM165.724 32.9548L165.653 33.4081L165.656 33.4085L165.724 32.9548ZM161.051 31.8309L160.89 32.2605L160.892 32.2613L161.051 31.8309ZM157.601 29.0506L157.195 29.265L157.198 29.2709L157.601 29.0506ZM159.277 22.2283L159.54 22.6044L159.542 22.6028L159.277 22.2283ZM173 22.4255L173.4 22.6504L173.625 22.2505L173.225 22.0255L173 22.4255ZM172.113 24.0029L171.882 24.3992L172.284 24.6343L172.513 24.2279L172.113 24.0029ZM159.237 27.907L158.816 28.0895L158.819 28.0947L159.237 27.907ZM159.849 28.8929L159.5 29.1916L159.508 29.2008L159.849 28.8929ZM160.854 29.6619L160.629 30.0619L160.634 30.0648L160.854 29.6619ZM162.037 30.2337L161.864 30.6587L161.873 30.6625L161.883 30.6659L162.037 30.2337ZM163.417 30.6478L163.301 31.0919L163.314 31.0947L163.417 30.6478ZM164.778 30.9436L164.691 31.3942L164.694 31.3948L164.778 30.9436ZM166.139 31.1802L166.063 31.6328L166.067 31.6335L166.139 31.1802ZM168.564 31.6534L168.455 32.0991L168.456 32.0995L168.564 31.6534ZM172.645 33.5463L172.34 33.8888L172.345 33.8928L172.645 33.5463ZM173.868 35.2223L173.451 35.4147L173.456 35.4243L173.868 35.2223ZM172.113 42.1433L172.389 42.51L172.389 42.5096L172.113 42.1433ZM166.099 43.3604C164.54 43.3604 162.972 43.1368 161.394 42.6878L161.143 43.5705C162.798 44.0417 164.451 44.2782 166.099 44.2782V43.3604ZM161.397 42.6888C159.801 42.2216 158.523 41.7079 157.552 41.1533L157.097 41.9502C158.151 42.5523 159.502 43.0903 161.139 43.5696L161.397 42.6888ZM157.738 41.7508L158.507 40.1537L157.68 39.7555L156.911 41.3527L157.738 41.7508ZM157.871 40.3557C158.856 40.9028 160.092 41.3941 161.571 41.8339L161.833 40.9541C160.394 40.5264 159.225 40.058 158.317 39.5535L157.871 40.3557ZM161.571 41.8339C163.07 42.2794 164.553 42.5036 166.02 42.5036V41.5858C164.648 41.5858 163.253 41.3762 161.833 40.9541L161.571 41.8339ZM166.02 42.5036C168.057 42.5036 169.722 42.1133 170.968 41.2829L170.459 40.5192C169.417 41.2137 167.953 41.5858 166.02 41.5858V42.5036ZM170.968 41.2829C172.253 40.4258 172.887 39.1369 172.887 37.4899H171.97C171.97 38.8662 171.46 39.8515 170.459 40.5192L170.968 41.2829ZM172.887 37.4899C172.887 35.9622 172.262 34.791 171.003 34.057L170.541 34.8497C171.491 35.4039 171.97 36.257 171.97 37.4899H172.887ZM171.007 34.059C169.826 33.3563 168.074 32.8459 165.793 32.501L165.656 33.4085C167.897 33.7472 169.51 34.2358 170.538 34.8476L171.007 34.059ZM165.796 32.5015C164.881 32.3578 164.095 32.2147 163.435 32.0724L163.242 32.9696C163.923 33.1165 164.727 33.2626 165.653 33.4081L165.796 32.5015ZM163.435 32.0724C162.792 31.9336 162.051 31.7106 161.21 31.4004L160.892 32.2613C161.761 32.582 162.545 32.8192 163.242 32.9696L163.435 32.0724ZM161.212 31.4012C160.402 31.0972 159.756 30.7495 159.263 30.3649L158.699 31.0884C159.284 31.5451 160.018 31.9335 160.89 32.2605L161.212 31.4012ZM159.263 30.3649C158.781 29.9885 158.359 29.481 158.003 28.8304L157.198 29.2709C157.605 30.0137 158.103 30.6236 158.699 31.0884L159.263 30.3649ZM158.006 28.8363C157.678 28.2141 157.508 27.4941 157.508 26.6648H156.59C156.59 27.6232 156.788 28.4938 157.195 29.265L158.006 28.8363ZM157.508 26.6648C157.508 24.885 158.185 23.5512 159.54 22.6044L159.014 21.8522C157.397 22.9823 156.59 24.6062 156.59 26.6648H157.508ZM159.542 22.6028C160.92 21.6269 162.91 21.1097 165.567 21.1097V20.192C162.808 20.192 160.604 20.7264 159.012 21.8537L159.542 22.6028ZM165.567 21.1097C168.355 21.1097 170.752 21.6875 172.775 22.8254L173.225 22.0255C171.042 20.7973 168.484 20.192 165.567 20.192V21.1097ZM172.6 22.2005L171.713 23.7779L172.513 24.2279L173.4 22.6504L172.6 22.2005ZM172.344 23.6066C170.46 22.5059 168.207 21.9666 165.606 21.9666V22.8843C168.079 22.8843 170.165 23.3966 171.882 24.3992L172.344 23.6066ZM165.606 21.9666C163.364 21.9666 161.604 22.3192 160.392 23.0879C159.144 23.8789 158.522 25.0816 158.522 26.6253H159.44C159.44 25.3692 159.922 24.4719 160.883 23.863C161.879 23.2317 163.431 22.8843 165.606 22.8843V21.9666ZM158.522 26.6253C158.522 27.1437 158.619 27.6335 158.816 28.0895L159.658 27.7246C159.514 27.3918 159.44 27.0272 159.44 26.6253H158.522ZM158.819 28.0947C159.005 28.5102 159.231 28.8775 159.5 29.1915L160.197 28.5943C159.993 28.3562 159.812 28.0662 159.656 27.7193L158.819 28.0947ZM159.508 29.2008C159.799 29.5226 160.177 29.8078 160.629 30.0619L161.079 29.2619C160.69 29.0428 160.397 28.8153 160.189 28.585L159.508 29.2008ZM160.634 30.0648C161.079 30.3074 161.489 30.5061 161.864 30.6587L162.21 29.8087C161.875 29.6722 161.497 29.4896 161.074 29.259L160.634 30.0648ZM161.883 30.6659C162.268 30.8033 162.742 30.9451 163.301 31.0917L163.534 30.2039C162.989 30.0613 162.543 29.927 162.192 29.8016L161.883 30.6659ZM163.314 31.0947C163.881 31.2268 164.341 31.3269 164.691 31.3942L164.865 30.4929C164.531 30.4288 164.084 30.3317 163.521 30.2008L163.314 31.0947ZM164.694 31.3948C165.053 31.4612 165.51 31.5406 166.063 31.6328L166.214 30.7275C165.663 30.6357 165.213 30.5574 164.862 30.4923L164.694 31.3948ZM166.067 31.6335C166.978 31.7766 167.773 31.932 168.455 32.0991L168.673 31.2077C167.961 31.033 167.139 30.8729 166.21 30.7268L166.067 31.6335ZM168.456 32.0995C169.138 32.2635 169.849 32.5044 170.591 32.8241L170.954 31.9813C170.171 31.6437 169.41 31.385 168.671 31.2073L168.456 32.0995ZM170.591 32.8241C171.32 33.1383 171.899 33.4953 172.34 33.8888L172.951 33.2038C172.419 32.7297 171.75 32.3243 170.954 31.9813L170.591 32.8241ZM172.345 33.8928C172.789 34.2785 173.159 34.782 173.451 35.4146L174.285 35.03C173.946 34.2956 173.501 33.6817 172.946 33.1998L172.345 33.8928ZM173.456 35.4243C173.749 36.0224 173.902 36.7204 173.902 37.5293H174.82C174.82 36.603 174.644 35.7631 174.28 35.0203L173.456 35.4243ZM173.902 37.5293C173.902 39.337 173.215 40.7368 171.837 41.7769L172.389 42.5096C174.008 41.2888 174.82 39.6126 174.82 37.5293H173.902ZM171.837 41.7766C170.455 42.8159 168.559 43.3604 166.099 43.3604V44.2782C168.687 44.2782 170.8 43.7053 172.389 42.51L171.837 41.7766ZM192.067 42.5771H191.609V43.036H192.067V42.5771ZM192.067 23.786H192.526V23.3271H192.067V23.786ZM182.445 23.786H181.986V24.2449H182.445V23.786ZM182.445 22.0114V21.5525H181.986V22.0114H182.445ZM203.701 22.0114H204.16V21.5525H203.701V22.0114ZM203.701 23.786V24.2449H204.16V23.786H203.701ZM194.079 23.786V23.3271H193.62V23.786H194.079ZM194.079 42.5771V43.036H194.538V42.5771H194.079ZM192.526 42.5771V23.786H191.609V42.5771H192.526ZM192.067 23.3271H182.445V24.2449H192.067V23.3271ZM182.904 23.786V22.0114H181.986V23.786H182.904ZM182.445 22.4703H203.701V21.5525H182.445V22.4703ZM203.242 22.0114V23.786H204.16V22.0114H203.242ZM203.701 23.3271H194.079V24.2449H203.701V23.3271ZM193.62 23.786V42.5771H194.538V23.786H193.62ZM194.079 42.1182H192.067V43.036H194.079V42.1182ZM213.994 42.2419H213.535V42.7008H213.994V42.2419ZM213.994 21.6959V21.237H213.535V21.6959H213.994ZM216.005 21.6959H216.464V21.237H216.005V21.6959ZM216.005 40.4673H215.546V40.9262H216.005V40.4673ZM231.759 40.4673H232.218V40.0084H231.759V40.4673ZM231.759 42.2419V42.7008H232.218V42.2419H231.759ZM214.453 42.2419V21.6959H213.535V42.2419H214.453ZM213.994 22.1548H216.005V21.237H213.994V22.1548ZM215.546 21.6959V40.4673H216.464V21.6959H215.546ZM216.005 40.9262H231.759V40.0084H216.005V40.9262ZM231.301 40.4673V42.2419H232.218V40.4673H231.301ZM231.759 41.783H213.994V42.7008H231.759V41.783ZM241.342 42.5771L240.923 42.3901L240.635 43.036H241.342V42.5771ZM250.551 21.9325V21.4736H250.253L250.132 21.7456L250.551 21.9325ZM256.446 21.9325L256.865 21.7459L256.744 21.4736H256.446V21.9325ZM265.635 42.5771V43.036H266.341L266.054 42.3905L265.635 42.5771ZM263.624 42.5771L263.207 42.7694L263.33 43.036H263.624V42.5771ZM262.204 39.5011L262.62 39.3088L262.497 39.0422H262.204V39.5011ZM244.773 39.5011V39.0422H244.48L244.357 39.3088L244.773 39.5011ZM243.354 42.5771V43.036H243.647L243.77 42.7694L243.354 42.5771ZM245.582 37.7265L245.161 37.5437L244.882 38.1854H245.582V37.7265ZM261.435 37.7265V38.1854H262.136L261.855 37.5427L261.435 37.7265ZM255.342 23.786L255.763 23.6022L255.642 23.3271H255.342V23.786ZM251.635 23.786V23.3271H251.334L251.214 23.6032L251.635 23.786ZM241.761 42.764L250.97 22.1194L250.132 21.7456L240.923 42.3901L241.761 42.764ZM250.551 22.3914H256.446V21.4736H250.551V22.3914ZM256.027 22.1191L265.215 42.7637L266.054 42.3905L256.865 21.7459L256.027 22.1191ZM265.635 42.1182H263.624V43.036H265.635V42.1182ZM264.04 42.3848L262.62 39.3088L261.787 39.6934L263.207 42.7694L264.04 42.3848ZM262.204 39.0422H244.773V39.96H262.204V39.0422ZM244.357 39.3088L242.937 42.3848L243.77 42.7694L245.19 39.6934L244.357 39.3088ZM243.354 42.1182H241.342V43.036H243.354V42.1182ZM245.582 38.1854H261.435V37.2676H245.582V38.1854ZM261.855 37.5427L255.763 23.6022L254.922 23.9698L261.014 37.9103L261.855 37.5427ZM255.342 23.3271H251.635V24.2449H255.342V23.3271ZM251.214 23.6032L245.161 37.5437L246.003 37.9093L252.056 23.9688L251.214 23.6032ZM281.685 42.3799L281.526 42.8105L281.53 42.812L281.685 42.3799ZM278.392 40.4081L278.082 40.7466L278.085 40.7487L278.392 40.4081ZM276.184 37.135L275.758 37.3061L275.759 37.3076L276.184 37.135ZM275.375 21.6959V21.237H274.916V21.6959H275.375ZM277.387 21.6959H277.845V21.237H277.387V21.6959ZM291.682 38.9293L292.001 39.2593L292.002 39.2579L291.682 38.9293ZM294.028 21.6959V21.237H293.57V21.6959H294.028ZM296.04 21.6959H296.499V21.237H296.04V21.6959ZM295.211 37.135L294.787 36.9602L294.786 36.9638L295.211 37.135ZM292.983 40.4278L293.288 40.7708L293.291 40.7685L292.983 40.4278ZM289.691 42.3799L289.847 42.8114L289.849 42.8105L289.691 42.3799ZM285.708 42.5914C284.323 42.5914 283.035 42.3757 281.84 41.9478L281.53 42.812C282.833 43.278 284.226 43.5092 285.708 43.5092V42.5914ZM281.844 41.9493C280.647 41.5086 279.601 40.881 278.7 40.0675L278.085 40.7487C279.076 41.6441 280.225 42.3311 281.526 42.8105L281.844 41.9493ZM278.702 40.0696C277.825 39.267 277.126 38.2352 276.609 36.9624L275.759 37.3076C276.32 38.69 277.092 39.8404 278.082 40.7466L278.702 40.0696ZM276.61 36.9638C276.095 35.6848 275.834 34.2454 275.834 32.6393H274.916C274.916 34.3457 275.194 35.9035 275.758 37.3061L276.61 36.9638ZM275.834 32.6393V21.6959H274.916V32.6393H275.834ZM275.375 22.1548H277.387V21.237H275.375V22.1548ZM276.928 21.6959V32.6787H277.845V21.6959H276.928ZM276.928 32.6787C276.928 35.476 277.725 37.7052 279.375 39.2988L280.012 38.6386C278.586 37.2614 277.845 35.2972 277.845 32.6787H276.928ZM279.375 39.2988C281.012 40.8797 283.137 41.6557 285.708 41.6557V40.7379C283.335 40.7379 281.451 40.0285 280.012 38.6386L279.375 39.2988ZM285.708 41.6557C288.231 41.6557 290.341 40.8632 292.001 39.2593L291.363 38.5993C289.894 40.0188 288.022 40.7379 285.708 40.7379V41.6557ZM292.002 39.2579C293.673 37.629 294.487 35.4169 294.487 32.6787H293.57C293.57 35.225 292.819 37.1798 291.362 38.6007L292.002 39.2579ZM294.487 32.6787V21.6959H293.57V32.6787H294.487ZM294.028 22.1548H296.04V21.237H294.028V22.1548ZM295.581 21.6959V32.6393H296.499V21.6959H295.581ZM295.581 32.6393C295.581 34.2441 295.313 35.6822 294.787 36.9602L295.636 37.3097C296.214 35.9061 296.499 34.3471 296.499 32.6393H295.581ZM294.786 36.9638C294.269 38.2486 293.564 39.2854 292.676 40.0872L293.291 40.7685C294.296 39.8614 295.076 38.703 295.637 37.3061L294.786 36.9638ZM292.679 40.0849C291.777 40.8862 290.73 41.508 289.532 41.9493L289.849 42.8105C291.149 42.3316 292.297 41.6521 293.288 40.7708L292.679 40.0849ZM289.534 41.9484C288.353 42.3758 287.078 42.5914 285.708 42.5914V43.5092C287.176 43.5092 288.557 43.2779 289.847 42.8114L289.534 41.9484ZM308.521 42.5771H308.062V43.036H308.521V42.5771ZM308.521 21.6959V21.237H308.062V21.6959H308.521ZM310.651 21.6959L310.994 21.3911L310.857 21.237H310.651V21.6959ZM326.819 39.8955L326.476 40.2002L327.278 41.1029V39.8955H326.819ZM326.819 21.6959V21.237H326.36V21.6959H326.819ZM328.83 21.6959H329.289V21.237H328.83V21.6959ZM328.83 42.5771V43.036H329.289V42.5771H328.83ZM326.602 42.5771L326.26 42.8832L326.397 43.036H326.602V42.5771ZM310.532 24.6338L310.874 24.3277L310.073 23.4336V24.6338H310.532ZM310.532 42.5771V43.036H310.991V42.5771H310.532ZM308.98 42.5771V21.6959H308.062V42.5771H308.98ZM308.521 22.1548H310.651V21.237H308.521V22.1548ZM310.307 22.0007L326.476 40.2002L327.162 39.5907L310.994 21.3911L310.307 22.0007ZM327.278 39.8955V21.6959H326.36V39.8955H327.278ZM326.819 22.1548H328.83V21.237H326.819V22.1548ZM328.372 21.6959V42.5771H329.289V21.6959H328.372ZM328.83 42.1182H326.602V43.036H328.83V42.1182ZM326.944 42.2709L310.874 24.3277L310.19 24.94L326.26 42.8832L326.944 42.2709ZM310.073 24.6338V42.5771H310.991V24.6338H310.073ZM310.532 42.1182H308.521V43.036H310.532V42.1182ZM343.599 40.1123L343.279 40.4408L343.28 40.4418L343.599 40.1123ZM341.193 27.631L340.768 27.4591L340.767 27.4627L341.193 27.631ZM343.52 24.0423L343.194 23.7199L343.192 23.7221L343.52 24.0423ZM359.137 22.4255L359.473 22.7375L359.869 22.3107L359.362 22.0254L359.137 22.4255ZM357.875 23.786L357.642 24.1813L357.96 24.369L358.211 24.098L357.875 23.786ZM345.078 25.1465L345.394 25.479L345.394 25.4789L345.078 25.1465ZM345.078 38.9096L344.764 39.2443L344.765 39.2455L345.078 38.9096ZM358.328 40.0729L358.663 39.7589L358.402 39.4807L358.081 39.6866L358.328 40.0729ZM359.531 41.3546L359.788 41.7347L360.234 41.4332L359.866 41.0405L359.531 41.3546ZM352.472 42.7886C348.8 42.7886 345.968 41.7703 343.918 39.7829L343.28 40.4418C345.541 42.6346 348.625 43.7064 352.472 43.7064V42.7886ZM343.919 39.7839C341.875 37.7894 340.844 35.2178 340.844 32.028H339.926C339.926 35.4372 341.038 38.2551 343.279 40.4408L343.919 39.7839ZM340.844 32.028C340.844 30.5176 341.104 29.1094 341.62 27.7993L340.767 27.4627C340.205 28.8867 339.926 30.4099 339.926 32.028H340.844ZM341.619 27.8028C342.149 26.4893 342.893 25.3439 343.849 24.3626L343.192 23.7221C342.15 24.7914 341.342 26.0384 340.768 27.4591L341.619 27.8028ZM343.847 24.3647C344.807 23.392 346.024 22.6168 347.51 22.0453L347.181 21.1887C345.591 21.8003 344.258 22.642 343.194 23.7199L343.847 24.3647ZM347.51 22.0453C348.989 21.4766 350.641 21.1886 352.472 21.1886V20.2708C350.544 20.2708 348.778 20.5743 347.181 21.1887L347.51 22.0453ZM352.472 21.1886C354.83 21.1886 356.973 21.7357 358.912 22.8255L359.362 22.0254C357.278 20.8542 354.978 20.2708 352.472 20.2708V21.1886ZM358.8 22.1134L357.538 23.4739L358.211 24.098L359.473 22.7375L358.8 22.1134ZM358.108 23.3907C356.489 22.4359 354.605 21.9666 352.472 21.9666V22.8843C354.467 22.8843 356.185 23.322 357.642 24.1813L358.108 23.3907ZM352.472 21.9666C349.35 21.9666 346.766 22.9067 344.762 24.8141L345.394 25.4789C347.202 23.7582 349.548 22.8843 352.472 22.8843V21.9666ZM344.762 24.814C342.771 26.7078 341.78 29.1249 341.78 32.028H342.697C342.697 29.3576 343.599 27.187 345.394 25.479L344.762 24.814ZM341.78 32.028C341.78 34.9561 342.77 37.3752 344.764 39.2443L345.392 38.5748C343.6 36.8947 342.697 34.7262 342.697 32.028H341.78ZM344.765 39.2455C346.758 41.0995 349.341 42.0106 352.472 42.0106V41.0929C349.53 41.0929 347.184 40.2425 345.391 38.5736L344.765 39.2455ZM352.472 42.0106C354.9 42.0106 356.945 41.5046 358.576 40.4592L358.081 39.6866C356.635 40.613 354.776 41.0929 352.472 41.0929V42.0106ZM357.994 40.3869L359.196 41.6686L359.866 41.0405L358.663 39.7589L357.994 40.3869ZM359.274 40.9744C357.501 42.1731 355.244 42.7886 352.472 42.7886V43.7064C355.379 43.7064 357.828 43.0599 359.788 41.7347L359.274 40.9744ZM371.263 42.5771H370.804V43.036H371.263V42.5771ZM371.263 21.6959V21.237H370.804V21.6959H371.263ZM373.274 21.6959H373.733V21.237H373.274V21.6959ZM373.274 31.0224H372.816V31.4813H373.274V31.0224ZM389.916 31.0224V31.4813H390.375V31.0224H389.916ZM389.916 21.6959V21.237H389.457V21.6959H389.916ZM391.927 21.6959H392.386V21.237H391.927V21.6959ZM391.927 42.5771V43.036H392.386V42.5771H391.927ZM389.916 42.5771H389.457V43.036H389.916V42.5771ZM389.916 32.8759H390.375V32.417H389.916V32.8759ZM373.274 32.8759V32.417H372.816V32.8759H373.274ZM373.274 42.5771V43.036H373.733V42.5771H373.274ZM371.722 42.5771V21.6959H370.804V42.5771H371.722ZM371.263 22.1548H373.274V21.237H371.263V22.1548ZM372.816 21.6959V31.0224H373.733V21.6959H372.816ZM373.274 31.4813H389.916V30.5635H373.274V31.4813ZM390.375 31.0224V21.6959H389.457V31.0224H390.375ZM389.916 22.1548H391.927V21.237H389.916V22.1548ZM391.469 21.6959V42.5771H392.386V21.6959H391.469ZM391.927 42.1182H389.916V43.036H391.927V42.1182ZM390.375 42.5771V32.8759H389.457V42.5771H390.375ZM389.916 32.417H373.274V33.3348H389.916V32.417ZM372.816 32.8759V42.5771H373.733V32.8759H372.816ZM373.274 42.1182H371.263V43.036H373.274V42.1182Z" fill="black"/>
<path fill-rule="evenodd" clip-rule="evenodd" d="M52.3727 52.4135C41.1691 63.5428 23.4397 64.2384 11.4204 54.5004C14.0753 50.6819 15.2657 47.9635 14.4207 47.1241C13.5757 46.2847 10.8392 47.4673 6.99525 50.1045C-2.8077 38.1648 -2.10742 20.5528 9.0961 9.42346C21.0466 -2.4479 40.4222 -2.44789 52.3727 9.42347C64.3231 21.2948 64.3231 40.5421 52.3727 52.4135ZM6.41234 40.707C5.79251 40.0912 6.05588 39.035 6.89081 38.7698C10.1836 37.724 17.0034 35.4027 20.1843 33.1829C22.4106 33.6472 24.2273 34.583 25.5795 35.9262C26.8747 37.2128 27.7935 38.9228 28.2795 41.008C26.0755 44.0846 23.61 51.2279 22.5461 54.504C22.2976 55.2693 21.3157 55.5117 20.7434 54.9431C20.7146 54.9145 20.6995 54.875 20.7017 54.8345C20.9031 51.1729 19.5958 47.4447 16.7801 44.6476C13.9656 41.8518 10.2147 40.5531 6.53033 40.7517C6.48639 40.754 6.44345 40.7379 6.41234 40.707ZM31.2561 38.2559C31.0053 38.4631 30.7544 38.6705 30.5033 38.8784C29.8612 37.0083 28.8682 35.3668 27.5054 34.0131C26.0753 32.5924 24.3261 31.5762 22.3266 30.9429C24.5444 28.1569 26.8732 25.8435 29.4121 23.3214C35.677 17.098 43.0508 12.6474 50.9016 9.96959C51.3938 9.80172 51.8585 10.2633 51.6895 10.7523C48.9939 18.5511 44.5136 25.876 38.2487 32.0994C35.9891 34.3441 33.6306 36.2933 31.2561 38.2559Z" fill="black"/>
</svg>
