<svg width="208" height="34" viewBox="0 0 208 34" fill="none" xmlns="http://www.w3.org/2000/svg">
<path d="M44.649 23.8385H54.1487V26H41.9918V5.95414H44.649V23.8385ZM73.2881 16.7343H64.6007V23.8385H74.6924V26H61.9572V5.95414H74.5547V8.12945H64.6007V14.5728H73.2881V16.7343ZM88.6827 17.0647C86.4156 16.4131 84.7634 15.6145 83.7263 14.6691C82.6983 13.7146 82.1843 12.5397 82.1843 11.1446C82.1843 9.56589 82.813 8.26254 84.0705 7.23455C85.3371 6.19737 86.9801 5.67879 88.9993 5.67879C90.3761 5.67879 91.6014 5.94497 92.6753 6.47732C93.7584 7.00967 94.5936 7.74395 95.181 8.68016C95.7777 9.61637 96.076 10.6398 96.076 11.7504H93.4188C93.4188 10.5388 93.0333 9.58883 92.2623 8.90044C91.4913 8.20288 90.4036 7.85409 88.9993 7.85409C87.696 7.85409 86.6772 8.14322 85.9429 8.72146C85.2178 9.29053 84.8552 10.0845 84.8552 11.1033C84.8552 11.9202 85.1994 12.6131 85.8878 13.1822C86.5854 13.7421 87.7648 14.2561 89.4261 14.7242C91.0966 15.1923 92.4 15.7109 93.3362 16.28C94.2816 16.8399 94.9791 17.4961 95.4289 18.2488C95.8878 19.0014 96.1173 19.8871 96.1173 20.9059C96.1173 22.5305 95.4839 23.8339 94.2173 24.816C92.9507 25.7889 91.2572 26.2754 89.137 26.2754C87.7602 26.2754 86.4752 26.0138 85.282 25.4906C84.0888 24.9582 83.1664 24.2331 82.5147 23.3153C81.8722 22.3974 81.551 21.3557 81.551 20.19H84.2081C84.2081 21.4016 84.6533 22.3607 85.5436 23.0675C86.4431 23.765 87.6409 24.1138 89.137 24.1138C90.5321 24.1138 91.6014 23.8293 92.3449 23.2602C93.0883 22.6911 93.4601 21.9156 93.4601 20.9335C93.4601 19.9514 93.1159 19.1941 92.4275 18.6618C91.7391 18.1203 90.4908 17.5879 88.6827 17.0647ZM110.218 17.0647C107.951 16.4131 106.298 15.6145 105.261 14.6691C104.233 13.7146 103.719 12.5397 103.719 11.1446C103.719 9.56589 104.348 8.26254 105.605 7.23455C106.872 6.19737 108.515 5.67879 110.534 5.67879C111.911 5.67879 113.136 5.94497 114.21 6.47732C115.293 7.00967 116.129 7.74395 116.716 8.68016C117.313 9.61637 117.611 10.6398 117.611 11.7504H114.954C114.954 10.5388 114.568 9.58883 113.797 8.90044C113.026 8.20288 111.939 7.85409 110.534 7.85409C109.231 7.85409 108.212 8.14322 107.478 8.72146C106.753 9.29053 106.39 10.0845 106.39 11.1033C106.39 11.9202 106.734 12.6131 107.423 13.1822C108.12 13.7421 109.3 14.2561 110.961 14.7242C112.632 15.1923 113.935 15.7109 114.871 16.28C115.817 16.8399 116.514 17.4961 116.964 18.2488C117.423 19.0014 117.652 19.8871 117.652 20.9059C117.652 22.5305 117.019 23.8339 115.752 24.816C114.486 25.7889 112.792 26.2754 110.672 26.2754C109.295 26.2754 108.01 26.0138 106.817 25.4906C105.624 24.9582 104.701 24.2331 104.05 23.3153C103.407 22.3974 103.086 21.3557 103.086 20.19H105.743C105.743 21.4016 106.188 22.3607 107.079 23.0675C107.978 23.765 109.176 24.1138 110.672 24.1138C112.067 24.1138 113.136 23.8293 113.88 23.2602C114.623 22.6911 114.995 21.9156 114.995 20.9335C114.995 19.9514 114.651 19.1941 113.962 18.6618C113.274 18.1203 112.026 17.5879 110.218 17.0647ZM137.634 26V5.95414H144.187C146.362 5.95414 147.996 6.40389 149.088 7.30338C150.19 8.20288 150.741 9.53376 150.741 11.296C150.741 12.2322 150.474 13.0629 149.942 13.788C149.41 14.5039 148.685 15.0592 147.767 15.4539C148.85 15.7568 149.703 16.335 150.328 17.1886C150.961 18.0331 151.277 19.0427 151.277 20.2175C151.277 22.0165 150.695 23.43 149.529 24.458C148.363 25.486 146.716 26 144.586 26H137.634ZM140.277 16.6242V23.8385H144.641C145.871 23.8385 146.84 23.5218 147.546 22.8885C148.262 22.246 148.62 21.3649 148.62 20.2451C148.62 17.8311 147.308 16.6242 144.683 16.6242H140.277ZM140.277 14.5039H144.27C145.426 14.5039 146.349 14.2148 147.037 13.6366C147.735 13.0583 148.083 12.2735 148.083 11.2823C148.083 10.1808 147.762 9.38232 147.12 8.88668C146.477 8.38186 145.5 8.12945 144.187 8.12945H140.277V14.5039ZM162.831 26H160.187V5.95414H162.831V26ZM185.908 8.12945H179.465V26H176.835V8.12945H170.405V5.95414H185.908V8.12945ZM199.361 17.0647C197.094 16.4131 195.442 15.6145 194.405 14.6691C193.377 13.7146 192.863 12.5397 192.863 11.1446C192.863 9.56589 193.491 8.26254 194.749 7.23455C196.016 6.19737 197.659 5.67879 199.678 5.67879C201.055 5.67879 202.28 5.94497 203.354 6.47732C204.437 7.00967 205.272 7.74395 205.86 8.68016C206.456 9.61637 206.754 10.6398 206.754 11.7504H204.097C204.097 10.5388 203.712 9.58883 202.941 8.90044C202.17 8.20288 201.082 7.85409 199.678 7.85409C198.374 7.85409 197.356 8.14322 196.621 8.72146C195.896 9.29053 195.534 10.0845 195.534 11.1033C195.534 11.9202 195.878 12.6131 196.566 13.1822C197.264 13.7421 198.443 14.2561 200.105 14.7242C201.775 15.1923 203.078 15.7109 204.015 16.28C204.96 16.8399 205.658 17.4961 206.107 18.2488C206.566 19.0014 206.796 19.8871 206.796 20.9059C206.796 22.5305 206.162 23.8339 204.896 24.816C203.629 25.7889 201.936 26.2754 199.815 26.2754C198.439 26.2754 197.154 26.0138 195.96 25.4906C194.767 24.9582 193.845 24.2331 193.193 23.3153C192.551 22.3974 192.229 21.3557 192.229 20.19H194.887C194.887 21.4016 195.332 22.3607 196.222 23.0675C197.122 23.765 198.319 24.1138 199.815 24.1138C201.211 24.1138 202.28 23.8293 203.023 23.2602C203.767 22.6911 204.139 21.9156 204.139 20.9335C204.139 19.9514 203.794 19.1941 203.106 18.6618C202.418 18.1203 201.169 17.5879 199.361 17.0647Z" fill="#343248"/>
<circle cx="2.45199" cy="8.25668" r="2.45199" fill="#343248"/>
<circle cx="2.45199" cy="23.6698" r="2.45199" fill="#343248"/>
<circle cx="17.8631" cy="8.25668" r="2.45199" fill="#343248"/>
<circle cx="17.8631" cy="23.6698" r="2.45199" fill="#343248"/>
</svg>
