<svg width="98" height="98" viewBox="0 0 98 98" fill="none" xmlns="http://www.w3.org/2000/svg">
<circle cx="49" cy="49" r="47.5" fill="white" stroke="#4E88A2" stroke-width="3"/>
<path d="M10.6452 22.6146L10.6717 22.1153C10.6719 22.1153 10.6721 22.1153 10.6722 22.1154C11.6089 22.1651 12.5383 22.1427 13.455 22.0547C13.497 21.7665 13.5686 21.4831 13.67 21.2084C13.0161 21.2808 12.3548 21.3183 11.6878 21.3183C10.3135 21.3183 8.91855 21.162 7.52747 20.8382L7.5265 20.838C7.35597 20.798 7.18616 20.7792 7.01778 20.7792C6.00218 20.7792 5.08307 21.4774 4.84321 22.5086L4.8431 22.5091C4.56252 23.7103 5.31038 24.9119 6.51295 25.193C8.18908 25.5835 9.8678 25.7779 11.5237 25.7903L11.5266 25.7903C11.5821 25.7911 11.6359 25.7911 11.6949 25.7911C12.6751 25.7911 13.6478 25.7254 14.6077 25.5995C14.3821 25.3694 14.182 25.113 14.0129 24.8344C13.187 24.9256 12.3508 24.9719 11.506 24.9655C11.5059 24.9655 11.5059 24.9655 11.5059 24.9655L11.5097 24.4655M10.6452 22.6146C10.1441 22.5869 9.71338 22.974 9.68647 23.4767C9.65955 23.9802 10.0451 24.4093 10.5486 24.4362C10.87 24.4529 11.1898 24.4632 11.5097 24.4655M10.6452 22.6146C11.748 22.6732 12.8405 22.6344 13.9139 22.5085L10.6452 22.6146ZM11.5097 24.4655C12.4462 24.4727 13.3732 24.4133 14.2884 24.2985L11.5097 24.4655ZM25.7117 68.5531L26.0278 70.0972L20.503 28.013C20.4142 27.5783 20.3268 27.1513 20.2408 26.7317C20.2079 26.5711 20.1752 26.4115 20.1428 26.2531C19.9848 26.311 19.8262 26.3674 19.667 26.422M25.7117 68.5531C25.7137 68.529 25.7157 68.5048 25.7177 68.4803C25.8752 66.5229 25.8961 63.2956 25.3324 58.2642C24.3181 49.2075 22.1597 38.5967 20.0131 28.1133L20.013 28.1129C19.9243 27.6781 19.837 27.2518 19.7511 26.8326C19.7229 26.695 19.6949 26.5581 19.667 26.422M25.7117 68.5531C25.6567 69.212 25.5864 69.7222 25.519 70.1053L16.6428 26.7368M25.7117 68.5531L17.2314 27.119M19.667 26.422C19.6331 26.2563 19.5994 26.0917 19.5659 25.928C18.6137 26.258 17.6378 26.5279 16.6428 26.7368M19.667 26.422C18.8702 26.6957 18.0575 26.9282 17.2314 27.119M17.2314 27.119L17.1327 26.6365L16.6428 26.7368M17.2314 27.119C17.07 27.1563 16.908 27.192 16.7455 27.2261L16.6428 26.7368M5.11714 26.7585C5.41192 26.9098 5.72964 27.0285 6.06792 27.1073C6.06809 27.1073 6.06825 27.1074 6.06842 27.1074L5.11714 26.7585ZM5.11714 26.7585C5.10538 26.8294 5.09359 26.9005 5.08176 26.9718C5.0293 27.2882 4.9762 27.6084 4.92316 27.9297L4.92307 27.9302C3.16936 38.4866 1.40751 49.1701 0.731855 58.2575L0.233232 58.2204L0.731855 58.2575C0.356399 63.3062 0.497868 66.5305 0.728293 68.4808C0.731196 68.5053 0.734113 68.5297 0.737043 68.5539L7.57166 27.4093L5.11714 26.7585ZM5.60896 23.0051C5.60289 23.787 6.23254 24.4206 7.00989 24.428L7.01146 24.428C7.7904 24.4329 8.42758 23.806 8.43371 23.0263C8.43984 22.2452 7.81085 21.6091 7.03148 21.604M5.60896 23.0051C5.61422 22.2259 6.25092 21.5974 7.03148 21.604M5.60896 23.0051C5.60896 23.005 5.60896 23.005 5.60896 23.0049L6.10895 23.0089L5.60896 23.0057C5.60896 23.0055 5.60896 23.0053 5.60896 23.0051ZM7.03148 21.604C7.03191 21.604 7.03234 21.604 7.03278 21.604L7.02807 22.104L7.03121 21.604C7.0313 21.604 7.03139 21.604 7.03148 21.604ZM14.102 11.83C14.0634 11.6433 13.9749 11.4707 13.8705 11.3279L14.4706 11.0667L14.4712 11.0664C15.1554 10.7674 15.7009 10.0659 15.8227 9.32894L15.9777 8.39591C16.4288 10.6001 17.0647 13.7074 17.9606 18.0863C17.464 18.2946 16.9551 18.4783 16.4362 18.638C16.43 18.6398 16.4219 18.6422 16.4124 18.645C16.3842 18.6532 16.3443 18.665 16.3094 18.6764C16.0568 18.7516 15.8022 18.821 15.5456 18.8842L15.1274 16.8405L14.1022 11.8309L14.102 11.83ZM7.01857 18.8134C6.819 18.8134 6.62249 18.8275 6.43001 18.8547L6.43677 18.814L6.45272 18.718L6.4686 18.6224L6.48442 18.5272L6.50018 18.4323L6.51587 18.3379L6.53151 18.2438L6.54708 18.1501L6.56258 18.0568L6.57803 17.9638L6.59341 17.8712L6.60873 17.779L6.62399 17.6872L6.63918 17.5957L6.65432 17.5046L6.66939 17.4139L6.6844 17.3236L6.69935 17.2336L6.71424 17.144L6.72907 17.0548L6.74384 16.9659L6.75854 16.8774L6.77319 16.7892L6.78777 16.7015L6.80229 16.614L6.81676 16.527L6.83116 16.4403L6.8455 16.354L6.85979 16.268L6.87401 16.1824L6.88817 16.0972L6.90228 16.0123L6.91632 15.9278L6.93031 15.8436L6.94423 15.7598L6.9581 15.6763L6.97191 15.5932L6.98565 15.5105L6.99934 15.4281L7.01297 15.3461L7.02655 15.2644L7.04006 15.183L7.05352 15.102L7.06692 15.0214L7.08026 14.9411L7.09354 14.8612L7.10676 14.7816L7.11993 14.7024L7.13304 14.6235L7.14609 14.5449L7.15908 14.4667L7.17202 14.3888L7.1849 14.3113L7.19772 14.2341L7.21049 14.1573L7.2232 14.0808L7.23585 14.0046L7.24845 13.9288L7.26099 13.8533L7.27348 13.7782L7.28591 13.7034L7.29828 13.6289L7.3106 13.5548L7.32286 13.481L7.33507 13.4075L7.34722 13.3344L7.35931 13.2616L7.37135 13.1891L7.38334 13.117L7.39527 13.0452L7.40715 12.9737L7.41897 12.9026L7.43073 12.8317L7.44245 12.7613L7.4541 12.6911L7.46571 12.6212L7.47726 12.5517L7.48876 12.4825L7.5002 12.4137L7.51159 12.3451L7.52292 12.2769L7.5342 12.209L7.54543 12.1414L7.55661 12.0741L7.56773 12.0072L7.5788 11.9406L7.58982 11.8743L7.60079 11.8083L7.6117 11.7426L7.62256 11.6772L7.63337 11.6122L7.64412 11.5475L7.65483 11.483L7.66548 11.4189L7.67608 11.3551L7.68663 11.2916L7.69712 11.2285L7.70757 11.1656L7.71796 11.103L7.72831 11.0408L7.7386 10.9788L7.74884 10.9172L7.75903 10.8558L7.76917 10.7948L7.77926 10.7341L7.7893 10.6737L7.79929 10.6135L7.80923 10.5537L7.81912 10.4942L7.82896 10.435L7.83875 10.3761L7.84849 10.3174L7.85818 10.2591L7.86783 10.2011L7.87742 10.1433L7.88696 10.0859L7.89646 10.0288L7.9059 9.97191L7.9153 9.91536L7.92465 9.85909L7.93395 9.80312L7.9432 9.74744L7.9524 9.69204L7.96156 9.63694L7.97067 9.58213L7.97973 9.5276L7.98874 9.47336L7.9977 9.41941L8.00662 9.36574L8.01549 9.31236L8.02431 9.25926L8.03309 9.20644L8.04182 9.15391L8.0505 9.10166L8.05913 9.04969L8.06772 8.998L8.07626 8.94658L8.08476 8.89545L8.09321 8.8446L8.10161 8.79402L8.10997 8.74372L8.11828 8.69369L8.12655 8.64394L8.13477 8.59446L8.14294 8.54526L8.15107 8.49633L8.15916 8.44767L8.1672 8.39928L8.17519 8.35117L8.18314 8.30332L8.19105 8.25574L8.19891 8.20843L8.20673 8.16138L8.2145 8.11461L8.22223 8.0681L8.22991 8.02185L8.23755 7.97587L8.24515 7.93015L8.2527 7.88469L8.26021 7.8395L8.26767 7.79456L8.2751 7.74989L8.28248 7.70548L8.28981 7.66133L8.2971 7.61743L8.30436 7.57379L8.31156 7.53041L8.31873 7.48729L8.32585 7.44442L8.33293 7.4018L8.33997 7.35944L8.34697 7.31733L8.35392 7.27547L8.36084 7.23387L8.36771 7.19251L8.37454 7.15141L8.38132 7.11055L8.38807 7.06994L8.39478 7.02958L8.40144 6.98947L8.40807 6.9496L8.41465 6.90998L8.42119 6.87061L8.42769 6.83147L8.43416 6.79258L8.44058 6.75393L8.44696 6.71553L8.4533 6.67736L8.4596 6.63944L8.46586 6.60175L8.47208 6.5643L8.47827 6.52709L8.48441 6.49012L8.49051 6.45338L8.49658 6.41688L8.50261 6.38062L8.50859 6.34458L8.51454 6.30878L8.52045 6.27322L8.52632 6.23788L8.53215 6.20278L8.53795 6.1679L8.5437 6.13326L8.54942 6.09884L8.5551 6.06465L8.56075 6.03069L8.56635 5.99696L8.57192 5.96345L8.57745 5.93017L8.58294 5.89711L8.5884 5.86427L8.59382 5.83166L8.5992 5.79927L8.60454 5.76709L8.60985 5.73514L8.61512 5.70341L8.62036 5.6719L8.62556 5.64061L8.63072 5.60953L8.63585 5.57867L8.64094 5.54803L8.646 5.5176L8.65102 5.48738L8.656 5.45738L8.66095 5.42759L8.66587 5.39802L8.67075 5.36865L8.67559 5.3395L8.6804 5.31055L8.68517 5.28182L8.68991 5.25329L8.69462 5.22497L8.69929 5.19685L8.70393 5.16895L8.70853 5.14124L8.7131 5.11374L8.71763 5.08645L8.72214 5.05936L8.7266 5.03247L8.73104 5.00578L8.73544 4.97929L8.73981 4.95301L8.74414 4.92692L8.74844 4.90103L8.75271 4.87534L8.75695 4.84984L8.76115 4.82454L8.76532 4.79944L8.76946 4.77453L8.77357 4.74981L8.77764 4.72529L8.78168 4.70096L8.7857 4.67682L8.78967 4.65288L8.79362 4.62912L8.79754 4.60555L8.80142 4.58217L8.80527 4.55898L8.8091 4.53597L8.81289 4.51316L8.81665 4.49052L8.82038 4.46808L8.82408 4.44581L8.82775 4.42373L8.83139 4.40183L8.83499 4.38011L8.83857 4.35858L8.84212 4.33722L8.84564 4.31605L8.84913 4.29505L8.85259 4.27423L8.85602 4.25359L8.85942 4.23312L8.86279 4.21283L8.86613 4.19272L8.86944 4.17278L8.87273 4.15301L8.87598 4.13341L8.87921 4.11399L8.88241 4.09474L8.88558 4.07566L8.88872 4.05674L8.89184 4.038L8.89492 4.01943L8.89798 4.00102L8.90101 3.98278L8.90402 3.9647L8.90699 3.94679L8.90994 3.92904L8.91286 3.91146L8.91576 3.89404L8.91862 3.87678L8.92146 3.85969L8.92428 3.84275L8.92706 3.82598L8.92983 3.80936L8.93256 3.7929L8.93527 3.7766L8.93795 3.76046L8.94061 3.74447L8.94324 3.72863L8.94584 3.71295L8.94842 3.69743L8.95098 3.68206L8.95351 3.66684L8.95601 3.65177L8.95849 3.63685L8.96094 3.62208L8.96337 3.60746L8.96578 3.59299L8.96816 3.57867L8.97051 3.5645L8.97284 3.55047L8.97515 3.53658L8.97743 3.52284L8.97969 3.50925L8.98193 3.49579L8.98414 3.48248L8.98633 3.46931L8.98849 3.45629L8.99063 3.4434L8.99275 3.43065L8.99484 3.41804L8.99692 3.40557L8.99897 3.39323L9.00099 3.38104L9.003 3.36897L9.00498 3.35704L9.00694 3.34525L9.00888 3.33359L9.01079 3.32206L9.01269 3.31066L9.01456 3.2994L9.01641 3.28826L9.01824 3.27726L9.02004 3.26638L9.02183 3.25563L9.02359 3.24501L9.02534 3.23451L9.02706 3.22414L9.02876 3.2139L9.03045 3.20377L9.03211 3.19378L9.03375 3.1839L9.03537 3.17415L9.03697 3.16452L9.03855 3.15501L9.04011 3.14561L9.04165 3.13634L9.04317 3.12719L9.04467 3.11815L9.04615 3.10923L9.04762 3.10042L9.04906 3.09173L9.05049 3.08316L9.05189 3.0747L9.05328 3.06635L9.05465 3.05811L9.056 3.04998L9.05733 3.04197L9.05864 3.03406L9.05994 3.02627L9.06122 3.01858L9.06248 3.011L9.06372 3.00353L9.06494 2.99616L9.06615 2.98889L9.06734 2.98174L9.06851 2.97468L9.06966 2.96773L9.0708 2.96088L9.07192 2.95413L9.07303 2.94749L9.07412 2.94094L9.07519 2.93449L9.07624 2.92814L9.07728 2.92189L9.0783 2.91574L9.07931 2.90968L9.0803 2.90372L9.08128 2.89785L9.08224 2.89207L9.08318 2.88639L9.08411 2.8808L9.08502 2.87531L9.08592 2.8699L9.0868 2.86458L9.08767 2.85935L9.08853 2.85422L9.08937 2.84917L9.09019 2.8442L9.091 2.83932L9.0918 2.83453L9.09258 2.82983L9.09335 2.8252L9.0941 2.82066L9.09484 2.81621L9.09557 2.81183L9.09628 2.80754L9.09698 2.80332L9.09767 2.79919L9.09834 2.79513L9.099 2.79116L9.09965 2.78725L9.10029 2.78343L9.10091 2.77968L9.10152 2.77601L9.10212 2.77241L9.1027 2.76888L9.10328 2.76543L9.10384 2.76205L9.10439 2.75874L9.10493 2.7555L9.10545 2.75233L9.10597 2.74923L9.10647 2.7462L9.10697 2.74323L9.10745 2.74033L9.10792 2.7375L9.10838 2.73473L9.10883 2.73203L9.10927 2.72939L9.10969 2.72681L9.11011 2.7243L9.11052 2.72184L9.11092 2.71945L9.1113 2.71712L9.11168 2.71484L9.11205 2.71263L9.11241 2.71047L9.11276 2.70837L9.1131 2.70632L9.11343 2.70433L9.11375 2.7024L9.11406 2.70052L9.11437 2.69869L9.11466 2.69691L9.11495 2.69519L9.11523 2.69351L9.1155 2.69189L9.11576 2.69031L9.11601 2.68879L9.11626 2.68731L9.1165 2.68588L9.11673 2.68449L9.11695 2.68315L9.11716 2.68185L9.11737 2.6806L9.11757 2.67939L9.11777 2.67823L9.11795 2.6771L9.11813 2.67602L9.11831 2.67497L9.11847 2.67397L9.11863 2.673L9.11879 2.67208L9.11894 2.67119L9.11908 2.67033L9.11921 2.66951L9.11934 2.66873L9.11947 2.66798L9.11959 2.66726L9.1197 2.66658L9.11981 2.66593L9.11991 2.66531L9.12001 2.66472L9.1201 2.66415L9.12019 2.66362L9.12028 2.66312L9.12036 2.66264L9.12043 2.66219L9.1205 2.66177L9.12057 2.66137L9.12063 2.66099L9.12069 2.66064L9.12074 2.66031L9.1208 2.66L9.12084 2.65971L9.12089 2.65945L9.12093 2.6592L9.12097 2.65897L9.121 2.65877L9.12103 2.65857L9.12106 2.6584L9.12109 2.65824L9.12111 2.6581L9.12113 2.65797L9.12115 2.65785L9.12117 2.65775L9.12118 2.65766L9.1212 2.65758L9.12121 2.65751L9.12122 2.65745L9.12123 2.6574L9.12123 2.65736L9.12124 2.65732L9.12124 2.65729L9.12125 2.65727L9.12125 2.65726L9.12125 2.65725L9.12125 2.65724L9.12125 2.65723L8.62802 2.57528L9.12126 2.65723L9.12127 2.65714C9.33072 1.39512 10.4233 0.5 11.6625 0.5C11.8027 0.5 11.9453 0.511311 12.0873 0.535093L12.0879 0.535181C13.8099 0.821621 14.9737 2.44922 14.6874 4.16994L14.6874 4.17L13.8831 9.00687C13.8796 9.02785 13.859 9.08555 13.8062 9.1536C13.7535 9.22148 13.7032 9.25514 13.6843 9.26352C13.6842 9.26355 13.6841 9.26358 13.6841 9.26361L11.0122 10.4286L11.0113 10.429C10.8012 10.5211 10.626 10.6789 10.4998 10.8402C10.3737 11.0015 10.2626 11.2096 10.2242 11.436L10.224 11.4375L8.94863 19.1149C8.62012 19.061 8.29483 18.9986 7.9735 18.9238L7.97315 18.9237C7.66082 18.8512 7.3395 18.8134 7.01857 18.8134ZM10.2811 3.36152L10.2812 3.36212C10.438 4.12612 11.184 4.61937 11.9483 4.46233C12.7119 4.30562 13.2056 3.56061 13.0476 2.79505C12.8905 2.03043 12.1458 1.54042 11.3822 1.69582L11.3813 1.69601C10.6184 1.85277 10.1254 2.5976 10.2811 3.36152ZM29.6196 9.47596L29.6196 9.47604C28.0146 13.9995 24.7655 17.6389 20.7066 19.8361C20.5143 19.627 20.3016 19.4381 20.0721 19.2722C24.041 17.2138 27.2464 13.7047 28.8441 9.20164L28.8441 9.20152C29.1686 8.28627 30.0299 7.71283 30.9505 7.71283C31.1985 7.71283 31.4497 7.75408 31.6972 7.8422L31.6976 7.84236C32.8625 8.2559 33.4706 9.53304 33.0584 10.6971C31.0162 16.4519 26.864 20.9038 21.7398 23.4374C21.7993 23.1128 21.82 22.7812 21.8013 22.4485C26.5717 19.9423 30.4041 15.7107 32.2807 10.4209C32.5416 9.6858 32.158 8.87894 31.4226 8.61788C30.6875 8.35693 29.8806 8.74059 29.6196 9.47596ZM19.7978 22.2209L19.7978 22.221C20.0455 23.4289 19.2665 24.61 18.0578 24.8582C17.9057 24.8889 17.7554 24.9036 17.6078 24.9036C16.5677 24.9036 15.6369 24.174 15.4195 23.1159C15.1725 21.9069 15.952 20.7263 17.1612 20.4785L17.1617 20.4784C17.3124 20.4473 17.4638 20.4325 17.6118 20.4325C18.6508 20.4325 19.5811 21.1626 19.7978 22.2209Z" transform="translate(12.1108 35.123) rotate(-48.3382)" fill="#4E88A2" stroke="#4E88A2"/>
</svg>
