<svg width="14" height="39" viewBox="0 0 14 39" fill="none" xmlns="http://www.w3.org/2000/svg">
<path d="M7.35192 16.0333L7.55236 17.6746L7.4763 18.1852C7.40817 18.6017 7.37793 19.09 7.3856 19.6498C7.40658 20.2193 7.46187 20.7914 7.55148 21.366C7.64461 21.9535 7.76884 22.5105 7.92417 23.0369C8.0081 22.7786 8.09256 22.5235 8.17754 22.2717C8.50075 21.2858 8.87508 20.2768 9.30053 19.2448C9.74104 18.2089 10.3209 17.0192 11.0401 15.6758C11.242 15.6628 11.4004 15.6709 11.5151 15.7L11.8593 15.7875C11.974 15.8166 12.0947 15.8344 12.2214 15.8408C12.3449 15.8285 12.5089 15.7762 12.7134 15.6841C12.8261 15.8903 12.9069 16.0459 12.9557 16.151C13.0164 16.2333 13.0697 16.3176 13.1154 16.4038C13.1611 16.4901 13.219 16.6026 13.2891 16.7414L13.6046 17.3658C13.6622 17.4294 13.6944 17.5289 13.7012 17.6645C13.7199 17.7773 13.7295 17.8827 13.73 17.9806C13.7306 18.0786 13.7355 18.1558 13.7449 18.2122C13.7693 18.2647 13.822 18.2511 13.9029 18.1713C13.8957 18.5066 13.8462 18.8234 13.7544 19.1218C13.6595 19.4013 13.6492 19.7179 13.7235 20.0713C13.4293 20.8536 13.0931 21.6663 12.7148 22.5096C12.3366 23.3528 11.9645 24.2337 11.5987 25.1522C11.2298 26.0519 10.8822 26.9853 10.5559 27.9524C10.2415 28.8968 10.0042 29.8801 9.84404 30.9023C9.75372 30.9257 9.69066 30.9714 9.65485 31.0395C9.61905 31.1076 9.5848 31.1851 9.55211 31.2721C9.53448 31.3551 9.50932 31.44 9.47664 31.527C9.459 31.61 9.40503 31.6632 9.31471 31.6866C9.38439 32.2962 9.29886 32.9166 9.05813 33.5477C8.82932 34.1561 8.58052 34.6913 8.31172 35.1531C8.36677 35.2958 8.40209 35.4142 8.41769 35.5082C8.43328 35.6022 8.44134 35.6982 8.44188 35.7962C8.44242 35.8941 8.44452 36.0014 8.44818 36.1182C8.46377 36.2122 8.49156 36.3325 8.53156 36.4791C8.47093 36.9655 8.35266 37.3884 8.17675 37.7478C8.0159 38.1032 7.82 38.3893 7.58904 38.606C7.35808 38.8227 7.10401 38.9473 6.82681 38.9798C6.55274 39.0312 6.27812 38.9845 6.00297 38.84C5.88512 38.792 5.77765 38.712 5.68056 38.5998C5.58346 38.4876 5.4804 38.3868 5.37137 38.2973C5.27428 38.1852 5.17277 38.0938 5.06686 38.0231C4.97289 37.9297 4.86257 37.8798 4.7359 37.8734C4.73483 37.6775 4.70208 37.48 4.63767 37.2809C4.58832 37.078 4.52703 36.8977 4.4538 36.7401C4.38058 36.5825 4.3045 36.4551 4.22558 36.3578C4.14666 36.2606 4.07709 36.2197 4.01688 36.2353C3.87871 35.7807 3.71172 35.2943 3.51591 34.7762C3.33204 34.2354 3.1422 33.7059 2.9464 33.1877C2.76564 32.6657 2.6015 32.1491 2.45398 31.6381C2.30645 31.1271 2.20279 30.6439 2.143 30.1887C2.12063 29.9591 2.05026 29.7713 1.93187 29.6255C1.82542 29.4569 1.73688 29.2542 1.66623 29.0175C1.50365 28.5104 1.39064 27.9708 1.32719 27.3988C1.26375 26.8268 1.18837 26.2775 1.10105 25.7509C1.01685 25.2431 0.897874 24.7148 0.744109 24.1662C0.60228 23.5949 0.465128 23.0517 0.332653 22.5368C0.215232 22.018 0.12066 21.5423 0.0489369 21.1097C-0.0108513 20.6544 -0.0158552 20.2929 0.033925 20.025C0.107575 19.7117 0.222245 19.4565 0.377937 19.2593C0.53051 19.0432 0.672438 18.8104 0.803721 18.5606C1.00565 18.5476 1.19123 18.578 1.36048 18.6519C1.54165 18.7031 1.69896 18.7997 1.8324 18.9416C1.97777 19.0609 2.08707 19.1994 2.1603 19.357C2.24857 19.5106 2.29169 19.676 2.28965 19.8531C2.71276 20.0378 3.07775 20.3454 3.38463 20.776C3.63804 21.1002 3.85933 21.4698 4.04848 21.885C4.0156 21.705 3.98203 21.5198 3.94779 21.3293C3.88533 20.6191 3.84079 19.9661 3.81418 19.3704C3.78757 18.7746 3.74943 18.2039 3.69977 17.6581L3.71285 17.1686C3.70827 16.2561 3.78461 15.3798 3.94186 14.5397C4.09144 13.7162 4.36521 12.8159 4.76317 11.8388L4.89071 11.332L4.8093 10.8742L5.31788 10.1765L4.90152 9.80979C4.91893 9.73365 4.95837 9.62903 5.01983 9.49594L5.15812 9.19649L5.34866 8.66861C5.4178 8.51888 5.46979 8.36787 5.50462 8.21559C5.74636 7.76897 6.00373 7.21166 6.27673 6.54364C6.54204 5.89227 6.80351 5.24921 7.06114 4.61448L7.24782 4.38317C7.57714 3.97751 7.88546 3.57889 8.17279 3.1873C8.46011 2.79572 8.75717 2.34462 9.06396 1.83402C9.36409 1.60688 9.63066 1.43317 9.86369 1.31289C10.11 1.2022 10.3525 1.09984 10.5912 1.00579C10.8585 0.888065 11.1297 0.762024 11.4047 0.627665C11.6931 0.502905 12.0027 0.293684 12.3335 0C12.587 0.0275274 12.85 0.0729717 13.1225 0.136333C13.4159 0.192656 13.7074 0.291851 13.9967 0.433917C14.0197 0.960532 13.9219 1.42219 13.7032 1.8189C13.6592 1.87585 13.6113 1.94111 13.5595 2.0147C13.5078 2.08828 13.4476 2.12251 13.379 2.11739L13.1124 2.2911C13.0474 2.35508 12.9688 2.48689 12.8766 2.68652C12.8054 2.87912 12.7265 3.08836 12.6399 3.31423C12.5667 3.54969 12.4973 3.77684 12.4317 3.99568C12.3872 4.20747 12.3695 4.36104 12.3787 4.45638C11.9731 4.87355 11.5605 5.36335 11.1411 5.92578C10.7216 6.4882 10.3211 7.08646 9.93953 7.72055C9.57128 8.36425 9.23632 9.03193 8.93464 9.72362C8.62529 10.4319 8.38455 11.1454 8.21245 11.8639C8.05008 12.523 7.92126 13.1286 7.82598 13.6808C7.74402 14.2426 7.6869 14.7891 7.65462 15.3202L7.35192 16.0333Z" fill="#ED5858" fill-opacity="0.64"/>
</svg>
