<svg width="24" height="65" viewBox="0 0 24 65" fill="none" xmlns="http://www.w3.org/2000/svg">
<path d="M12.6033 26.7222L12.9469 29.4576L12.8165 30.3086C12.6997 31.0029 12.6479 31.8166 12.661 32.7497C12.697 33.6989 12.7918 34.6523 12.9454 35.61C13.105 36.5892 13.318 37.5175 13.5843 38.3948C13.7282 37.9644 13.873 37.5393 14.0186 37.1195C14.5727 35.4763 15.2144 33.7947 15.9438 32.0746C16.6989 30.3481 17.693 28.3654 18.9259 26.1264C19.2721 26.1047 19.5435 26.1181 19.7402 26.1667L20.3302 26.3124C20.5269 26.361 20.7338 26.3907 20.9509 26.4014C21.1627 26.3808 21.4439 26.2937 21.7945 26.1401C21.9876 26.4838 22.1261 26.7432 22.2098 26.9183C22.3139 27.0555 22.4052 27.196 22.4835 27.3397C22.5618 27.4835 22.6611 27.671 22.7813 27.9023L23.3221 28.9431C23.4209 29.049 23.4761 29.2149 23.4877 29.4408C23.5198 29.6289 23.5363 29.8045 23.5372 29.9677C23.5381 30.131 23.5466 30.2596 23.5627 30.3536C23.6045 30.4412 23.6948 30.4184 23.8336 30.2854C23.8213 30.8443 23.7364 31.3724 23.579 31.8696C23.4162 32.3356 23.3986 32.8631 23.5259 33.4522C23.0216 34.7559 22.4453 36.1105 21.7968 37.516C21.1484 38.9214 20.5106 40.3895 19.8836 41.9203C19.2512 43.4198 18.6553 44.9754 18.0959 46.5873C17.5569 48.1613 17.1501 49.8001 16.8755 51.5038C16.7207 51.5428 16.6126 51.619 16.5512 51.7325C16.4898 51.846 16.4311 51.9752 16.3751 52.1201C16.3448 52.2585 16.3017 52.4001 16.2457 52.5449C16.2154 52.6833 16.1229 52.772 15.9681 52.8109C16.0875 53.827 15.9409 54.861 15.5282 55.9128C15.136 56.9269 14.7095 57.8188 14.2487 58.5886C14.343 58.8263 14.4036 59.0236 14.4303 59.1803C14.457 59.3371 14.4709 59.497 14.4718 59.6603C14.4727 59.8235 14.4763 60.0024 14.4826 60.1969C14.5093 60.3537 14.557 60.5542 14.6255 60.7985C14.5216 61.6092 14.3188 62.314 14.0173 62.913C13.7415 63.5054 13.4057 63.9822 13.0098 64.3434C12.6139 64.7045 12.1783 64.9122 11.7031 64.9664C11.2333 65.0519 10.7625 64.9742 10.2908 64.7333C10.0888 64.6534 9.90455 64.52 9.7381 64.333C9.57165 64.146 9.39497 63.978 9.20806 63.8289C9.04162 63.642 8.86761 63.4896 8.68605 63.3718C8.52495 63.2162 8.33583 63.133 8.11869 63.1223C8.11685 62.7959 8.06071 62.4667 7.9503 62.1349C7.86569 61.7966 7.76062 61.4961 7.63509 61.2335C7.50956 60.9709 7.37915 60.7585 7.24385 60.5964C7.10856 60.4343 6.9893 60.3662 6.88608 60.3922C6.64921 59.6345 6.36294 58.8239 6.02727 57.9603C5.71207 57.0589 5.38663 56.1764 5.05096 55.3129C4.7411 54.4428 4.45972 53.5819 4.20681 52.7302C3.95391 51.8785 3.77621 51.0732 3.67372 50.3145C3.63537 49.9318 3.51473 49.6189 3.31178 49.3758C3.1293 49.0948 2.9775 48.757 2.85639 48.3625C2.57768 47.5173 2.38395 46.618 2.27518 45.6647C2.16642 44.7113 2.0372 43.7958 1.88752 42.9181C1.74318 42.0718 1.53921 41.1914 1.27562 40.277C1.03248 39.3248 0.797362 38.4195 0.570263 37.5613C0.368969 36.6966 0.206845 35.9038 0.0838918 35.1829C-0.0186022 34.4241 -0.0271804 33.8214 0.0581571 33.375C0.184414 32.8529 0.380992 32.4274 0.647891 32.0988C0.909445 31.7387 1.15275 31.3506 1.37781 30.9344C1.72397 30.9126 2.04212 30.9633 2.33225 31.0865C2.64284 31.1718 2.91251 31.3328 3.14126 31.5694C3.39047 31.7682 3.57784 31.999 3.70336 32.2616C3.8547 32.5177 3.92862 32.7933 3.92512 33.0884C4.65044 33.3963 5.27614 33.909 5.80222 34.6266C6.23665 35.1669 6.61599 35.7831 6.94025 36.475C6.88388 36.175 6.82634 35.8663 6.76763 35.5489C6.66056 34.3651 6.58422 33.2768 6.5386 32.2839C6.49298 31.2911 6.4276 30.3398 6.34247 29.4301L6.36488 28.6143C6.35703 27.0935 6.4879 25.633 6.75748 24.2328C7.01389 22.8603 7.48321 21.3598 8.16544 19.7314L8.38408 18.8867L8.24451 18.1237L9.11636 16.9608L8.4026 16.3497C8.43246 16.2228 8.50007 16.0484 8.60543 15.8266L8.84249 15.3275L9.16912 14.4477C9.28766 14.1981 9.37678 13.9465 9.43649 13.6926C9.85091 12.9483 10.2921 12.0194 10.7601 10.9061C11.2149 9.82045 11.6632 8.74869 12.1048 7.69079L12.4248 7.30529C12.9894 6.62918 13.5179 5.96481 14.0105 5.31217C14.5031 4.65953 15.0123 3.9077 15.5382 3.0567C16.0527 2.67814 16.5097 2.38862 16.9092 2.18815C17.3315 2.00367 17.7472 1.83306 18.1563 1.67631C18.6146 1.48011 19.0795 1.27004 19.551 1.04611C20.0453 0.838176 20.576 0.489473 21.1432 0C21.5778 0.045879 22.0286 0.121619 22.4957 0.227221C22.9988 0.321094 23.4983 0.486419 23.9944 0.723196C24.0338 1.60089 23.8661 2.37032 23.4912 3.0315C23.4157 3.12641 23.3336 3.23519 23.2449 3.35783C23.1563 3.48046 23.0531 3.53751 22.9354 3.52898L22.4785 3.81849C22.367 3.92513 22.2322 4.14482 22.0741 4.47754C21.9521 4.79854 21.8169 5.14726 21.6685 5.52371C21.5429 5.91616 21.4239 6.29474 21.3116 6.65946C21.2352 7.01245 21.2049 7.2684 21.2207 7.4273C20.5253 8.12259 19.8181 8.93892 19.099 9.8763C18.3799 10.8137 17.6933 11.8108 17.0392 12.8676C16.4079 13.9404 15.8337 15.0532 15.3165 16.206C14.7862 17.3866 14.3735 18.5756 14.0785 19.7732C13.8001 20.8717 13.5793 21.8811 13.416 22.8014C13.2755 23.7377 13.1775 24.6485 13.1222 25.5336L12.6033 26.7222Z" fill="#ED5858" fill-opacity="0.64"/>
</svg>
