<svg width="85" height="28" viewBox="0 0 85 28" fill="none" xmlns="http://www.w3.org/2000/svg">
<path d="M83.7552 12.0234C83.4036 11.6328 83.2278 11.2031 83.2278 10.7344C82.6028 10.6953 82.0169 10.5 81.47 10.1484C80.9232 9.79688 80.6693 9.50391 80.7083 9.26953C80.0052 8.99609 79.2435 8.66406 78.4232 8.27344C77.6419 7.84375 76.8411 7.43359 76.0208 7.04297C75.2005 6.65234 74.3802 6.30078 73.5599 5.98828C72.7786 5.63672 72.0364 5.40234 71.3333 5.28516C70.9818 5.20703 70.6693 5.07031 70.3958 4.875C70.1614 4.64062 69.8685 4.44531 69.5169 4.28906C68.7357 3.97656 67.8763 3.74219 66.9388 3.58594C66.0403 3.42969 65.2005 3.25391 64.4192 3.05859C63.638 2.86328 62.7982 2.60938 61.8997 2.29688C61.0403 1.98438 60.2005 1.69141 59.3802 1.41797C58.5989 1.14453 57.8567 0.929688 57.1536 0.773438C56.4896 0.617188 55.9427 0.578125 55.513 0.65625C55.0052 0.8125 54.5755 1.04688 54.2239 1.35938C53.9114 1.63281 53.5599 1.88672 53.1692 2.12109C53.0911 2.90234 53.2474 3.58594 53.638 4.17188C54.0677 4.75781 54.556 5.07031 55.1028 5.10938C55.4935 6.35938 56.2747 7.375 57.4466 8.15625C57.6766 8.30962 57.9112 8.45846 58.1503 8.6028C57.2493 8.75733 56.134 8.92492 54.8045 9.10559C52.192 9.4606 48.5239 9.87999 43.8004 10.3638C42.2624 10.4967 40.3238 10.6345 37.9846 10.7772L30.368 11.2417C27.6295 11.4087 24.8065 11.6005 21.8992 11.8169C18.9895 11.9944 16.1975 12.2234 13.5231 12.5039C10.8487 12.7844 8.40617 13.1095 6.19537 13.4791C3.92752 13.8523 2.06498 14.2985 0.60776 14.8179C0.629162 15.1688 0.622037 15.5214 0.586386 15.8758C0.550735 16.2302 0.655339 16.5369 0.900197 16.7959C1.14743 17.0939 1.59079 17.3212 2.23026 17.4779C2.81268 17.6381 3.76238 17.7171 5.07935 17.7151C5.75925 18.5346 6.93717 19.0693 8.61311 19.3193C10.232 19.5728 12.0434 19.6971 14.0474 19.6923C15.9967 19.73 17.9995 19.7057 20.0558 19.6194C22.0551 19.5366 23.8023 19.5474 25.2976 19.6519C29.4577 19.3199 33.9328 18.9883 38.7229 18.657L52.5012 17.8167C53.5709 17.5166 54.8154 17.2646 56.2346 17.0606C56.8476 16.9895 57.4767 16.921 58.122 16.8552C56.6799 17.4112 55.2047 18.0662 53.6966 18.8203C52.056 19.6016 50.1614 20.6758 48.013 22.043C47.9739 22.4336 47.9935 22.7461 48.0716 22.9805L48.1888 23.6836C48.2278 23.8789 48.2474 24.1133 48.2474 24.3867C48.2083 24.6211 48.1107 24.9336 47.9544 25.3242C48.2278 25.5586 48.4427 25.7344 48.5989 25.8516C48.7552 25.9688 48.9114 26.0664 49.0677 26.1445L49.595 26.4961C49.7903 26.6523 50.1028 26.8672 50.5325 27.1406C50.6497 27.2578 50.7864 27.3359 50.9427 27.375C51.138 27.375 51.3138 27.3945 51.47 27.4336C51.6263 27.4336 51.7435 27.4531 51.8216 27.4922C51.8997 27.5312 51.8802 27.6094 51.763 27.7266C52.2708 27.7656 52.7591 27.707 53.2278 27.5508C53.6966 27.3555 54.2044 27.3359 54.7513 27.4922C56.0013 26.9844 57.2903 26.3789 58.6185 25.6758C59.9857 24.9727 61.3919 24.2891 62.8372 23.625C64.2825 22.9219 65.7669 22.2773 67.2903 21.6914C68.8138 21.1055 70.3763 20.6758 71.9778 20.4023C72.056 20.0508 72.2513 19.875 72.5638 19.875C72.9153 19.875 73.1497 19.7188 73.2669 19.4062C74.2044 19.6016 75.1614 19.4844 76.138 19.0547C77.1536 18.5859 78.013 18.1172 78.7161 17.6484C79.1458 17.8438 79.4778 17.9219 79.7122 17.8828C79.9857 17.8438 80.3568 17.9219 80.8255 18.1172C81.5677 18 82.2122 17.7852 82.7591 17.4727C83.345 17.1602 83.8138 16.7891 84.1653 16.3594C84.5169 15.9297 84.7318 15.4414 84.8099 14.8945C84.9271 14.3477 84.8685 13.8008 84.6341 13.2539C84.4388 12.7852 84.1458 12.375 83.7552 12.0234Z" fill="#ED5858" fill-opacity="0.64"/>
</svg>
