<svg width="68" height="21" viewBox="0 0 68 21" fill="none" xmlns="http://www.w3.org/2000/svg">
<path d="M67.0994 8.83192C66.815 8.52945 66.6728 8.19674 66.6728 7.83379C66.1672 7.80354 65.6932 7.65231 65.2508 7.38009C64.8083 7.10788 64.6029 6.88103 64.6345 6.69955C64.0657 6.48783 63.4495 6.23074 62.7859 5.92827C62.1539 5.59556 61.5061 5.27798 60.8425 4.97551C60.1789 4.67305 59.5153 4.40084 58.8516 4.15886C58.2196 3.88665 57.6192 3.70517 57.0504 3.61443C56.766 3.55394 56.5132 3.44808 56.292 3.29685C56.1024 3.11537 55.8654 2.96414 55.581 2.84315C54.949 2.60118 54.2538 2.4197 53.4953 2.29872C52.7685 2.17773 52.0891 2.04162 51.4571 1.89039C50.8251 1.73916 50.1457 1.54256 49.4189 1.30059C48.7236 1.05862 48.0442 0.831773 47.3806 0.620049C46.7486 0.408325 46.1482 0.24197 45.5794 0.120985C45.0422 0 44.5998 -0.0302463 44.2522 0.0302463C43.8414 0.151231 43.4938 0.332709 43.2093 0.57468C42.9565 0.786404 42.6721 0.983004 42.3561 1.16448C42.2929 1.76941 42.4193 2.29872 42.7353 2.75241C43.0829 3.20611 43.478 3.44808 43.9204 3.47832C44.2364 4.4462 44.8684 5.23261 45.8164 5.83753C46.0025 5.95629 46.1923 6.07154 46.3857 6.1833C45.6568 6.30295 44.7545 6.43272 43.679 6.57261C41.5655 6.8475 38.5982 7.17224 34.777 7.54681C33.5327 7.64975 31.9645 7.75645 30.0721 7.86692L23.9105 8.22661C21.6951 8.35594 19.4114 8.5044 17.0595 8.67201C14.7056 8.80942 12.4469 8.98672 10.2834 9.20393C8.11994 9.42113 6.14395 9.67284 4.35547 9.95906C2.52084 10.248 1.27363 10.3474 0.094772 10.7495C0.112086 11.0212 0.123613 10.4751 0.094772 10.7495C0.0659312 11.0239 -0.103312 10.9191 0.094772 11.1197C0.29478 11.3504 0.653442 11.5265 1.17076 11.6478C1.64192 11.7718 2.4102 11.833 3.4756 11.8314C4.02562 12.466 4.97853 12.88 6.33432 13.0736C7.64396 13.2699 9.10937 13.3661 10.7305 13.3624C12.3075 13.3916 13.9277 13.3727 15.5912 13.3059C17.2085 13.2418 18.622 13.2502 19.8316 13.3311C23.1971 13.074 26.8173 12.8172 30.6923 12.5607L41.8386 11.9101C42.704 11.6777 43.7108 11.4826 44.8589 11.3247C45.3548 11.2696 45.8637 11.2166 46.3857 11.1656C45.2191 11.5961 44.0257 12.1033 42.8057 12.6872C41.4785 13.2921 39.9229 15.5315 38.1849 16.5901C38.1533 16.8926 38.1691 17.1345 38.2323 17.316L38.3271 17.8604C38.3587 18.0117 38.3745 18.1931 38.3745 18.4049C38.3429 18.5863 38.2639 18.8283 38.1375 19.1308C38.3587 19.3123 38.5325 19.4484 38.6589 19.5391C38.7853 19.6298 38.9117 19.7055 39.0381 19.766L39.4647 20.0382C39.6227 20.1592 39.8755 20.3255 40.2231 20.5372C40.3179 20.628 40.4285 20.6885 40.5549 20.7187C40.7129 20.7187 40.8551 20.7338 40.9815 20.7641C41.1079 20.7641 41.2027 20.7792 41.2659 20.8094C41.3291 20.8397 41.3133 20.9002 41.2185 20.9909C41.6293 21.0212 42.0243 20.9758 42.4035 20.8548C42.7827 20.7036 43.1935 20.6885 43.636 20.8094C44.6472 20.4162 45.69 19.9474 46.7644 19.403C47.8704 18.8586 49.0081 18.3293 50.1773 17.8151C51.3465 17.2706 52.5473 16.7716 53.7797 16.3179C55.0122 15.8642 56.2762 15.5315 57.5718 15.3197C57.635 15.0475 57.793 14.9114 58.0458 14.9114C58.3302 14.9114 58.5198 14.7904 58.6146 14.5485C59.373 14.6997 60.1473 14.609 60.9373 14.2762C61.7589 13.9133 62.4541 13.5503 63.0229 13.1874C63.3705 13.3386 63.6391 13.3991 63.8287 13.3689C64.0499 13.3386 64.3501 13.3991 64.7293 13.5503C65.3298 13.4596 65.8512 13.2932 66.2936 13.0513C66.7676 12.8093 67.1468 12.522 67.4312 12.1893C67.7156 11.8565 67.8894 11.4785 67.9526 11.055C68.0474 10.6316 68 10.2081 67.8104 9.78468C67.6524 9.42172 67.4154 9.10413 67.0994 8.83192Z" fill="#ED5858" fill-opacity="0.64"/>
</svg>
