<svg width="98" height="98" viewBox="0 0 98 98" fill="none" xmlns="http://www.w3.org/2000/svg">
<circle cx="49" cy="49" r="47.5" fill="white" stroke="#4E88A2" stroke-width="3"/>
<path d="M0 6.08949C0 6.08949 8.08061 15.8558 35.0245 24.9302C38.2728 26.0242 250.002 24.9302 250.002 24.9302C250.002 24.9302 265.18 17.0199 275.19 4.39945C277.346 1.68165 312.697 1.48668 312.503 0.407326C312.189 -1.33978 243.058 3.09889 243.058 3.09889C243.058 3.09889 190.823 4.89324 174.519 5.79041C158.214 6.68759 57.9716 9.97726 0 6.08949Z" transform="translate(18 64.8762) scale(0.201598)" fill="#4E88A2" stroke="#4E88A2"/>
<path d="M5.54115 0C36.6422 58.788 125.403 194.375 136.474 214.448L5.54115 0ZM136.208 214.26C95.0242 204.073 76.9915 199.209 42.6433 182.209C45.8691 137.357 26.5848 52.2362 5.53856 0.00745103L136.208 214.26ZM5.51045 0.180576L12.0436 219.498L7.66559 219.648C3.64386 146.724 0.459786 73.0944 0 0.038807L5.51045 0.180576Z" transform="translate(53.4749 21.708) scale(0.201598)" fill="#4E88A2" stroke="#4E88A2"/>
<path d="M0 0.325975L4.93965 0L20.0953 239.572L14.5171 239.647L0 0.325975Z" transform="translate(36.5981 18.0779) scale(0.201598)" fill="#4E88A2" stroke="#4E88A2"/>
<path d="M0.0037258 226.492C31.1608 116.54 79.8145 0 79.8145 0L93.6529 228.455C93.6529 228.455 -0.6825 228.914 0.0037258 226.492Z" transform="translate(20.4929 18.1138) scale(0.201598)" fill="#4E88A2" stroke="#4E88A2"/>
<path d="M0 0C0 0 20.2702 170.642 17.3393 170.286L82.3691 178.062L0 0Z" transform="translate(38.282 29.001) scale(0.201598)" fill="#4E88A2" stroke="#4E88A2"/>
<path d="M0 0C0 0 11.7992 152.389 12.9941 152.629L76.7495 165.419L0 0Z" transform="translate(54.9175 31.9023) scale(0.201598)" fill="#4E88A2" stroke="#4E88A2"/>
<path d="M0.766603 0.00307103C21.2215 1.60418 29.7226 1.07301 44.2498 0.577506C46.0116 0.517397 45.4061 5.68885 45.4061 5.68885L1.46617 6.12378C1.46617 6.12378 -1.29995 -0.158691 0.766603 0.00307103Z" transform="translate(29.3872 65.2188) scale(0.201598)" fill="#4E88A2" stroke="#4E88A2"/>
<path d="M0 0.625216C0.398157 -0.0266556 4.72703 -0.199981 5.09065 0.253809L0 0.625216Z" transform="translate(36.5791 18) scale(0.201598)" fill="#4E88A2"/>
<path d="M0 0.625216C0.398157 -0.0266556 4.72703 -0.199981 5.09065 0.253809" transform="translate(36.5791 18) scale(0.201598)" stroke="#4E88A2"/>
<path d="M0 0.439566C1.22966 -0.269423 5.50353 -0.0296727 5.70775 0.516374L0 0.439566Z" transform="translate(53.4453 21.6138) scale(0.201598)" fill="#4E88A2"/>
<path d="M0 0.439566C1.22966 -0.269423 5.50353 -0.0296727 5.70775 0.516374" transform="translate(53.4453 21.6138) scale(0.201598)" stroke="#4E88A2"/>
<path opacity="0.91" d="M0.5 2.92146V0.5H6.40875V2.92146H0.5Z" transform="translate(30.9072 65.7852) scale(0.201598)" fill="#4E88A2" stroke="#4E88A2"/>
<path opacity="0.91" d="M0.5 2.92146V0.5H6.40875V2.92146H0.5Z" transform="translate(33.3264 65.8035) scale(0.201598)" fill="#4E88A2" stroke="#4E88A2"/>
<path opacity="0.91" d="M0.5 2.92146V0.5H6.40875V2.92146H0.5Z" transform="translate(35.9287 65.7671) scale(0.201598)" fill="#4E88A2" stroke="#4E88A2"/>
</svg>
