<svg width="399" height="292" viewBox="0 0 399 292" fill="none" xmlns="http://www.w3.org/2000/svg">
<g clip-path="url(#clip0)">
<g clip-path="url(#clip1)">
<path d="M180.551 107.715C189.535 110.447 195.209 100.307 195.787 92.8465C196.155 88.6434 193.266 84.4929 188.8 84.5454C185.437 84.5454 181.024 87.6977 179.08 91.2703C174.404 96.5242 172.986 105.403 180.551 107.715Z" fill="#BA7B48"/>
<path d="M167.889 101.778C167.836 109.449 166.102 119.116 176.715 119.904C188.589 120.797 197.835 113.231 203.247 103.249C207.45 95.5784 210.392 81.5506 202.301 75.1409C193.317 67.8906 183.072 79.0288 176.82 84.4928C175.717 85.5435 177.24 87.4874 178.501 86.5943C183.44 83.2318 192.949 73.0394 198.991 78.5559C201.46 80.8676 201.145 86.5418 201.04 89.5364C200.882 93.3718 199.622 96.7868 197.94 100.254C194.42 107.767 189.009 112.548 180.971 114.597C177.451 115.49 172.985 115.701 171.461 111.76C170.358 108.766 169.885 104.825 169.465 101.725C169.307 100.727 167.889 100.675 167.889 101.778Z" fill="#BA7B48"/>
<path d="M160.271 130.674C167.206 138.607 176.715 139.237 186.12 135.875C196.102 132.25 203.562 123.528 209.657 115.28C219.166 102.461 226.836 83.0739 219.744 67.575C216.224 59.7468 207.082 55.9115 198.886 57.1199C193.895 57.9079 189.377 59.379 184.859 61.5331C180.235 63.6872 176.978 66.5242 173.3 69.8867C171.777 71.2527 173.721 73.5644 175.507 72.6187C185.909 66.7869 208.343 54.4929 214.437 72.3035C216.434 78.0827 214.543 85.0703 212.809 90.6394C210.865 96.5763 207.87 102.25 204.403 107.452C199.937 114.177 193.633 119.01 186.592 122.74C180.498 125.945 174.088 128.257 167.469 125.262C159.798 121.795 158.222 111.76 159.115 104.247C160.166 95.578 164.054 85.4381 169.518 78.503C170.516 77.3472 168.73 75.6134 167.836 76.8743C164.527 80.9723 161.164 84.5449 158.642 89.3259C156.121 94.0019 154.492 99.1506 153.599 104.404C152.811 109.291 152.075 114.597 153.284 119.43C154.334 123.896 157.381 127.364 160.271 130.674Z" fill="#BA7B48"/>
<path d="M142.513 135.981C147.452 142.811 155.7 147.907 163.896 149.483C185.332 153.634 206.452 137.662 218.746 121.743C221.425 118.223 223.737 114.545 225.943 110.71C228.518 106.244 231.565 102.198 233.824 97.5225C236.083 93.0042 237.239 88.013 237.764 83.0219C238.395 77.1376 236.346 71.7786 234.297 66.4197C233.982 65.6842 233.456 65.3689 232.931 65.3689C232.826 65.2639 232.773 65.1588 232.668 65.0537C226.679 56.5425 218.063 48.5566 207.818 45.7721C197.1 42.8299 186.067 46.5076 176.716 51.814C156.436 63.3199 141.358 84.1777 137.47 107.137C135.841 117.172 136.419 127.522 142.513 135.981ZM167.889 68.6263C176.61 60.4303 187.591 53.7579 199.622 52.7597C211.968 51.7089 221.583 58.8542 229.253 67.7857C229.779 68.3636 230.409 68.5212 231.04 68.3636C230.252 74.4581 228.57 80.5 227.52 86.542C226.994 89.6943 226.154 92.794 225.471 95.8938C224.788 99.0461 224.262 102.986 222.791 105.824C217.275 116.384 209.919 126.576 200.463 134.037C185.017 146.121 154.912 153.423 147.294 129.098C140.359 106.927 151.708 83.7574 167.889 68.6263Z" fill="#BA7B48"/>
<path d="M236.819 113.179C234.14 118.012 230.935 122.688 227.52 126.944C220.69 135.35 211.969 141.602 203.563 148.38C202.512 149.168 203.668 151.007 204.876 150.534C215.699 146.12 225.681 139.343 234.297 131.462C238.553 127.522 242.125 122.951 245.015 117.802C247.327 113.704 247.589 108.818 248.535 104.247C252.213 87.0672 249.376 68.994 240.392 53.8104C236.189 46.7177 230.62 39.9402 223.159 36.3151C214.175 31.9544 202.985 32.2696 193.37 33.8983C182.915 35.5795 172.25 41.3587 163.739 47.4532C155.175 53.6527 148.398 61.3759 143.67 70.8328C143.459 71.2006 143.302 71.5684 143.092 71.9361C142.566 73.0394 144.09 73.8801 144.72 72.8818C149.974 64.7909 157.224 57.9609 165.263 52.602C173.931 46.8227 182.968 44.1433 193.055 42.2519C209.027 39.2047 227.047 43.2501 235.978 57.6982C243.649 70.0973 246.276 88.5908 242.651 102.776C241.652 106.822 238.815 109.659 236.819 113.179Z" fill="#BA7B48"/>
<path d="M136.419 83.1792C134.791 85.3859 132.742 87.1196 131.165 89.4313C129.432 91.9006 128.118 94.7902 126.857 97.5222C124.336 102.776 123.022 108.345 121.656 114.019C120.395 119.588 119.765 125.735 121.709 131.199C122.602 133.564 124.073 135.613 125.596 137.557C128.013 140.551 129.274 143.861 131.008 147.276C136.892 158.887 147.662 159.78 159.168 161.777C164.684 162.775 169.991 164.246 175.612 164.456C181.286 164.719 187.118 160.884 191.952 158.309C194.158 157.153 192.582 153.581 190.218 154.369C181.391 157.311 171.462 156.733 162.478 154.684C152.601 152.478 143.302 152.688 138.678 142.075C137.68 139.763 136.629 137.451 135.526 135.14C134.58 133.248 132.479 131.567 131.27 129.833C128.486 125.84 128.381 119.431 128.276 114.807C128.118 109.343 130.062 103.774 132.111 98.7306C133.109 96.3664 134.265 94.1073 135.421 91.8481C136.629 89.6415 137.312 86.962 138.573 84.8079C139.361 83.547 137.365 81.9709 136.419 83.1792Z" fill="#BA7B48"/>
<path d="M182.495 178.01C194.789 174.49 206.084 168.606 216.487 161.198C226.469 154.158 236.609 146.172 244.805 137.083C252.738 128.151 259.883 118.484 264.244 107.293C268.552 96.3129 268.814 83.5986 266.871 72.0927C262.037 42.8288 236.346 15.824 205.664 16.1392C189.377 16.3494 174.562 23.6522 162.163 33.582C149.659 43.6168 138.521 55.3855 127.646 67.2592C125.964 68.9929 128.486 71.3046 130.272 69.781C138.941 62.3205 147.295 54.4923 156.068 47.1894C164.947 39.8341 176.243 33.6871 186.961 29.6416C197.783 25.5961 209.026 24.5979 220.164 28.0654C230.462 31.2703 239.393 38.6257 245.908 47.1369C252.79 56.121 257.781 66.5236 259.042 77.8719C260.513 90.3235 256.521 101.672 251.582 112.915C241.337 136.4 220.059 154.683 197.363 165.611C176.033 175.909 149.081 177.17 130.115 161.356C121.131 153.843 115.247 143.492 114.301 131.671C113.355 118.064 120.658 105.875 120.763 92.5827C120.763 89.5355 116.98 89.0626 115.404 91.2692C111.622 96.6282 109.94 102.723 108.259 108.975C106.42 115.91 105.264 123.002 105.107 130.148C104.844 142.652 108.679 154.21 117.033 163.457C132.794 181.057 161.007 184.21 182.495 178.01Z" fill="#BA7B48"/>
<path d="M272.23 51.026C266.135 36.7356 259.463 22.1299 247.379 11.7798C242.756 7.73433 236.819 5.3701 230.988 3.68887C224.473 1.79748 217.013 0.168792 210.235 0.0111761C203.51 -0.146439 196.418 1.37718 190.166 3.68887C183.441 6.21072 178.135 11.3069 171.988 14.7219C158.906 22.0773 145.456 29.17 137.996 42.725C137.523 43.513 138.731 44.5113 139.362 43.7232C147.978 32.2173 159.904 25.5974 172.828 19.9758C184.019 15.1423 195.472 9.88841 207.818 8.99526C214.438 8.52241 220.585 7.47164 227.152 8.73256C232.984 9.83587 238.816 11.9899 243.492 15.8253C255.05 25.1771 260.882 40.3607 268.605 52.6022C269.708 54.441 273.175 53.1801 272.23 51.026Z" fill="#BA7B48"/>
<path d="M162.215 189.57C168.993 190.306 175.35 192.67 182.18 192.827C187.854 192.932 192.582 191.199 197.416 188.257C202.144 185.419 206.452 181.899 211.759 180.008C217.275 178.012 222.108 174.702 226.732 171.076C231.303 167.504 235.611 163.458 240.339 160.043C245.33 156.418 250.111 152.951 254.209 148.222C258.254 143.546 261.039 137.82 263.666 132.251C266.345 126.734 268.815 120.377 269.97 114.282C270.075 113.337 268.604 112.601 268.132 113.599C263.456 125 258.149 134.667 248.745 142.968C244.279 146.804 239.078 149.483 234.087 152.478C229.516 155.21 225.523 158.782 221.531 162.092C217.275 165.665 212.809 168.712 207.871 171.182C203.352 173.441 199.78 177.223 195.735 180.218C190.849 183.843 186.488 185.787 180.393 186.313C174.299 186.838 168.205 187.521 162.163 187.101C160.482 186.996 160.587 189.465 162.215 189.57Z" fill="#BA7B48"/>
</g>
</g>
<path d="M8.15337 237.7C6.07142 237.7 4.34396 238.105 2.971 238.916C1.59804 239.715 0.607704 240.728 0 241.954L0.979079 234.864H34.5885L35.5845 241.954C34.9655 240.728 33.9752 239.715 32.6135 238.916C31.2405 238.105 29.5131 237.7 27.4311 237.7H20.3412V277.048C20.3412 278.939 20.5775 280.379 21.0502 281.37C21.5229 282.371 22.0405 283.035 22.6032 283.362C23.1772 283.688 23.4641 283.784 23.4641 283.649H12.1878C12.1878 283.784 12.4692 283.688 13.0319 283.362C13.6058 283.035 14.1179 282.388 14.568 281.42C15.0182 280.441 15.2433 278.984 15.2433 277.048V237.7H8.15337ZM51.8912 284.493C49.3366 284.493 47.1365 283.868 45.2909 282.619C43.4565 281.37 42.0554 279.738 41.0876 277.724C40.1085 275.72 39.6189 273.582 39.6189 271.309C39.6189 268.383 40.1985 265.857 41.3577 263.73C42.5168 261.603 44.0192 259.994 45.8648 258.902C47.7104 257.81 49.6236 257.265 51.6042 257.265C54.4402 257.265 56.8879 258.294 58.9473 260.354C61.0068 262.413 62.1265 265.26 62.3066 268.895H43.8729C43.8729 271.168 44.3005 273.166 45.1558 274.888C46.0111 276.609 47.159 277.932 48.5995 278.855C50.04 279.777 51.6099 280.239 53.3092 280.239C57.7544 280.239 60.7536 278.821 62.3066 275.985C61.8902 278.539 60.7367 280.599 58.846 282.163C56.9554 283.716 54.6371 284.493 51.8912 284.493ZM51.1147 259.611C49.2691 259.611 47.6823 260.264 46.3543 261.569C45.0377 262.863 44.2386 264.551 43.9573 266.633H56.8541C56.8541 264.461 56.2746 262.745 55.1154 261.485C53.9563 260.236 52.6227 259.611 51.1147 259.611ZM89.3326 284.493C87.8133 284.448 86.536 284.048 85.5006 283.294C84.454 282.54 83.8632 281.662 83.7282 280.661C82.8729 281.899 81.7475 282.844 80.352 283.497C78.9566 284.161 77.578 284.493 76.2163 284.493C74.033 284.493 72.2099 283.868 70.7469 282.619C69.2839 281.37 68.5524 279.727 68.5524 277.69C68.5524 272.446 73.4703 269.824 83.3061 269.824V269.047C83.3061 266.448 82.9235 264.529 82.1583 263.291C81.1229 261.547 79.4236 260.674 77.0603 260.674C75.2147 260.674 73.6898 261.22 72.4856 262.312C71.2815 263.392 70.6794 264.81 70.6794 266.566C70.398 266.093 70.173 265.665 70.0042 265.283C69.8354 264.9 69.751 264.383 69.751 263.73C69.751 262.019 70.5556 260.517 72.1649 259.223C73.7742 257.917 75.8786 257.265 78.4783 257.265C82.1695 257.265 84.7916 258.497 86.3447 260.961C86.8623 261.715 87.2393 262.661 87.4757 263.797C87.712 264.934 87.8302 266.419 87.8302 268.254V276.694C87.8302 278.157 88.2466 279.293 89.0793 280.104C89.9009 280.903 91.0713 281.302 92.5905 281.302H93.5021L89.3326 284.493ZM83.3061 271.951C79.5249 271.951 76.9703 272.423 75.6423 273.368C74.3144 274.314 73.6504 275.591 73.6504 277.2C73.6504 278.517 74.0049 279.552 74.7139 280.306C75.4229 281.071 76.3682 281.454 77.5498 281.454C78.4501 281.454 79.3054 281.24 80.1157 280.813C80.9147 280.385 81.5956 279.794 82.1583 279.04C82.9235 278.05 83.3061 276.699 83.3061 274.989V271.951ZM99.174 240.047C99.174 238.055 98.8589 236.693 98.2287 235.962C97.5872 235.23 96.867 234.864 96.0679 234.864H95.629L103.715 231.185V269.756L110.805 263.73C111.851 262.83 112.729 261.952 113.438 261.096C114.147 260.252 114.502 259.639 114.502 259.257C114.502 258.874 114.383 258.581 114.147 258.379C113.911 258.165 113.674 258.019 113.438 257.94C113.202 257.872 113.033 257.839 112.932 257.839H123.145C122.998 257.884 122.599 258.097 121.946 258.48C121.282 258.851 120.264 259.538 118.891 260.539C117.518 261.53 115.863 262.83 113.928 264.439L108.678 268.76L117.118 277.47C118.964 279.361 120.444 280.678 121.558 281.42C122.661 282.152 123.471 282.518 123.989 282.518H124.276C123.567 282.99 122.717 283.367 121.727 283.649C120.736 283.93 119.887 284.071 119.178 284.071C118.277 284.071 117.388 283.727 116.51 283.041C115.644 282.354 114.547 281.302 113.219 279.884L112.155 278.821L103.715 269.959V276.559C103.715 278.641 103.94 280.199 104.39 281.235C104.84 282.27 105.335 282.968 105.876 283.328C106.427 283.677 106.703 283.784 106.703 283.649H96.49C96.49 283.784 96.7375 283.677 97.2327 283.328C97.7279 282.968 98.178 282.259 98.5832 281.201C98.977 280.132 99.174 278.584 99.174 276.559V240.047ZM222.183 237.7C220.113 237.7 218.391 238.105 217.018 238.916C215.645 239.715 214.649 240.728 214.03 241.954L215.026 234.864H248.635L249.631 241.954C249.013 240.728 248.017 239.715 246.644 238.916C245.282 238.105 243.56 237.7 241.478 237.7H234.388V277.048C234.388 278.939 234.625 280.379 235.097 281.37C235.57 282.371 236.088 283.035 236.65 283.362C237.224 283.688 237.511 283.784 237.511 283.649H226.235C226.235 283.784 226.516 283.688 227.079 283.362C227.653 283.035 228.159 282.388 228.598 281.42C229.048 280.441 229.273 278.984 229.273 277.048V237.7H222.183ZM256.502 265.857C256.502 263.865 256.187 262.503 255.557 261.772C254.915 261.04 254.189 260.674 253.379 260.674L261.043 257.265V276.559C261.043 278.641 261.257 280.199 261.684 281.235C262.112 282.27 262.585 282.968 263.102 283.328C263.62 283.677 263.879 283.784 263.879 283.649H253.666C253.666 283.784 253.925 283.677 254.442 283.328C254.971 282.968 255.444 282.27 255.86 281.235C256.288 280.199 256.502 278.641 256.502 276.559V265.857ZM258.696 248.689C257.661 248.689 256.845 248.346 256.249 247.66C255.663 246.973 255.371 246.186 255.371 245.297C255.371 244.396 255.663 243.603 256.249 242.916C256.845 242.23 257.661 241.887 258.696 241.887C259.743 241.887 260.559 242.23 261.144 242.916C261.741 243.603 262.039 244.396 262.039 245.297C262.039 246.186 261.741 246.973 261.144 247.66C260.559 248.346 259.743 248.689 258.696 248.689ZM276.928 257.265V262.092C278.109 260.629 279.431 259.459 280.894 258.581C282.357 257.704 283.894 257.265 285.503 257.265C287.247 257.265 288.795 257.681 290.145 258.514C291.496 259.335 292.475 260.528 293.082 262.092C294.365 260.483 295.823 259.279 297.454 258.48C299.086 257.67 300.774 257.265 302.519 257.265C305.073 257.265 307.116 258.081 308.646 259.712C310.188 261.344 310.959 263.696 310.959 266.768V276.626C310.959 279.226 311.291 281.021 311.955 282.011C312.608 283.001 313.198 283.547 313.727 283.649H303.65C304.224 283.547 304.826 283.001 305.456 282.011C306.097 281.021 306.418 279.203 306.418 276.559V268.473C306.418 266.864 306.204 265.587 305.777 264.641C305.349 263.696 304.781 262.92 304.072 262.312C302.991 261.412 301.691 260.961 300.172 260.961C298.518 260.961 297.066 261.518 295.817 262.633C294.568 263.735 293.943 265.283 293.943 267.275V276.559C293.943 279.203 294.258 281.021 294.889 282.011C295.53 283.001 296.138 283.547 296.712 283.649H286.634C287.208 283.547 287.81 283.001 288.44 282.011C289.082 281.021 289.402 279.203 289.402 276.559V268.473C289.402 266.864 289.189 265.587 288.761 264.641C288.333 263.696 287.765 262.92 287.056 262.312C285.976 261.412 284.676 260.961 283.156 260.961C281.457 260.961 279.994 261.518 278.767 262.633C277.541 263.735 276.928 265.283 276.928 267.275V276.559C276.928 279.248 277.259 281.077 277.923 282.045C278.576 283.013 279.19 283.547 279.763 283.649H269.686C270.26 283.547 270.85 283.001 271.458 282.011C272.077 281.021 272.387 279.203 272.387 276.559V265.857C272.387 263.865 272.066 262.503 271.424 261.772C270.794 261.04 270.074 260.674 269.264 260.674L276.928 257.265ZM322.303 240.047C322.303 238.055 321.982 236.693 321.341 235.962C320.699 235.23 319.979 234.864 319.18 234.864H318.758L326.844 231.185V261.873C327.406 260.928 328.43 259.926 329.916 258.868C331.413 257.799 333.365 257.265 335.774 257.265C337.855 257.265 339.724 257.788 341.378 258.835C343.032 259.87 344.332 261.31 345.277 263.156C346.223 265.001 346.695 267.055 346.695 269.317C346.695 272.209 346.105 274.764 344.923 276.981C343.741 279.198 342.205 280.97 340.314 282.298C338.187 283.761 335.774 284.493 333.073 284.493C331.182 284.493 329.173 284.093 327.046 283.294C326.056 282.911 325.302 282.72 324.784 282.72C323.974 282.72 323.147 283.193 322.303 284.138V240.047ZM326.844 274.989C326.844 276.508 327.007 277.74 327.333 278.686C327.66 279.631 328.228 280.34 329.038 280.813C330.22 281.567 331.733 281.944 333.579 281.944C335.841 281.944 337.743 280.987 339.285 279.074C340.815 277.161 341.581 274.618 341.581 271.444C341.581 268.473 340.883 265.89 339.487 263.696C338.092 261.49 336.072 260.388 333.427 260.388C332.437 260.388 331.424 260.663 330.389 261.215C329.342 261.755 328.487 262.498 327.823 263.443C327.17 264.388 326.844 265.452 326.844 266.633V274.989ZM364.623 284.493C362.068 284.493 359.874 283.868 358.039 282.619C356.194 281.37 354.787 279.738 353.819 277.724C352.851 275.72 352.367 273.582 352.367 271.309C352.367 268.383 352.947 265.857 354.106 263.73C355.254 261.603 356.751 259.994 358.596 258.902C360.442 257.81 362.355 257.265 364.336 257.265C367.172 257.265 369.619 258.294 371.679 260.354C373.738 262.413 374.864 265.26 375.055 268.895H356.621C356.621 271.168 357.043 273.166 357.887 274.888C358.743 276.609 359.89 277.932 361.331 278.855C362.771 279.777 364.341 280.239 366.041 280.239C370.486 280.239 373.491 278.821 375.055 275.985C374.627 278.539 373.468 280.599 371.577 282.163C369.687 283.716 367.369 284.493 364.623 284.493ZM363.846 259.611C362 259.611 360.419 260.264 359.103 261.569C357.775 262.863 356.97 264.551 356.689 266.633H369.586C369.586 264.461 369.006 262.745 367.847 261.485C366.688 260.236 365.354 259.611 363.846 259.611ZM388.087 263.73C388.796 262.211 389.966 260.753 391.598 259.358C393.23 257.962 394.873 257.265 396.527 257.265C397.574 257.265 398.356 257.411 398.874 257.704V263.51C397.827 262.239 396.358 261.603 394.468 261.603C392.487 261.603 390.928 262.464 389.792 264.186C388.655 265.907 388.087 268.119 388.087 270.82V276.559C388.087 279.203 388.396 281.021 389.015 282.011C389.634 283.001 390.225 283.547 390.788 283.649H380.794C381.357 283.547 381.959 283.013 382.601 282.045C383.242 281.077 383.563 279.248 383.563 276.559V265.857C383.563 263.865 383.242 262.503 382.601 261.772C381.959 261.04 381.239 260.674 380.44 260.674L388.087 257.265V263.73Z" fill="#756C68"/>
<path d="M176.552 260.918C176.552 257.078 174.936 255.159 171.705 255.159C170.285 255.159 169.119 255.615 168.206 256.528C167.278 257.455 166.815 258.614 166.815 260.005C166.815 261.585 168.155 263.809 170.836 266.678L175.769 271.894C178.232 274.415 179.964 276.146 180.964 277.088C181.978 278.016 182.898 278.791 183.724 279.414C185.52 280.747 186.955 281.413 188.027 281.413C189.114 281.413 190.106 281.116 191.005 280.522L192.33 281.913C190.259 283.884 188.382 284.869 186.701 284.869C185.571 284.869 184.434 284.492 183.289 283.739C182.739 283.377 182.166 282.949 181.572 282.457L179.616 280.848C177.08 283.529 174.132 284.869 170.77 284.869C167.699 284.869 165.25 284.137 163.424 282.674C161.526 281.167 160.577 279.088 160.577 276.436C160.577 274.364 161.244 272.546 162.577 270.981C163.692 269.648 165.105 268.655 166.815 268.003C164.265 265.033 162.99 262.447 162.99 260.244C162.99 257.97 163.852 256.129 165.576 254.724C167.213 253.391 169.22 252.724 171.596 252.724C173.61 252.724 175.233 252.935 176.465 253.355C177.696 253.76 178.566 254.115 179.073 254.42L178.29 260.918H176.552ZM168.423 269.633V269.677C167.336 270.242 166.453 271.061 165.772 272.133C165.105 273.191 164.772 274.292 164.772 275.436C164.772 276.567 164.902 277.516 165.163 278.284C165.438 279.052 165.858 279.733 166.424 280.327C167.67 281.66 169.459 282.326 171.792 282.326C173.951 282.326 176.088 281.428 178.203 279.631C177.117 278.646 176.037 277.61 174.965 276.523L168.423 269.633Z" fill="#756C68"/>
<defs>
<clipPath id="clip0">
<rect width="167.297" height="192.832" fill="white" transform="translate(105.094)"/>
</clipPath>
<clipPath id="clip1">
<rect width="167.297" height="192.832" fill="white" transform="translate(105.094)"/>
</clipPath>
</defs>
</svg>
