<svg width="131" height="131" viewBox="0 0 131 131" fill="none" xmlns="http://www.w3.org/2000/svg">
<rect width="131" height="131" fill="black" fill-opacity="0"/>
<path fill-rule="evenodd" clip-rule="evenodd" d="M65.5 131C101.675 131 131 101.675 131 65.5C131 29.3252 101.675 0 65.5 0C29.3252 0 0 29.3252 0 65.5C0 101.675 29.3252 131 65.5 131ZM27.7524 91.5562C22.6978 83.9917 20 75.0981 20 66C20.0137 53.8042 24.8647 42.1118 33.4883 33.4883C42.1118 24.8647 53.8042 20.0137 66 20C75.0981 20 83.9917 22.6978 91.5562 27.7524C99.1211 32.8071 105.017 39.9912 108.499 48.3965C111.98 56.8018 112.891 66.0508 111.116 74.9741C109.341 83.8975 104.96 92.0938 98.5269 98.5269C92.0938 104.96 83.8975 109.341 74.9741 111.116C66.0508 112.891 56.8018 111.98 48.3965 108.499C39.9912 105.017 32.8071 99.1211 27.7524 91.5562ZM89.8525 30.3022C82.792 25.5845 74.4912 23.0669 66 23.0669C54.6172 23.0796 43.7046 27.6069 35.6558 35.6558C27.6069 43.7046 23.0796 54.6172 23.0669 66C23.0669 74.4912 25.5845 82.792 30.3022 89.8525C35.02 96.9126 41.7251 102.416 49.5703 105.665C57.415 108.915 66.0479 109.765 74.376 108.108C82.7041 106.452 90.354 102.363 96.3584 96.3584C102.363 90.354 106.452 82.7041 108.108 74.376C109.765 66.0479 108.915 57.415 105.665 49.5703C102.416 41.7251 96.9126 35.02 89.8525 30.3022ZM66 105.867C73.8848 105.867 81.5928 103.528 88.1489 99.1479C94.7046 94.7671 99.8145 88.541 102.832 81.2563C105.849 73.9717 106.639 65.9556 105.101 58.2222C103.562 50.4888 99.7656 43.3853 94.1899 37.8101C88.6143 32.2344 81.5107 28.4375 73.7773 26.8994C66.0439 25.3608 58.0283 26.1504 50.7437 29.168C43.459 32.1855 37.2324 37.2954 32.8521 43.8511C28.4717 50.4072 26.1333 58.1152 26.1333 66C26.1455 76.5693 30.3496 86.7026 37.8232 94.1768C45.2974 101.65 55.4302 105.854 66 105.867ZM46.2983 34.9424L48.5723 38.8799L51.228 37.3467L48.9507 33.4028C53.7495 30.8809 59.0498 29.458 64.4668 29.2383V33.7998H67.5332V29.2383C72.9502 29.458 78.25 30.8809 83.0493 33.4028L80.772 37.3467L83.4277 38.8799L85.7017 34.9424C90.271 37.8525 94.1475 41.729 97.0576 46.2983L93.1201 48.5723L94.6533 51.228L98.5972 48.9507C101.119 53.75 102.542 59.0498 102.762 64.4668H98.2002V67.5332H102.762C102.542 72.9502 101.119 78.25 98.5972 83.0493L94.6533 80.772L93.1201 83.4277L97.0576 85.7017C94.1475 90.271 90.271 94.1475 85.7017 97.0576L83.4277 93.1201L80.772 94.6533L83.0493 98.5972C78.25 101.119 72.9502 102.542 67.5332 102.762V98.2002H64.4668V102.762C59.0498 102.542 53.7495 101.119 48.9507 98.5972L51.228 94.6533L48.5723 93.1201L46.2983 97.0576C41.729 94.1475 37.8525 90.271 34.9424 85.7017L38.8799 83.4277L37.3467 80.772L33.4028 83.0493C30.8809 78.25 29.458 72.9502 29.2383 67.5332H33.7998V64.4668H29.2383C29.458 59.0498 30.8809 53.75 33.4028 48.9507L37.3467 51.228L38.8799 48.5723L34.9424 46.2983C37.8525 41.729 41.729 37.8525 46.2983 34.9424ZM56.8535 66.4111V66.3481C56.8354 66.1167 56.8354 65.8838 56.8535 65.6523V65.5894L64.5205 37.9893C64.6104 37.667 64.8037 37.3833 65.0703 37.1807C65.3369 36.9785 65.6621 36.8691 65.9971 36.8691C66.3315 36.8691 66.6572 36.9785 66.9238 37.1807C67.1904 37.3833 67.3833 37.667 67.4736 37.9893L75.1401 65.5894V65.6523C75.1587 65.8838 75.1587 66.1167 75.1401 66.3481V66.4111L67.4736 94.0112C67.3833 94.3335 67.1904 94.6172 66.9238 94.8193C66.6572 95.0215 66.3315 95.1313 65.9971 95.1313C65.6621 95.1313 65.3369 95.0215 65.0703 94.8193C64.8037 94.6172 64.6104 94.3335 64.5205 94.0112L56.8535 66.4111ZM60.3496 67.5337L66 87.8716L71.6504 67.5337H68.6421C68.376 67.9995 67.9912 68.3867 67.5273 68.6562C67.0635 68.9253 66.5366 69.0674 66 69.0674C65.4634 69.0674 64.9365 68.9253 64.4727 68.6562C64.0083 68.3867 63.624 67.9995 63.3579 67.5337H60.3496ZM71.6504 64.4668L66 44.1289L60.3496 64.4668H63.3579C63.624 64.001 64.0083 63.6138 64.4727 63.3442C64.9365 63.0747 65.4634 62.9331 66 62.9331C66.5366 62.9331 67.0635 63.0747 67.5273 63.3442C67.9912 63.6138 68.376 64.001 68.6421 64.4668H71.6504ZM95.1333 64.4668H92.0664V67.5337H95.1333V64.4668ZM85.9331 64.4668H89V67.5337H85.9331V64.4668ZM46.0669 64.4668H43V67.5337H46.0669V64.4668ZM36.8667 64.4668H39.9336V67.5337H36.8667V64.4668Z" fill="#4E88A2"/>
</svg>
