<svg width="99" height="99" viewBox="0 0 99 99" fill="none" xmlns="http://www.w3.org/2000/svg">
<path fill-rule="evenodd" clip-rule="evenodd" d="M49.5 99C76.8381 99 99 76.8381 99 49.5C99 22.1619 76.8381 0 49.5 0C22.1619 0 0 22.1619 0 49.5C0 76.8381 22.1619 99 49.5 99ZM20.9732 69.1913C17.1533 63.4745 15.1145 56.7534 15.1145 49.8779C15.1249 40.6612 18.7908 31.8251 25.308 25.308C31.8251 18.7908 40.6612 15.1249 49.8779 15.1145C56.7534 15.1145 63.4745 17.1533 69.1913 20.9732C74.9081 24.793 79.3639 30.2223 81.995 36.5745C84.6262 42.9267 85.3146 49.9164 83.9732 56.6599C82.6319 63.4033 79.321 69.5975 74.4593 74.4593C69.5975 79.321 63.4033 82.6319 56.6599 83.9732C49.9164 85.3146 42.9267 84.6262 36.5745 81.995C30.2223 79.3639 24.793 74.9081 20.9732 69.1913ZM67.9038 22.9002C62.5681 19.335 56.295 17.4321 49.8779 17.4321C41.2757 17.4419 33.0287 20.8634 26.9461 26.9461C20.8634 33.0287 17.4419 41.2757 17.4321 49.8779C17.4321 56.295 19.335 62.5681 22.9002 67.9038C26.4654 73.2395 31.5327 77.3981 37.4614 79.8539C43.3901 82.3096 49.9138 82.9521 56.2077 81.7002C62.5016 80.4483 68.2829 77.3581 72.8205 72.8205C77.3581 68.2829 80.4483 62.5016 81.7002 56.2077C82.9521 49.9138 82.3096 43.3901 79.8539 37.4614C77.3981 31.5327 73.2395 26.4654 67.9038 22.9002ZM49.8767 80.006C55.8355 80.006 61.6605 78.239 66.6151 74.9284C71.5696 71.6179 75.4313 66.9125 77.7116 61.4073C79.9919 55.9021 80.5886 49.8443 79.4261 44C78.2636 38.1557 75.3941 32.7873 71.1806 28.5738C66.9671 24.3603 61.5988 21.4909 55.7545 20.3284C49.9102 19.1659 43.8524 19.7625 38.3472 22.0429C32.8419 24.3232 28.1366 28.1848 24.826 33.1394C21.5155 38.0939 19.7485 43.9189 19.7485 49.8777C19.7577 57.8654 22.9349 65.5233 28.583 71.1714C34.2312 76.8196 41.8891 79.9968 49.8767 80.006ZM34.9876 26.4067L36.7061 29.3824L38.7131 28.2236L36.9923 25.2433C40.6189 23.3372 44.6243 22.2622 48.718 22.096V25.5434H51.0355V22.096C55.1292 22.2622 59.1345 23.3372 62.7612 25.2433L61.0404 28.2236L63.0474 29.3824L64.7659 26.4067C68.2191 28.606 71.1484 31.5354 73.3478 34.9886L70.372 36.707L71.5308 38.7141L74.5112 36.9933C76.4172 40.6199 77.4923 44.6253 77.6584 48.7189H74.2111V51.0365H77.6584C77.4923 55.1301 76.4172 59.1355 74.5112 62.7622L71.5308 61.0414L70.372 63.0484L73.3478 64.7669C71.1484 68.2201 68.2191 71.1494 64.7659 73.3488L63.0474 70.373L61.0404 71.5318L62.7612 74.5122C59.1345 76.4182 55.1292 77.4933 51.0355 77.6594V74.2121H48.718V77.6594C44.6243 77.4933 40.6189 76.4182 36.9923 74.5122L38.7131 71.5318L36.7061 70.373L34.9876 73.3488C31.5344 71.1494 28.6051 68.2201 26.4057 64.7669L29.3814 63.0484L28.2226 61.0414L25.2423 62.7622C23.3362 59.1355 22.2612 55.1301 22.095 51.0365H25.5424V48.7189H22.095C22.2612 44.6253 23.3362 40.6199 25.2423 36.9933L28.2226 38.7141L29.3814 36.707L26.4057 34.9886C28.6051 31.5354 31.5344 28.606 34.9876 26.4067ZM42.965 50.1888V50.1413C42.9511 49.9662 42.9511 49.7903 42.965 49.6152V49.5677L48.7589 28.7097C48.827 28.4661 48.973 28.2516 49.1745 28.0987C49.376 27.9459 49.6219 27.8632 49.8748 27.8632C50.1277 27.8632 50.3736 27.9459 50.5751 28.0987C50.7766 28.2516 50.9225 28.4661 50.9907 28.7097L56.7846 49.5677V49.6152C56.7985 49.7903 56.7985 49.9662 56.7846 50.1413V50.1888L50.9907 71.0468C50.9225 71.2903 50.7766 71.5049 50.5751 71.6577C50.3736 71.8106 50.1277 71.8933 49.8748 71.8933C49.6219 71.8933 49.376 71.8106 49.1745 71.6577C48.973 71.5049 48.827 71.2903 48.7589 71.0468L42.965 50.1888ZM45.607 51.037L49.8771 66.4071L54.1472 51.037H51.8737C51.6727 51.3891 51.3821 51.6818 51.0315 51.8854C50.6808 52.089 50.2826 52.1962 49.8771 52.1962C49.4717 52.1962 49.0734 52.089 48.7228 51.8854C48.3721 51.6818 48.0816 51.3891 47.8805 51.037H45.607ZM54.1472 48.7195L49.8771 33.3494L45.607 48.7195H47.8805C48.0816 48.3673 48.3721 48.0746 48.7228 47.8711C49.0734 47.6675 49.4717 47.5602 49.8771 47.5602C50.2826 47.5602 50.6808 47.6675 51.0315 47.8711C51.3821 48.0746 51.6727 48.3673 51.8737 48.7195H54.1472ZM71.8937 48.7194H69.5762V51.037H71.8937V48.7194ZM64.9415 48.7194H67.259V51.037H64.9415V48.7194ZM34.813 48.7194H32.4955V51.037H34.813V48.7194ZM27.8607 48.7194H30.1783V51.037H27.8607V48.7194Z" fill="#4E88A2"/>
</svg>
