<svg width="83" height="68" viewBox="0 0 83 68" fill="none" xmlns="http://www.w3.org/2000/svg">
<rect width="82.36" height="67.51" fill="black" fill-opacity="0"/>
<path d="M43.71 33.0998C46.8397 33.0972 49.8405 31.8534 52.0545 29.6413C54.2684 27.4293 55.5147 24.4295 55.52 21.2998C55.52 20.902 55.362 20.5204 55.0807 20.2391C54.7994 19.9578 54.4178 19.7998 54.02 19.7998H49.93C47.8277 19.8008 45.7637 20.363 43.9512 21.4283C42.1388 22.4936 40.6436 24.0235 39.62 25.8598C38.5964 24.0235 37.1012 22.4936 35.2888 21.4283C33.4763 20.363 31.4123 19.8008 29.31 19.7998H25.18C24.7822 19.7998 24.4006 19.9578 24.1193 20.2391C23.838 20.5204 23.68 20.902 23.68 21.2998C23.6826 22.8529 23.9913 24.3902 24.5883 25.8239C25.1854 27.2576 26.0592 28.5596 27.1597 29.6555C28.2602 30.7514 29.5659 31.6196 31.0021 32.2106C32.4383 32.8016 33.9769 33.1037 35.53 33.0998H38.05V64.4798H17.69V53.7398H20.36C21.9131 53.7398 23.4509 53.4337 24.8856 52.8391C26.3203 52.2445 27.6238 51.3729 28.7215 50.2743C29.8193 49.1756 30.6897 47.8714 31.2831 46.4362C31.8765 45.001 32.1813 43.4629 32.18 41.9098C32.18 41.512 32.022 41.1304 31.7407 40.8491C31.4594 40.5678 31.0778 40.4098 30.68 40.4098H26.57C24.4677 40.4108 22.4037 40.973 20.5912 42.0383C18.7788 43.1036 17.2836 44.6335 16.26 46.4698C15.2364 44.6335 13.7412 43.1036 11.9288 42.0383C10.1163 40.973 8.05235 40.4108 5.95 40.4098H1.87C1.47218 40.4098 1.09065 40.5678 0.80934 40.8491C0.528036 41.1304 0.37 41.512 0.37 41.9098C0.368686 43.462 0.673119 44.9993 1.26592 46.4339C1.85871 47.8685 2.72827 49.1722 3.82493 50.2707C4.92159 51.3693 6.22388 52.241 7.65744 52.8362C9.09101 53.4315 10.6278 53.7385 12.18 53.7398H14.7V64.4798H1.5C1.10218 64.4798 0.720645 64.6378 0.439341 64.9191C0.158036 65.2004 0 65.582 0 65.9798C0 66.3776 0.158036 66.7592 0.439341 67.0405C0.720645 67.3218 1.10218 67.4798 1.5 67.4798H46.89C47.2878 67.4798 47.6694 67.3218 47.9507 67.0405C48.232 66.7592 48.39 66.3776 48.39 65.9798C48.39 65.582 48.232 65.2004 47.9507 64.9191C47.6694 64.6378 47.2878 64.4798 46.89 64.4798H41.05V49.4798L44.55 45.9798C44.7082 45.7915 44.7915 45.5515 44.7839 45.3057C44.7763 45.0598 44.6784 44.8254 44.5089 44.6472C44.3394 44.469 44.1101 44.3595 43.865 44.3397C43.6198 44.3199 43.3759 44.3911 43.18 44.5398L41.09 46.6298V33.0998H43.76H43.71ZM26.57 43.4098H29.03C28.6792 45.4568 27.6172 47.3144 26.0312 48.6553C24.4452 49.9961 22.4369 50.7343 20.36 50.7398H17.89C18.2411 48.6911 19.3046 46.8322 20.8926 45.4911C22.4807 44.15 24.4914 43.4129 26.57 43.4098ZM12.18 50.7398C10.1043 50.7375 8.09594 50.0032 6.50827 48.6661C4.9206 47.329 3.85536 45.4748 3.5 43.4298H5.96C8.03569 43.4321 10.0441 44.1664 11.6317 45.5035C13.2194 46.8406 14.2846 48.6948 14.64 50.7398H12.18ZM49.93 22.7998H52.39C52.0346 24.8448 50.9694 26.699 49.3817 28.0361C47.7941 29.3732 45.7857 30.1075 43.71 30.1098H41.25C41.6054 28.0648 42.6706 26.2106 44.2583 24.8735C45.8459 23.5364 47.8543 22.8021 49.93 22.7998ZM35.53 30.1098C33.4543 30.1075 31.4459 29.3732 29.8583 28.0361C28.2706 26.699 27.2054 24.8448 26.85 22.7998H29.32C31.3957 22.8021 33.4041 23.5364 34.9917 24.8735C36.5794 26.2106 37.6446 28.0648 38 30.1098H35.53Z" fill="#4E88A2"/>
<path d="M80.8598 0H73.2798C71.1775 0.00101424 69.1135 0.563208 67.3011 1.62852C65.4886 2.69384 63.9934 4.22366 62.9698 6.06C61.9463 4.22366 60.451 2.69384 58.6386 1.62852C56.8262 0.563208 54.7622 0.00101424 52.6598 0H45.0898C44.692 0 44.3105 0.158034 44.0292 0.439339C43.7479 0.720643 43.5898 1.10218 43.5898 1.5V4C43.5951 7.12793 44.84 10.1262 47.0518 12.338C49.2636 14.5498 52.2619 15.7947 55.3898 15.8H61.3898V47.74L58.9298 45.28C58.7362 45.0943 58.4768 44.9932 58.2086 44.9988C57.9405 45.0045 57.6855 45.1164 57.4998 45.31C57.3142 45.5036 57.2131 45.763 57.2187 46.0312C57.2243 46.2994 57.3362 46.5543 57.5298 46.74L61.3998 50.61V64.01C61.401 64.1806 61.4314 64.3497 61.4898 64.51H55.1798C54.782 64.51 54.4005 64.668 54.1192 64.9493C53.8379 65.2306 53.6798 65.6122 53.6798 66.01C53.6798 66.4078 53.8379 66.7894 54.1192 67.0707C54.4005 67.352 54.782 67.51 55.1798 67.51H71.1798C71.5777 67.51 71.9592 67.352 72.2405 67.0707C72.5218 66.7894 72.6798 66.4078 72.6798 66.01C72.6798 65.6122 72.5218 65.2306 72.2405 64.9493C71.9592 64.668 71.5777 64.51 71.1798 64.51H64.3098C64.3682 64.3497 64.3987 64.1806 64.3998 64.01V15.8H70.5598C73.6878 15.7947 76.6861 14.5498 78.8979 12.338C81.1096 10.1262 82.3546 7.12793 82.3598 4V1.5C82.3598 1.10218 82.2018 0.720643 81.9205 0.439339C81.6392 0.158034 81.2577 0 80.8598 0V0ZM73.2798 3H77.0498L73.1798 5.74L73.4598 4.6C73.5042 4.34946 73.4515 4.09142 73.3123 3.87843C73.1731 3.66544 72.9579 3.51352 72.7106 3.45362C72.4634 3.39371 72.2025 3.43031 71.9813 3.55598C71.76 3.68165 71.595 3.88692 71.5198 4.13L70.6998 7.53L64.4498 12V11.81C64.4512 10.6517 64.6806 9.50508 65.125 8.43549C65.5695 7.3659 66.2203 6.39433 67.0402 5.57624C67.8602 4.75816 68.8332 4.10959 69.9038 3.66755C70.9744 3.22552 72.1216 2.99869 73.2798 3V3ZM61.4698 11.81V12L57.6898 9.3L55.1798 7.53L54.3598 4.13C54.2847 3.88692 54.1196 3.68165 53.8984 3.55598C53.6772 3.43031 53.4163 3.39371 53.169 3.45362C52.9218 3.51352 52.7066 3.66544 52.5674 3.87843C52.4282 4.09142 52.3754 4.34946 52.4198 4.6L52.7398 5.74L48.8998 2.99H52.6698C55.0056 2.9953 57.2439 3.92688 58.8936 5.58038C60.5434 7.23387 61.4699 9.47425 61.4698 11.81ZM46.5898 4V3.8L54.7398 9.63L52.1798 10.19C51.9146 10.2178 51.6713 10.3499 51.5035 10.5571C51.3356 10.7644 51.257 11.0298 51.2848 11.295C51.3127 11.5602 51.4448 11.8035 51.652 11.9714C51.8592 12.1392 52.1246 12.2178 52.3898 12.19H52.5998L56.9098 11.25L59.1798 12.8H55.3898C53.0576 12.7947 50.8223 11.8659 49.1731 10.2167C47.524 8.56753 46.5951 6.33228 46.5898 4ZM70.5898 12.81H66.7898L69.0198 11.21L73.3298 12.15H73.5398C73.6712 12.1638 73.8039 12.1516 73.9305 12.1141C74.0571 12.0765 74.1751 12.0145 74.2777 11.9314C74.3803 11.8482 74.4656 11.7457 74.5285 11.6297C74.5915 11.5136 74.6311 11.3863 74.6448 11.255C74.6586 11.1237 74.6464 10.9909 74.6089 10.8643C74.5714 10.7377 74.5093 10.6197 74.4262 10.5171C74.3431 10.4145 74.2406 10.3293 74.1245 10.2663C74.0085 10.2033 73.8812 10.1638 73.7498 10.15L71.1798 9.64L79.3298 3.81V4C79.3246 6.32711 78.3999 8.55784 76.7572 10.2062C75.1145 11.8545 72.8869 12.7868 70.5598 12.8L70.5898 12.81Z" fill="#4E88A2"/>
<path d="M79.82 64.48H75.75C75.3522 64.48 74.9706 64.638 74.6893 64.9193C74.408 65.2006 74.25 65.5822 74.25 65.98C74.25 66.3778 74.408 66.7593 74.6893 67.0407C74.9706 67.322 75.3522 67.48 75.75 67.48H79.83C80.2278 67.4787 80.6088 67.3194 80.8892 67.0371C81.1696 66.7549 81.3263 66.3728 81.325 65.975C81.3237 65.5772 81.1644 65.1962 80.8821 64.9158C80.5999 64.6354 80.2178 64.4787 79.82 64.48V64.48Z" fill="#4E88A2"/>
</svg>
