<svg width="99" height="99" viewBox="0 0 99 99" fill="none" xmlns="http://www.w3.org/2000/svg">
<mask id="mask0" mask-type="alpha" maskUnits="userSpaceOnUse" x="0" y="0" width="99" height="99">
<circle cx="49.5" cy="49.5" r="49.5" fill="#C4C4C4"/>
</mask>
<g mask="url(#mask0)">
<path d="M73.2649 66.8126C72.5089 66.7188 71.8257 67.264 71.7339 68.0273C71.7244 68.1067 70.7024 75.949 63.417 76.944C54.1224 78.2116 52.0539 72.9968 50.686 69.5459L50.6076 69.3502C49.3576 66.204 48.4472 63.3617 47.783 61.2867C47.0658 59.0489 46.6328 57.6979 46.1444 56.9738C45.7565 56.399 36.7659 42.7718 48.1535 31.4088C52.1283 27.4416 57.509 26.2734 62.5462 28.2867C67.4337 30.2398 70.5979 34.6064 70.8029 39.6801C70.8346 40.4482 71.4711 41.0439 72.2342 41.0143C72.9926 40.983 73.5824 40.3343 73.5523 39.5662C73.3045 33.4686 69.3804 28.0245 63.5563 25.6961C57.4774 23.2659 50.9979 24.6602 46.2227 29.4252C41.2948 34.3434 39.0751 40.4666 39.8034 47.1343C40.4715 53.2503 43.3119 57.7147 43.8755 58.547C44.1415 58.9406 44.6395 60.4977 45.1683 62.1454C45.8451 64.2597 46.7721 67.1549 48.0577 70.3894L48.1353 70.5834C49.4692 73.9477 51.8386 79.9266 60.6645 79.9266C61.6255 79.9266 62.6642 79.8553 63.7859 79.7029C71.2819 78.6798 74.0494 71.8374 74.465 68.3616C74.5561 67.5983 74.0193 66.9048 73.2649 66.8126Z" fill="#4E88A2"/>
<path d="M67.513 51.8528C67.9674 51.7286 68.5184 51.9723 68.6791 52.0685C69.3227 52.4766 70.1713 52.2778 70.5734 51.6259C70.9772 50.9733 70.7816 50.1138 70.1365 49.7064C69.975 49.6046 68.5081 48.7194 66.8417 49.1516C66.1173 49.3392 65.0937 49.854 64.3267 51.2419C62.9175 53.7899 64.5752 56.8047 65.6724 58.7995C65.9448 59.2958 66.2836 59.9124 66.3398 60.1313C66.6992 61.5496 66.2416 63.1332 65.2513 63.8989C64.1509 64.7504 62.8249 64.2966 61.905 63.7658C57.84 61.4166 56.4847 57.2633 57.8748 51.4207C59.3647 45.1611 64.0417 43.9288 65.1436 43.7227C65.5695 45.0745 65.6883 46.1441 65.6898 46.1657C65.7658 46.9307 66.4411 47.4887 67.1955 47.4117C67.9515 47.334 68.5017 46.6508 68.4257 45.8859C68.402 45.6358 67.7703 39.7226 63.7741 36.8474C61.7 35.3552 59.1581 34.9592 56.218 35.6712C51.75 36.7536 49.1091 40.3512 48.5811 46.0776C48.2074 50.133 49.0347 53.8373 49.0703 53.9936C49.2175 54.6382 49.782 55.0736 50.4082 55.0736C50.5103 55.0736 50.6132 55.0624 50.7177 55.0383C51.4571 54.8667 51.9202 54.1195 51.7508 53.3698C51.7429 53.3353 50.9805 49.8957 51.3257 46.2796C51.75 41.8257 53.6119 39.1677 56.8576 38.382C59.018 37.8592 60.7564 38.0982 62.1726 39.1132C62.9255 39.6536 63.5216 40.3672 63.9926 41.1345C61.7855 41.7174 56.8647 43.7812 55.2023 50.7688C53.0696 59.7288 56.9296 64.0977 60.5434 66.1864C61.6652 66.835 62.7964 67.1582 63.8667 67.1582C64.9766 67.1582 66.0215 66.8102 66.92 66.1142C68.8089 64.6542 69.6456 61.9706 69.0028 59.4377C68.8588 58.8717 68.5136 58.2423 68.075 57.4461C67.2755 55.9925 66.0683 53.7948 66.7261 52.6041C67.0744 51.9731 67.4037 51.8825 67.513 51.8528Z" fill="#4E88A2"/>
<path d="M36.0605 64.451L26.7715 71.7544C26.0551 72.3181 25.9261 73.3628 26.4818 74.0885C26.8048 74.5102 27.2892 74.7323 27.7793 74.7323C28.1315 74.7323 28.4862 74.6176 28.7854 74.3819L38.0745 67.0776C38.7909 66.514 38.9199 65.4692 38.3642 64.7436C37.8085 64.0188 36.777 63.8873 36.0605 64.451Z" fill="#4E88A2"/>
<path d="M34.0028 50.0131C33.9315 49.1167 33.1597 48.448 32.2715 48.5194L16.0113 49.8351C15.1255 49.9073 14.4653 50.6914 14.5365 51.5878C14.6038 52.4401 15.3076 53.0872 16.1372 53.0872C16.1799 53.0872 16.2235 53.0856 16.267 53.0816L32.528 51.7666C33.4122 51.6945 34.0724 50.9103 34.0028 50.0131Z" fill="#4E88A2"/>
<path d="M22.3911 30.4856L34.2877 33.9622C34.45 34.0103 34.6131 34.0327 34.773 34.0327C35.5322 34.0327 36.2312 33.5276 36.4529 32.7523C36.7204 31.8118 36.1853 30.8304 35.2575 30.5594L23.3616 27.082C22.433 26.811 21.4641 27.353 21.1965 28.2919C20.9274 29.2324 21.4633 30.2138 22.3911 30.4856Z" fill="#4E88A2"/>
</g>
<path d="M79.7914 88.3323C64.6374 56.3769 76.0002 9.99977 76.0002 9.99977" stroke="#4E88A2" stroke-width="3"/>
<circle cx="49.5" cy="49.5" r="48" stroke="#4E88A2" stroke-width="3"/>
</svg>
