<svg width="109" height="109" viewBox="0 0 109 109" fill="none" xmlns="http://www.w3.org/2000/svg">
<rect width="109" height="109" fill="black" fill-opacity="0"/>
<rect width="109" height="109" fill="black" fill-opacity="0"/>
<rect width="109" height="109" fill="black" fill-opacity="0"/>
<mask id="mask0" mask-type="alpha" maskUnits="userSpaceOnUse" x="0" y="0" width="109" height="109">
<circle cx="54.5" cy="54.5" r="54.5" fill="#C4C4C4"/>
</mask>
<g mask="url(#mask0)">
<path d="M80.6673 73.5613C79.835 73.458 79.0828 74.0583 78.9817 74.8987C78.9712 74.9861 77.846 83.6205 69.8247 84.7161C59.5913 86.1117 57.3138 80.3702 55.8077 76.5707L55.7214 76.3553C54.3451 72.8913 53.3428 69.7618 52.6115 67.4772C51.8219 65.0134 51.3451 63.5259 50.8073 62.7288C50.3802 62.0958 40.4815 47.0921 53.0194 34.5814C57.3957 30.2135 63.32 28.9273 68.8659 31.1439C74.2472 33.2944 77.7309 38.1019 77.9567 43.6882C77.9915 44.5339 78.6923 45.1898 79.5325 45.1571C80.3675 45.1227 81.0168 44.4085 80.9837 43.5628C80.7109 36.8493 76.3904 30.8552 69.9781 28.2917C63.2851 25.616 56.1511 27.1511 50.8936 32.3974C45.4679 37.8124 43.024 44.5542 43.8258 51.8953C44.5615 58.6291 47.6887 63.5444 48.3093 64.4608C48.6022 64.8942 49.1504 66.6086 49.7326 68.4227C50.4779 70.7506 51.4985 73.9383 52.914 77.4994L52.9994 77.713C54.468 81.4171 57.0767 88 66.7941 88C67.8523 88 68.9958 87.9214 70.2308 87.7537C78.484 86.6273 81.5311 79.0937 81.9887 75.2668C82.0889 74.4264 81.498 73.6628 80.6673 73.5613Z" fill="#4E88A2"/>
<path d="M74.334 57.0904C74.8343 56.9536 75.4409 57.2219 75.6178 57.3279C76.3265 57.7772 77.2608 57.5583 77.7036 56.8406C78.1481 56.122 77.9328 55.1757 77.2225 54.7272C77.0447 54.6151 75.4296 53.6405 73.5949 54.1163C72.7974 54.3229 71.6704 54.8896 70.8258 56.4177C69.2744 59.2232 71.0995 62.5424 72.3075 64.7388C72.6074 65.2852 72.9804 65.9641 73.0423 66.2051C73.438 67.7667 72.9342 69.5102 71.8438 70.3532C70.6323 71.2907 69.1724 70.7911 68.1596 70.2067C63.684 67.6202 62.1918 63.0474 63.7223 56.6146C65.3626 49.7227 70.512 48.3659 71.7253 48.139C72.1942 49.6274 72.325 50.805 72.3267 50.8289C72.4104 51.671 73.1538 52.2854 73.9845 52.2007C74.8168 52.1151 75.4226 51.3629 75.3389 50.5208C75.3128 50.2454 74.6173 43.7349 70.2174 40.5692C67.9339 38.9264 65.1352 38.4903 61.8981 39.2742C56.9788 40.466 54.0711 44.427 53.4898 50.7318C53.0784 55.1968 53.9892 59.2753 54.0284 59.4474C54.1905 60.1572 54.812 60.6365 55.5014 60.6365C55.6138 60.6365 55.7271 60.6242 55.8422 60.5977C56.6563 60.4088 57.1662 59.586 56.9796 58.7606C56.9709 58.7227 56.1316 54.9355 56.5116 50.9542C56.9788 46.0504 59.0288 43.124 62.6023 42.2589C64.9809 41.6833 66.8949 41.9464 68.4542 43.064C69.2831 43.659 69.9394 44.4446 70.458 45.2894C68.028 45.9312 62.6101 48.2035 60.7798 55.8969C58.4317 65.7619 62.6816 70.5722 66.6605 72.8718C67.8955 73.586 69.141 73.9417 70.3194 73.9417C71.5414 73.9417 72.6919 73.5586 73.6812 72.7923C75.7608 71.1848 76.6821 68.2302 75.9743 65.4415C75.8157 64.8182 75.4357 64.1252 74.9528 63.2486C74.0725 61.6482 72.7433 59.2285 73.4676 57.9176C73.8511 57.2228 74.2137 57.1231 74.334 57.0904Z" fill="#4E88A2"/>
<path d="M39.7036 70.9614L29.4763 79.0026C28.6875 79.6232 28.5454 80.7735 29.1573 81.5724C29.5129 82.0367 30.0463 82.2812 30.5858 82.2812C30.9737 82.2812 31.3641 82.155 31.6936 81.8955L41.9209 73.8534C42.7097 73.2328 42.8518 72.0825 42.2399 71.2836C41.6281 70.4856 40.4924 70.3408 39.7036 70.9614Z" fill="#4E88A2"/>
<path d="M37.4384 55.0649C37.3599 54.078 36.5101 53.3417 35.5322 53.4203L17.6296 54.8689C16.6543 54.9484 15.9274 55.8117 16.0058 56.7987C16.0799 57.7371 16.8547 58.4495 17.7682 58.4495C17.8152 58.4495 17.8632 58.4477 17.9111 58.4433L35.8146 56.9955C36.7881 56.9161 37.5151 56.0527 37.4384 55.0649Z" fill="#4E88A2"/>
<path d="M24.654 33.565L37.7524 37.3927C37.9311 37.4457 38.1106 37.4704 38.2867 37.4704C39.1225 37.4704 39.8921 36.9142 40.1362 36.0606C40.4308 35.0251 39.8416 33.9446 38.8201 33.6462L25.7226 29.8176C24.7002 29.5192 23.6334 30.116 23.3388 31.1497C23.0424 32.1852 23.6325 33.2657 24.654 33.565Z" fill="#4E88A2"/>
</g>
<circle cx="54.5" cy="54.5" r="53" stroke="#4E88A2" stroke-width="3"/>
</svg>
