<svg width="80" height="80" viewBox="0 0 80 80" fill="none" xmlns="http://www.w3.org/2000/svg">
<path d="M43.5803 50.1204C43.0633 49.9344 42.4873 50.2034 42.3003 50.7224C41.9283 51.7554 41.5843 52.6435 41.2473 53.4375C41.0323 53.9455 41.2693 54.5325 41.7783 54.7485C41.9053 54.8025 42.0383 54.8285 42.1683 54.8285C42.5583 54.8285 42.9283 54.5995 43.0893 54.2185C43.4403 53.3895 43.7973 52.4685 44.1823 51.4004C44.3693 50.8804 44.0993 50.3074 43.5803 50.1204Z" fill="#4E88A2"/>
<path d="M46.5714 41.7581C46.7094 41.8241 46.8554 41.8551 46.9994 41.8551C47.3734 41.8551 47.7324 41.6441 47.9034 41.2841C48.3624 40.3161 48.8154 39.5231 49.2844 38.8611C49.6044 38.4111 49.4984 37.7871 49.0474 37.4671C48.5974 37.1481 47.9734 37.2531 47.6534 37.7041C47.1154 38.4621 46.6064 39.3521 46.0964 40.4271C45.8604 40.9251 46.0724 41.5211 46.5714 41.7581Z" fill="#4E88A2"/>
<path d="M34.8493 60.8582C34.0383 61.1812 33.1613 61.3952 32.2423 61.4922C31.6933 61.5512 31.2953 62.0432 31.3533 62.5922C31.4083 63.1052 31.8413 63.4872 32.3473 63.4872C32.3823 63.4872 32.4183 63.4852 32.4533 63.4822C33.5543 63.3652 34.6093 63.1072 35.5903 62.7172C36.1033 62.5122 36.3533 61.9312 36.1493 61.4182C35.9433 60.9042 35.3633 60.6542 34.8493 60.8582Z" fill="#4E88A2"/>
<path d="M40.9082 56.5051C40.4412 56.2091 39.8242 56.3471 39.5282 56.8121C39.3982 57.0171 39.2652 57.2151 39.1292 57.4061C38.7292 57.9691 38.2892 58.4821 37.8222 58.9301C37.4242 59.3131 37.4122 59.9461 37.7952 60.3441C37.9912 60.5481 38.2532 60.6511 38.5162 60.6511C38.7662 60.6511 39.0152 60.5581 39.2092 60.3721C39.7652 59.8371 40.2862 59.2301 40.7582 58.5661C40.9142 58.3471 41.0672 58.1201 41.2162 57.8851C41.5122 57.4191 41.3742 56.8011 40.9082 56.5051Z" fill="#4E88A2"/>
<path d="M79.8844 4.05847C79.8844 3.55147 79.5054 3.12446 79.0014 3.06546L53.0422 0.00644335C53.0032 0.00144332 52.9652 0.0174431 52.9252 0.0174431C52.8852 0.0174431 52.8472 0.00144332 52.8072 0.00644335L26.966 3.05146L1.12482 0.00644335C0.842819 -0.0255569 0.556816 0.062444 0.342815 0.252445C0.128813 0.442447 0.0078125 0.713448 0.0078125 0.99945V75.941C0.0078125 76.448 0.386815 76.875 0.890819 76.934L26.849 79.993C26.888 79.998 26.927 80 26.966 80C27.005 80 27.044 79.998 27.083 79.993L52.9242 76.948L78.7664 79.993C78.8064 79.998 78.8454 80 78.8844 80C79.1284 80 79.3644 79.911 79.5494 79.748C79.7624 79.558 79.8844 79.286 79.8844 79V4.05847ZM77.8844 18.5796L77.3603 18.5926C76.8083 18.6056 76.3713 19.0646 76.3853 19.6166C76.3983 20.1596 76.8433 20.5926 77.3843 20.5926C77.3923 20.5926 77.4013 20.5926 77.4093 20.5926L77.8853 20.5806V72.2219C77.1263 72.4299 75.6933 72.6469 74.0343 71.9849C71.6483 71.0329 69.6653 68.6199 68.1393 64.8129C64.6653 56.1448 56.6652 54.1328 53.9262 53.6908V36.2147C54.1442 36.1397 54.3902 36.0537 54.6892 35.9437C55.2072 35.7517 55.4712 35.1767 55.2802 34.6587C55.0882 34.1407 54.5142 33.8787 53.9952 34.0677C53.9702 34.0767 53.9512 34.0837 53.9262 34.0927V2.12446L77.8853 4.94748V18.5796H77.8844ZM51.9252 34.6067C51.6502 34.6627 51.3782 34.7337 51.1142 34.8307C50.5952 35.0197 50.3292 35.5947 50.5192 36.1137C50.6672 36.5187 51.0502 36.7707 51.4582 36.7707C51.5722 36.7707 51.6882 36.7507 51.8022 36.7087C51.8422 36.6937 51.8842 36.6877 51.9252 36.6747V53.3498C50.4512 52.9198 47.7001 51.6748 45.1371 48.1098C45.2901 47.9928 45.4141 47.8358 45.4801 47.6398C45.7991 46.6978 46.1191 45.7628 46.4481 44.8568C46.6361 44.3377 46.3681 43.7637 45.8491 43.5757C45.3321 43.3877 44.7571 43.6557 44.5681 44.1747C44.3361 44.8138 44.1111 45.4768 43.8851 46.1368C43.2861 45.0718 42.7121 43.8587 42.1861 42.4667C38.5641 32.8857 30.832 31.6717 27.965 31.5637V4.94748L51.9232 2.12446V34.6067H51.9252ZM25.966 4.94748V31.5647C23.1 31.6737 15.3669 32.8847 11.7459 42.4677C11.2199 43.8597 10.6459 45.0728 10.0469 46.1388C9.82088 45.4788 9.59588 44.8158 9.36388 44.1767C9.17588 43.6577 8.59987 43.3887 8.08287 43.5777C7.56287 43.7657 7.29486 44.3398 7.48386 44.8588C7.81287 45.7648 8.13187 46.6998 8.45187 47.6418C8.51787 47.8378 8.64287 47.9958 8.79487 48.1118C6.23086 51.6788 3.47884 52.9238 2.00683 53.3518V36.6747C2.04683 36.6877 2.08983 36.6937 2.12983 36.7087C2.24283 36.7507 2.35883 36.7707 2.47383 36.7707C2.88183 36.7707 3.26484 36.5197 3.41284 36.1137C3.60284 35.5947 3.33684 35.0207 2.81783 34.8307C2.55483 34.7337 2.28283 34.6627 2.00683 34.6067V2.12446L25.966 4.94748ZM2.00783 55.4128C4.25984 54.8908 10.0359 52.6508 13.6169 43.1747C16.8549 34.6087 23.533 33.6157 25.966 33.5487V61.1679C25.782 61.2149 25.575 61.2649 25.325 61.3149C24.783 61.4219 24.431 61.9479 24.538 62.4899C24.632 62.9659 25.05 63.2959 25.518 63.2959C25.582 63.2959 25.647 63.2899 25.713 63.2769C25.806 63.2589 25.879 63.2399 25.965 63.2209V77.876L2.00683 75.053V55.4128H2.00783ZM27.966 63.2199C28.052 63.2389 28.125 63.2579 28.218 63.2759C28.284 63.2889 28.349 63.2949 28.413 63.2949C28.881 63.2949 29.299 62.9649 29.393 62.4889C29.5 61.9469 29.148 61.4209 28.606 61.3139C28.357 61.2649 28.15 61.2149 27.965 61.1669V33.5557C30.393 33.6457 37.1081 34.6887 40.3151 43.1737C43.8961 52.6498 49.6722 54.8898 51.9242 55.4118V75.051L27.966 77.874V63.2199V63.2199ZM53.9252 75.052V55.7288C56.5512 56.2268 63.3343 58.1988 66.2823 65.5559C68.0303 69.9159 70.4053 72.7099 73.3413 73.861C74.4193 74.283 75.4343 74.425 76.3113 74.425C76.9093 74.425 77.4383 74.357 77.8844 74.27V77.875L53.9252 75.052Z" fill="#4E88A2"/>
<path d="M57.7277 34.5506C57.8767 34.5506 58.0287 34.5176 58.1707 34.4466C59.0727 33.9986 59.9147 33.5286 60.6737 33.0466C61.1397 32.7505 61.2777 32.1325 60.9817 31.6665C60.6867 31.2005 60.0687 31.0625 59.6017 31.3585C58.9017 31.8025 58.1217 32.2395 57.2827 32.6555C56.7877 32.9015 56.5857 33.5016 56.8307 33.9956C57.0057 34.3476 57.3597 34.5506 57.7277 34.5506Z" fill="#4E88A2"/>
<path d="M63.0239 30.9194C63.2849 30.9194 63.5459 30.8174 63.7419 30.6154C64.5289 29.8034 65.1289 28.9544 65.524 28.0924C65.754 27.5904 65.5329 26.9964 65.0309 26.7664C64.5299 26.5344 63.9359 26.7564 63.7049 27.2594C63.4049 27.9144 62.9339 28.5744 62.3059 29.2224C61.9209 29.6184 61.9309 30.2524 62.3269 30.6364C62.5219 30.8254 62.7729 30.9194 63.0239 30.9194Z" fill="#4E88A2"/>
<path d="M65.6559 25.2042C65.8159 25.2992 65.9899 25.3432 66.1629 25.3432C66.5049 25.3432 66.8379 25.1672 67.0249 24.8512C67.4969 24.0532 67.9909 23.4062 68.5359 22.8732C68.931 22.4872 68.9379 21.8542 68.5529 21.4592C68.1679 21.0632 67.5339 21.0572 67.1389 21.4422C66.4659 22.1002 65.8659 22.8822 65.3039 23.8342C65.0219 24.3112 65.1799 24.9232 65.6559 25.2042Z" fill="#4E88A2"/>
<path d="M70.9688 21.2974C71.0688 21.2974 71.1708 21.2824 71.2718 21.2504C71.9738 21.0284 72.7928 20.8714 73.7768 20.7724C74.3258 20.7164 74.7268 20.2264 74.6718 19.6764C74.6158 19.1274 74.1348 18.7294 73.5758 18.7814C72.4538 18.8954 71.5018 19.0784 70.6668 19.3434C70.1408 19.5104 69.8488 20.0724 70.0158 20.5984C70.1508 21.0254 70.5448 21.2974 70.9688 21.2974Z" fill="#4E88A2"/>
<path d="M6.02286 41.2832C6.19387 41.6442 6.55287 41.8542 6.92687 41.8542C7.07087 41.8542 7.21687 41.8232 7.35487 41.7572C7.85388 41.5202 8.06588 40.9242 7.82988 40.4252C7.31987 39.3512 6.81087 38.4602 6.27287 37.7022C5.95286 37.2511 5.32786 37.1461 4.87885 37.4651C4.42785 37.7852 4.32185 38.4092 4.64185 38.8592C5.11186 39.5222 5.56386 40.3152 6.02286 41.2832Z" fill="#4E88A2"/>
<path d="M12.6898 53.4376C12.3527 52.6436 12.0087 51.7546 11.6367 50.7225C11.4487 50.2025 10.8777 49.9345 10.3567 50.1205C9.83673 50.3085 9.56773 50.8806 9.75473 51.4006C10.1397 52.4676 10.4967 53.3896 10.8477 54.2186C11.0097 54.5996 11.3797 54.8286 11.7687 54.8286C11.8987 54.8286 12.0307 54.8026 12.1587 54.7486C12.6677 54.5326 12.9058 53.9456 12.6898 53.4376Z" fill="#4E88A2"/>
<path d="M14.8012 57.4053C14.6652 57.2143 14.5322 57.0163 14.4022 56.8113C14.1062 56.3453 13.4882 56.2083 13.0222 56.5043C12.5562 56.8003 12.4182 57.4183 12.7152 57.8844C12.8642 58.1184 13.0162 58.3454 13.1722 58.5654C13.6452 59.2294 14.1662 59.8364 14.7222 60.3714C14.9162 60.5584 15.1662 60.6504 15.4152 60.6504C15.6772 60.6504 15.9393 60.5474 16.1363 60.3434C16.5193 59.9454 16.5073 59.3124 16.1093 58.9294C15.6412 58.4814 15.2022 57.9683 14.8012 57.4053Z" fill="#4E88A2"/>
<path d="M21.692 61.4922C20.7729 61.3952 19.8959 61.1812 19.0849 60.8582C18.5709 60.6542 17.9899 60.9042 17.7859 61.4172C17.5819 61.9302 17.8319 62.5122 18.3449 62.7162C19.3249 63.1062 20.3809 63.3632 21.482 63.4812C21.518 63.4842 21.553 63.4862 21.588 63.4862C22.093 63.4862 22.527 63.1052 22.582 62.5912C22.639 62.0422 22.241 61.5502 21.692 61.4922Z" fill="#4E88A2"/>
<path d="M7.46325 22.7807C7.07325 23.1727 7.07525 23.8057 7.46626 24.1957C7.85826 24.5847 8.49126 24.5837 8.88126 24.1927L11.8683 21.1907V31.6198C11.8683 32.1718 12.3163 32.6198 12.8683 32.6198C13.4203 32.6198 13.8683 32.1718 13.8683 31.6198V21.1897L16.8553 24.1917C17.0503 24.3877 17.3073 24.4857 17.5643 24.4857C17.8193 24.4857 18.0743 24.3887 18.2703 24.1947C18.6613 23.8047 18.6633 23.1717 18.2733 22.7797L13.8683 18.3527V16.4697L16.8553 19.4717C17.0513 19.6677 17.3073 19.7657 17.5643 19.7657C17.8193 19.7657 18.0743 19.6687 18.2703 19.4747C18.6613 19.0847 18.6633 18.4517 18.2733 18.0597L13.8683 13.6327V12.1677L16.8553 15.1697C17.0513 15.3657 17.3073 15.4637 17.5643 15.4637C17.8193 15.4637 18.0743 15.3667 18.2703 15.1727C18.6613 14.7827 18.6633 14.1497 18.2733 13.7577L13.5773 9.03863C13.5773 9.03863 13.5763 9.03763 13.5753 9.03763C13.3943 8.85663 13.1443 8.74463 12.8683 8.74463C12.5923 8.74463 12.3423 8.85663 12.1613 9.03763C12.1613 9.03763 12.1603 9.03863 12.1593 9.03863L7.46325 13.7577C7.07325 14.1497 7.07525 14.7827 7.46626 15.1727C7.85926 15.5627 8.49126 15.5607 8.88126 15.1697L11.8683 12.1677V13.6327L7.46325 18.0597C7.07325 18.4517 7.07525 19.0847 7.46626 19.4747C7.85926 19.8647 8.49126 19.8627 8.88126 19.4717L11.8683 16.4697V18.3537L7.46325 22.7807Z" fill="#4E88A2"/>
<path d="M62.0804 47.2363C61.6904 47.6283 61.6924 48.2613 62.0834 48.6514C62.4754 49.0404 63.1074 49.0394 63.4985 48.6483L66.4855 45.6463V56.0754C66.4855 56.6274 66.9335 57.0754 67.4855 57.0754C68.0375 57.0754 68.4855 56.6274 68.4855 56.0754V45.6453L71.4725 48.6474C71.6685 48.8434 71.9245 48.9414 72.1815 48.9414C72.4365 48.9414 72.6915 48.8444 72.8875 48.6504C73.2785 48.2603 73.2805 47.6273 72.8905 47.2353L68.4855 42.8083V40.9243L71.4725 43.9263C71.6685 44.1223 71.9245 44.2203 72.1815 44.2203C72.4365 44.2203 72.6915 44.1233 72.8875 43.9293C73.2785 43.5393 73.2805 42.9063 72.8905 42.5143L68.4855 38.0873V36.6213L71.4725 39.6233C71.6685 39.8193 71.9245 39.9173 72.1815 39.9173C72.4365 39.9173 72.6915 39.8203 72.8875 39.6263C73.2785 39.2363 73.2805 38.6033 72.8905 38.2113L68.1945 33.4922C68.1945 33.4922 68.1935 33.4912 68.1925 33.4912C68.0115 33.3102 67.7615 33.1982 67.4855 33.1982C67.2095 33.1982 66.9595 33.3102 66.7785 33.4912C66.7785 33.4912 66.7775 33.4922 66.7765 33.4922L62.0804 38.2113C61.6904 38.6033 61.6924 39.2363 62.0834 39.6263C62.4754 40.0153 63.1074 40.0143 63.4985 39.6233L66.4855 36.6213V38.0873L62.0804 42.5143C61.6904 42.9063 61.6924 43.5393 62.0834 43.9293C62.4764 44.3193 63.1084 44.3173 63.4985 43.9263L66.4855 40.9243V42.8083L62.0804 47.2363Z" fill="#4E88A2"/>
</svg>
