<svg width="80" height="80" viewBox="0 0 80 80" fill="none" xmlns="http://www.w3.org/2000/svg">
<rect width="79.876" height="79.9994" fill="black" fill-opacity="0"/>
<path d="M43.572 50.1204C43.055 49.9344 42.479 50.2034 42.292 50.7224C41.92 51.7554 41.576 52.6434 41.239 53.4374C41.024 53.9454 41.261 54.5324 41.77 54.7484C41.897 54.8024 42.03 54.8284 42.16 54.8284C42.55 54.8284 42.92 54.5994 43.081 54.2184C43.432 53.3894 43.789 52.4684 44.174 51.4004C44.361 50.8804 44.091 50.3074 43.572 50.1204Z" fill="#4E88A2"/>
<path d="M46.5651 41.7576C46.7031 41.8236 46.8491 41.8546 46.9931 41.8546C47.3671 41.8546 47.7261 41.6436 47.8971 41.2836C48.3561 40.3156 48.8091 39.5226 49.2781 38.8606C49.5981 38.4106 49.4921 37.7866 49.0411 37.4666C48.5911 37.1476 47.9671 37.2526 47.6471 37.7036C47.1091 38.4616 46.6001 39.3516 46.0901 40.4266C45.8541 40.9246 46.0661 41.5206 46.5651 41.7576Z" fill="#4E88A2"/>
<path d="M34.8419 60.8572C34.0309 61.1802 33.1539 61.3942 32.2349 61.4912C31.6859 61.5502 31.2879 62.0422 31.3459 62.5912C31.4009 63.1042 31.8339 63.4862 32.3399 63.4862C32.3749 63.4862 32.4109 63.4842 32.4459 63.4812C33.5469 63.3642 34.6019 63.1062 35.5829 62.7162C36.0959 62.5112 36.3459 61.9302 36.1419 61.4172C35.9359 60.9032 35.3559 60.6532 34.8419 60.8572Z" fill="#4E88A2"/>
<path d="M40.9018 56.5046C40.4348 56.2086 39.8178 56.3466 39.5218 56.8116C39.3918 57.0166 39.2588 57.2146 39.1228 57.4056C38.7228 57.9686 38.2828 58.4816 37.8158 58.9296C37.4178 59.3126 37.4058 59.9456 37.7888 60.3436C37.9848 60.5476 38.2468 60.6506 38.5098 60.6506C38.7598 60.6506 39.0088 60.5576 39.2028 60.3716C39.7588 59.8366 40.2798 59.2296 40.7518 58.5656C40.9078 58.3466 41.0608 58.1196 41.2098 57.8846C41.5058 57.4186 41.3678 56.8006 40.9018 56.5046Z" fill="#4E88A2"/>
<path d="M79.876 4.05844C79.876 3.55144 79.497 3.12444 78.993 3.06544L53.034 0.00644331C52.995 0.00144331 52.957 0.017443 52.917 0.017443C52.877 0.017443 52.839 0.00144331 52.799 0.00644331L26.958 3.05144L1.117 0.00644331C0.835001 -0.0255567 0.549 0.0624436 0.335 0.252444C0.121 0.442444 0 0.713443 0 0.999443V75.9404C0 76.4474 0.379 76.8744 0.883 76.9334L26.841 79.9924C26.88 79.9974 26.919 79.9994 26.958 79.9994C26.997 79.9994 27.036 79.9974 27.075 79.9924L52.916 76.9474L78.758 79.9924C78.798 79.9974 78.837 79.9994 78.876 79.9994C79.12 79.9994 79.356 79.9104 79.541 79.7474C79.754 79.5574 79.876 79.2854 79.876 78.9994V4.05844ZM77.876 18.5794L77.352 18.5924C76.8 18.6054 76.363 19.0644 76.377 19.6164C76.39 20.1594 76.835 20.5924 77.376 20.5924C77.384 20.5924 77.393 20.5924 77.401 20.5924L77.877 20.5804V72.2214C77.118 72.4294 75.685 72.6464 74.026 71.9844C71.64 71.0324 69.657 68.6194 68.131 64.8124C64.657 56.1444 56.657 54.1324 53.918 53.6904V36.2144C54.136 36.1394 54.382 36.0534 54.681 35.9434C55.199 35.7514 55.463 35.1764 55.272 34.6584C55.08 34.1404 54.506 33.8784 53.987 34.0674C53.962 34.0764 53.943 34.0834 53.918 34.0924V2.12444L77.877 4.94744V18.5794H77.876ZM51.917 34.6064C51.642 34.6624 51.37 34.7334 51.106 34.8304C50.587 35.0194 50.321 35.5944 50.511 36.1134C50.659 36.5184 51.042 36.7704 51.45 36.7704C51.564 36.7704 51.68 36.7504 51.794 36.7084C51.834 36.6934 51.876 36.6874 51.917 36.6744V53.3494C50.443 52.9194 47.692 51.6744 45.129 48.1094C45.282 47.9924 45.406 47.8354 45.472 47.6394C45.791 46.6974 46.111 45.7624 46.44 44.8564C46.628 44.3374 46.36 43.7634 45.841 43.5754C45.324 43.3874 44.749 43.6554 44.56 44.1744C44.328 44.8134 44.103 45.4764 43.877 46.1364C43.278 45.0714 42.704 43.8584 42.178 42.4664C38.556 32.8854 30.824 31.6714 27.957 31.5634V4.94744L51.915 2.12444V34.6064H51.917ZM25.958 4.94744V31.5644C23.092 31.6734 15.359 32.8844 11.738 42.4674C11.212 43.8594 10.638 45.0724 10.039 46.1384C9.813 45.4784 9.588 44.8154 9.356 44.1764C9.168 43.6574 8.592 43.3884 8.075 43.5774C7.555 43.7654 7.287 44.3394 7.476 44.8584C7.805 45.7644 8.124 46.6994 8.444 47.6414C8.51 47.8374 8.635 47.9954 8.787 48.1114C6.223 51.6784 3.471 52.9234 1.999 53.3514V36.6744C2.039 36.6874 2.082 36.6934 2.122 36.7084C2.235 36.7504 2.351 36.7704 2.466 36.7704C2.874 36.7704 3.257 36.5194 3.405 36.1134C3.595 35.5944 3.329 35.0204 2.81 34.8304C2.547 34.7334 2.275 34.6624 1.999 34.6064V2.12444L25.958 4.94744ZM2 55.4124C4.252 54.8904 10.028 52.6504 13.609 43.1744C16.847 34.6084 23.525 33.6154 25.958 33.5484V61.1674C25.774 61.2144 25.567 61.2644 25.317 61.3144C24.775 61.4214 24.423 61.9474 24.53 62.4894C24.624 62.9654 25.042 63.2954 25.51 63.2954C25.574 63.2954 25.639 63.2894 25.705 63.2764C25.798 63.2584 25.871 63.2394 25.957 63.2204V77.8754L1.999 75.0524V55.4124H2ZM27.958 63.2194C28.044 63.2384 28.117 63.2574 28.21 63.2754C28.276 63.2884 28.341 63.2944 28.405 63.2944C28.873 63.2944 29.291 62.9644 29.385 62.4884C29.492 61.9464 29.14 61.4204 28.598 61.3134C28.349 61.2644 28.142 61.2144 27.957 61.1664V33.5554C30.385 33.6454 37.1 34.6884 40.307 43.1734C43.888 52.6494 49.664 54.8894 51.916 55.4114V75.0504L27.958 77.8734V63.2194V63.2194ZM53.917 75.0514V55.7284C56.543 56.2264 63.326 58.1984 66.274 65.5554C68.022 69.9154 70.397 72.7094 73.333 73.8604C74.411 74.2824 75.426 74.4244 76.303 74.4244C76.901 74.4244 77.43 74.3564 77.876 74.2694V77.8744L53.917 75.0514Z" fill="#4E88A2"/>
<path d="M57.7179 34.5505C57.8669 34.5505 58.0189 34.5175 58.1609 34.4465C59.0629 33.9985 59.9049 33.5285 60.6639 33.0465C61.1299 32.7505 61.2679 32.1325 60.9719 31.6665C60.6769 31.2005 60.0589 31.0625 59.5919 31.3585C58.8919 31.8025 58.1119 32.2395 57.2729 32.6555C56.7779 32.9015 56.5759 33.5015 56.8209 33.9955C56.9959 34.3475 57.3499 34.5505 57.7179 34.5505Z" fill="#4E88A2"/>
<path d="M63.0112 30.9194C63.2722 30.9194 63.5332 30.8174 63.7292 30.6154C64.5162 29.8034 65.1162 28.9544 65.5112 28.0924C65.7412 27.5904 65.5202 26.9964 65.0182 26.7664C64.5172 26.5344 63.9232 26.7564 63.6922 27.2594C63.3922 27.9144 62.9212 28.5744 62.2932 29.2224C61.9082 29.6184 61.9182 30.2524 62.3142 30.6364C62.5092 30.8254 62.7602 30.9194 63.0112 30.9194Z" fill="#4E88A2"/>
<path d="M65.6462 25.2037C65.8062 25.2987 65.9802 25.3427 66.1532 25.3427C66.4952 25.3427 66.8282 25.1667 67.0152 24.8507C67.4872 24.0527 67.9812 23.4057 68.5262 22.8727C68.9212 22.4867 68.9282 21.8537 68.5432 21.4587C68.1582 21.0627 67.5242 21.0567 67.1292 21.4417C66.4562 22.0997 65.8562 22.8817 65.2942 23.8337C65.0122 24.3107 65.1702 24.9227 65.6462 25.2037Z" fill="#4E88A2"/>
<path d="M70.96 21.2974C71.06 21.2974 71.162 21.2824 71.263 21.2504C71.965 21.0284 72.784 20.8714 73.768 20.7724C74.317 20.7164 74.718 20.2264 74.663 19.6764C74.607 19.1274 74.126 18.7294 73.567 18.7814C72.445 18.8954 71.493 19.0784 70.658 19.3434C70.132 19.5104 69.84 20.0724 70.007 20.5984C70.142 21.0254 70.536 21.2974 70.96 21.2974Z" fill="#4E88A2"/>
<path d="M6.01895 41.2827C6.18995 41.6437 6.54895 41.8537 6.92295 41.8537C7.06695 41.8537 7.21295 41.8227 7.35095 41.7567C7.84995 41.5197 8.06195 40.9237 7.82595 40.4247C7.31595 39.3507 6.80695 38.4597 6.26895 37.7017C5.94895 37.2507 5.32395 37.1457 4.87495 37.4647C4.42395 37.7847 4.31795 38.4087 4.63795 38.8587C5.10795 39.5217 5.55995 40.3147 6.01895 41.2827Z" fill="#4E88A2"/>
<path d="M12.677 53.4375C12.34 52.6435 11.996 51.7545 11.624 50.7225C11.436 50.2025 10.865 49.9345 10.344 50.1205C9.82403 50.3085 9.55503 50.8805 9.74203 51.4005C10.127 52.4675 10.484 53.3895 10.835 54.2185C10.997 54.5995 11.367 54.8285 11.756 54.8285C11.886 54.8285 12.018 54.8025 12.146 54.7485C12.655 54.5325 12.893 53.9455 12.677 53.4375Z" fill="#4E88A2"/>
<path d="M14.7929 57.4053C14.6569 57.2143 14.5239 57.0163 14.3939 56.8113C14.0979 56.3453 13.4799 56.2083 13.0139 56.5043C12.5479 56.8003 12.4099 57.4183 12.7069 57.8843C12.8559 58.1183 13.0079 58.3453 13.1639 58.5653C13.6369 59.2293 14.1579 59.8363 14.7139 60.3713C14.9079 60.5583 15.1579 60.6503 15.4069 60.6503C15.6689 60.6503 15.9309 60.5473 16.1279 60.3433C16.5109 59.9453 16.4989 59.3123 16.1009 58.9293C15.6329 58.4813 15.1939 57.9683 14.7929 57.4053Z" fill="#4E88A2"/>
<path d="M21.6822 61.4912C20.7632 61.3942 19.8862 61.1802 19.0752 60.8572C18.5612 60.6532 17.9802 60.9032 17.7762 61.4162C17.5722 61.9292 17.8222 62.5112 18.3352 62.7152C19.3152 63.1052 20.3712 63.3622 21.4722 63.4802C21.5082 63.4832 21.5432 63.4852 21.5782 63.4852C22.0832 63.4852 22.5172 63.1042 22.5722 62.5902C22.6292 62.0412 22.2312 61.5492 21.6822 61.4912Z" fill="#4E88A2"/>
<path d="M7.45691 22.7806C7.06691 23.1726 7.06891 23.8056 7.45991 24.1956C7.85191 24.5846 8.4849 24.5836 8.8749 24.1926L11.8619 21.1906V31.6196C11.8619 32.1716 12.3099 32.6196 12.8619 32.6196C13.4139 32.6196 13.8619 32.1716 13.8619 31.6196V21.1896L16.8489 24.1916C17.0439 24.3876 17.3009 24.4856 17.5579 24.4856C17.8129 24.4856 18.0679 24.3886 18.2639 24.1946C18.6549 23.8046 18.6569 23.1716 18.2669 22.7796L13.8619 18.3526V16.4696L16.8489 19.4716C17.0449 19.6676 17.3009 19.7656 17.5579 19.7656C17.8129 19.7656 18.0679 19.6686 18.2639 19.4746C18.6549 19.0846 18.6569 18.4516 18.2669 18.0596L13.8619 13.6326V12.1676L16.8489 15.1696C17.0449 15.3656 17.3009 15.4636 17.5579 15.4636C17.8129 15.4636 18.0679 15.3666 18.2639 15.1726C18.6549 14.7826 18.6569 14.1496 18.2669 13.7576L13.5709 9.03863C13.5709 9.03863 13.5699 9.03763 13.5689 9.03763C13.3879 8.85663 13.1379 8.74463 12.8619 8.74463C12.5859 8.74463 12.3359 8.85663 12.1549 9.03763C12.1549 9.03763 12.1539 9.03863 12.1529 9.03863L7.45691 13.7576C7.06691 14.1496 7.06891 14.7826 7.45991 15.1726C7.85291 15.5626 8.4849 15.5606 8.8749 15.1696L11.8619 12.1676V13.6326L7.45691 18.0596C7.06691 18.4516 7.06891 19.0846 7.45991 19.4746C7.85291 19.8646 8.4849 19.8626 8.8749 19.4716L11.8619 16.4696V18.3536L7.45691 22.7806Z" fill="#4E88A2"/>
<path d="M62.0692 47.2362C61.6792 47.6282 61.6812 48.2612 62.0722 48.6512C62.4642 49.0402 63.0962 49.0392 63.4872 48.6482L66.4742 45.6462V56.0752C66.4742 56.6272 66.9222 57.0752 67.4742 57.0752C68.0262 57.0752 68.4742 56.6272 68.4742 56.0752V45.6452L71.4612 48.6472C71.6572 48.8432 71.9132 48.9412 72.1702 48.9412C72.4252 48.9412 72.6802 48.8442 72.8762 48.6502C73.2672 48.2602 73.2692 47.6272 72.8792 47.2352L68.4742 42.8082V40.9242L71.4612 43.9262C71.6572 44.1222 71.9132 44.2202 72.1702 44.2202C72.4252 44.2202 72.6802 44.1232 72.8762 43.9292C73.2672 43.5392 73.2692 42.9062 72.8792 42.5142L68.4742 38.0872V36.6212L71.4612 39.6232C71.6572 39.8192 71.9132 39.9172 72.1702 39.9172C72.4252 39.9172 72.6802 39.8202 72.8762 39.6262C73.2672 39.2362 73.2692 38.6032 72.8792 38.2112L68.1832 33.4922C68.1832 33.4922 68.1822 33.4912 68.1812 33.4912C68.0002 33.3102 67.7502 33.1982 67.4742 33.1982C67.1982 33.1982 66.9482 33.3102 66.7672 33.4912C66.7672 33.4912 66.7662 33.4922 66.7652 33.4922L62.0692 38.2112C61.6792 38.6032 61.6812 39.2362 62.0722 39.6262C62.4642 40.0152 63.0962 40.0142 63.4872 39.6232L66.4742 36.6212V38.0872L62.0692 42.5142C61.6792 42.9062 61.6812 43.5392 62.0722 43.9292C62.4652 44.3192 63.0972 44.3172 63.4872 43.9262L66.4742 40.9242V42.8082L62.0692 47.2362Z" fill="#4E88A2"/>
</svg>
