<svg width="131" height="131" viewBox="0 0 131 131" fill="none" xmlns="http://www.w3.org/2000/svg">
<rect width="131" height="131" fill="black" fill-opacity="0"/>
<path fill-rule="evenodd" clip-rule="evenodd" d="M65.5 131C101.675 131 131 101.675 131 65.5C131 29.3252 101.675 0 65.5 0C29.3252 0 0 29.3252 0 65.5C0 101.675 29.3252 131 65.5 131ZM86.6001 22H89.6001C93.7998 22 97.2002 25.5 97.1001 29.7002V94.6001C97.1001 101.5 93.1001 107.7 86.7998 110.5L86.1001 110.8C84.1001 111.6 81.8999 112 79.7002 112H49.3999C47.2002 112 45 111.6 43 110.8L42.2998 110.5C36 107.7 32 101.5 32 94.6001V29.6001C32 25.3999 35.3999 22 39.6001 22H42.6001C45.2002 22 47.7002 23.2998 49 25.6001L54.8999 35H74.2998L80.1001 25.6001C81.5 23.2998 84 22 86.6001 22ZM86.6001 25.6001C85.2002 25.6001 83.8999 26.2998 83.2002 27.5L78.5 35H79.7998C85.3999 35 90.3999 37.7002 93.6001 41.8999V29.6001C93.6001 27.3999 91.7998 25.6001 89.6001 25.6001H86.6001ZM84.1001 65.2002C85.3999 65.2002 86.7002 65.5 87.7002 66.2002C87.7437 66.2002 88.604 66.8081 89.6685 67.5601C91.0464 68.5332 92.7666 69.7485 93.5 70.2002V67.1001C93.5 65.7002 93.2998 64.2998 92.7998 63C91.1001 58.5 86.7998 55.5 82 55.5C78.5 55.5 75.2998 57.1001 73.1001 59.7002L75 69.8999C76.7998 68.7002 80.5 66.2002 80.5 66.2002C81.6001 65.6001 82.7998 65.2002 84.1001 65.2002ZM84.2002 75.7998C86.2002 75.7998 87.7998 74.2002 87.7998 72.2002C87.7998 70.2002 86.1001 68.6001 84.2002 68.6001C82.2002 68.6001 80.6001 70.2002 80.6001 72.2002C80.6001 74.2002 82.2002 75.7998 84.2002 75.7998ZM70.6001 95.3999L74.7998 88.5L70.6001 65.2002V95.3999ZM82 46.2002C77.7002 46.2002 73.7998 48.6001 71.7998 52.3999L72.3999 55.5C75.1001 53.2998 78.5 52 82.1001 52C86.6001 52 90.7998 54 93.5 57.3999C93.2998 51.2002 88.2002 46.2002 82 46.2002ZM92.2002 46.5C90 41.7998 85.2998 38.6001 79.7998 38.6001H49.5C44.1001 38.6001 39.2998 41.8999 37.1001 46.5C39.7998 44 43.3999 42.5 47.2998 42.5C51.6001 42.5 55.6001 44.2998 58.3999 47.3999L58.7998 45C59 44.1001 59.7002 43.5 60.6001 43.5H68.7998C69.7002 43.5 70.5 44.1001 70.6001 45L70.8999 47.3999C73.7002 44.2998 77.7002 42.5 82 42.5C85.8999 42.5 89.5 44 92.2002 46.5ZM62.3999 47.1001V101.4H66.8999V47.1001H62.3999ZM58.6001 65.2002L54.3999 88.3999L58.6001 95.2002V65.2002ZM54.1001 101.4H58L55.7998 97.7998H54.1001V101.4ZM39.6001 25.6001C37.2998 25.6001 35.6001 27.3999 35.6001 29.6001V41.8999C38.7998 37.7002 43.7998 35 49.3999 35H50.7002L46 27.5C45.2998 26.2998 44 25.6001 42.6001 25.6001H39.6001ZM57.2998 52.2998C55.2998 48.5 51.3999 46.1001 47.1001 46.1001C40.8999 46.1001 35.7998 51.1001 35.6001 57.2998C38.3999 54 42.6001 52 47.1001 52C50.7002 52 54.1001 53.2998 56.7998 55.5L57.2998 52.2998ZM49.2998 108.6H50.5V105H42.2002C42.5 106 43.2002 106.9 44.1001 107.6C45.7998 108.2 47.5 108.6 49.2998 108.6ZM42.2002 101.4H50.5V97.7998H47.2998C44.8999 97.7998 42.8999 99.2998 42.2002 101.4ZM38.3999 103.2C38.3999 98.2998 42.3999 94.2998 47.2998 94.2998H53.6001L51.7998 91.2998C50.2998 91.7998 48.7002 92 47.1001 92C42.5 92 38.3999 89.8999 35.6001 86.6001V94.7998C35.6001 97.8999 36.6001 100.8 38.3999 103.2ZM45.1001 79C43.7998 79 42.5 78.7002 41.5 78C41.5 78 37.2998 75.1001 35.7002 74V76.8999C35.7002 83.2002 40.7998 88.3999 47.2002 88.3999C48.5 88.3999 49.7998 88.1001 51 87.7002L53.2998 74.8999C51.3999 76.1001 48.7002 78 48.7002 78C47.6001 78.6001 46.3999 79 45.1001 79ZM45 68.6001C43 68.6001 41.3999 70.2002 41.3999 72.2002C41.3999 74.2002 43 75.7998 45 75.7998C47 75.7998 48.6001 74.2002 48.6001 72.2002C48.6001 70.2002 47 68.6001 45 68.6001ZM45 65.2002C46.3999 65.2002 47.6001 65.6001 48.5 66.2998C48.5 66.2998 52.2998 68.8999 54 70L55.8999 59.7002C53.7002 57.1001 50.3999 55.5 47 55.5C42.2002 55.5 37.8999 58.5 36.2002 63C35.7998 64.2998 35.5 65.7002 35.5 67.1001V70.2002C37 69.2002 41.3999 66.2002 41.3999 66.2002C42.5 65.6001 43.7002 65.2002 45 65.2002ZM62.7998 105H54.1001V108.6H62.7998V105ZM66.3999 108.6H75V105H66.3999V108.6ZM71.2002 101.4H75.1001V97.7998H73.3999L71.2002 101.4ZM79.8999 108.6C81.7002 108.6 83.5 108.3 85.1001 107.6C86 106.9 86.6001 106 87 105H78.7002V108.6H79.8999ZM78.7002 97.7998V101.4H87C86.2002 99.2998 84.2002 97.7998 81.8999 97.7998H78.7002ZM90.7998 103.1C92.6001 100.8 93.6001 97.8999 93.6001 94.7998V86.5C90.8999 89.7998 86.7002 91.8999 82.1001 91.8999C80.5 91.8999 78.8999 91.7002 77.3999 91.2002L75.6001 94.2002H81.8999C86.7998 94.2002 90.7998 98.2002 90.7998 103.1ZM82.2002 88.2002C88.5 88.2002 93.7002 83.1001 93.7002 76.7002V73.8999C92.2002 74.8999 87.7998 77.8999 87.7998 77.8999C86.7002 78.5 85.5 78.8999 84.2002 78.8999C82.8999 78.8999 81.7002 78.6001 80.6001 77.8999C80.6001 77.8999 77.8999 76.1001 76 74.7998L78.2998 87.6001C79.5 88.1001 80.7998 88.2998 82.2002 88.2002Z" fill="#4E88A2"/>
</svg>
