<svg width="99" height="99" viewBox="0 0 99 99" fill="none" xmlns="http://www.w3.org/2000/svg">
<path fill-rule="evenodd" clip-rule="evenodd" d="M49.5 99C76.8381 99 99 76.8381 99 49.5C99 22.1619 76.8381 0 49.5 0C22.1619 0 0 22.1619 0 49.5C0 76.8381 22.1619 99 49.5 99ZM65.4458 16.626H67.713C70.887 16.626 73.4565 19.271 73.3809 22.445V71.4916C73.3809 76.7061 70.358 81.3916 65.5969 83.5076L65.0679 83.7344C63.5565 84.3389 61.8939 84.6412 60.2313 84.6412H37.3328C35.6702 84.6412 34.0076 84.3389 32.4962 83.7344L31.9672 83.5076C27.2061 81.3916 24.1832 76.7061 24.1832 71.4916V22.3695C24.1832 19.1954 26.7527 16.626 29.9267 16.626H32.1939C34.1588 16.626 36.0481 17.6084 37.0305 19.3466L41.4893 26.4504H56.1504L60.5336 19.3466C61.5916 17.6084 63.4809 16.626 65.4458 16.626ZM65.4458 19.3466C64.3878 19.3466 63.4053 19.8756 62.8763 20.7824L59.3244 26.4504H60.3069C64.5389 26.4504 68.3176 28.4908 70.7359 31.6649V22.3695C70.7359 20.7069 69.3756 19.3466 67.713 19.3466H65.4458ZM63.5565 49.2733C64.5389 49.2733 65.5214 49.5 66.2771 50.029C66.31 50.029 66.9601 50.4883 67.7645 51.0566C68.8059 51.7923 70.106 52.7108 70.6603 53.0519V50.7092C70.6603 49.6511 70.5092 48.5931 70.1313 47.6107C68.8466 44.2099 65.5969 41.9427 61.9695 41.9427C59.3244 41.9427 56.9061 43.1519 55.2435 45.1168L56.6794 52.8252C58.0397 51.9183 60.8359 50.029 60.8359 50.029C61.6672 49.5756 62.574 49.2733 63.5565 49.2733ZM63.6321 57.284C65.1435 57.284 66.3527 56.0748 66.3527 54.5634C66.3527 53.0519 65.0679 51.8427 63.6321 51.8427C62.1206 51.8427 60.9114 53.0519 60.9114 54.5634C60.9114 56.0748 62.1206 57.284 63.6321 57.284ZM53.3542 72.0962L56.5282 66.8817L53.3542 49.2733V72.0962ZM61.9695 34.9145C58.7198 34.9145 55.7725 36.7282 54.2611 39.6L54.7145 41.9427C56.755 40.2802 59.3244 39.2977 62.045 39.2977C65.4458 39.2977 68.6198 40.8092 70.6603 43.3786C70.5092 38.6931 66.655 34.9145 61.9695 34.9145ZM69.6779 35.1412C68.0153 31.5893 64.4634 29.171 60.3069 29.171H37.4084C33.3275 29.171 29.7 31.6649 28.0374 35.1412C30.0779 33.2519 32.7985 32.1183 35.7458 32.1183C38.9954 32.1183 42.0183 33.4786 44.1343 35.8214L44.4366 34.0076C44.5878 33.3275 45.1168 32.874 45.7969 32.874H51.9939C52.674 32.874 53.2786 33.3275 53.3542 34.0076L53.5809 35.8214C55.6969 33.4786 58.7198 32.1183 61.9695 32.1183C64.9168 32.1183 67.6374 33.2519 69.6779 35.1412ZM47.1572 35.5947V76.6305H50.558V35.5947H47.1572ZM44.2855 49.2733L41.1115 66.8061L44.2855 71.945V49.2733ZM40.8847 76.6305H43.8321L42.1695 73.9099H40.8847V76.6305ZM29.9267 19.3466C28.1886 19.3466 26.9038 20.7069 26.9038 22.3695V31.6649C29.3221 28.4908 33.1008 26.4504 37.3328 26.4504H38.3153L34.7634 20.7824C34.2344 19.8756 33.2519 19.3466 32.1939 19.3466H29.9267ZM43.3031 39.5244C41.7916 36.6527 38.8443 34.8389 35.5947 34.8389C30.9092 34.8389 27.055 38.6176 26.9038 43.3031C29.0198 40.8092 32.1939 39.2977 35.5947 39.2977C38.3153 39.2977 40.8847 40.2802 42.9252 41.9427L43.3031 39.5244ZM37.2573 82.0718H38.1641V79.3511H31.8916C32.1183 80.1069 32.6473 80.787 33.3275 81.316C34.6122 81.7695 35.8969 82.0718 37.2573 82.0718ZM31.8916 76.6305H38.1641V73.9099H35.7458C33.9321 73.9099 32.4206 75.0435 31.8916 76.6305ZM29.0198 77.9908C29.0198 74.2878 32.0427 71.2649 35.7458 71.2649H40.5069L39.1466 68.9977C38.013 69.3756 36.8038 69.5267 35.5947 69.5267C32.1183 69.5267 29.0198 67.9397 26.9038 65.4458V71.6428C26.9038 73.9855 27.6595 76.1771 29.0198 77.9908ZM34.0832 59.7023C33.1008 59.7023 32.1183 59.4756 31.3626 58.9466C31.3626 58.9466 28.1886 56.755 26.9794 55.9237V58.1153C26.9794 62.8763 30.8336 66.8061 35.6702 66.8061C36.6527 66.8061 37.6351 66.5794 38.542 66.2771L40.2802 56.6038C38.8443 57.5107 36.8038 58.9466 36.8038 58.9466C35.9725 59.4 35.0656 59.7023 34.0832 59.7023ZM34.0076 51.8427C32.4962 51.8427 31.287 53.0519 31.287 54.5634C31.287 56.0748 32.4962 57.284 34.0076 57.284C35.5191 57.284 36.7282 56.0748 36.7282 54.5634C36.7282 53.0519 35.5191 51.8427 34.0076 51.8427ZM34.0076 49.2733C35.0656 49.2733 35.9725 49.5756 36.6527 50.1046C36.6527 50.1046 39.5244 52.0695 40.8092 52.9008L42.245 45.1168C40.5824 43.1519 38.0886 41.9427 35.5191 41.9427C31.8916 41.9427 28.642 44.2099 27.3573 47.6107C27.055 48.5931 26.8282 49.6511 26.8282 50.7092V53.0519C27.9618 52.2962 31.287 50.029 31.287 50.029C32.1183 49.5756 33.0252 49.2733 34.0076 49.2733ZM47.4595 79.3511H40.8847V82.0718H47.4595V79.3511ZM50.1802 82.0718H56.6794V79.3511H50.1802V82.0718ZM53.8076 76.6305H56.755V73.9099H55.4702L53.8076 76.6305ZM60.3824 82.0718C61.7427 82.0718 63.1031 81.845 64.3122 81.316C64.9924 80.787 65.4458 80.1069 65.7481 79.3511H59.4756V82.0718H60.3824ZM59.4756 73.9099V76.6305H65.7481C65.1435 75.0435 63.6321 73.9099 61.8939 73.9099H59.4756ZM68.6198 77.9153C69.9801 76.1771 70.7359 73.9855 70.7359 71.6428V65.3702C68.6954 67.8641 65.5214 69.4511 62.045 69.4511C60.8359 69.4511 59.6267 69.3 58.4931 68.9221L57.1328 71.1893H61.8939C65.5969 71.1893 68.6198 74.2122 68.6198 77.9153ZM62.1206 66.655C66.8817 66.655 70.8114 62.8008 70.8114 57.9641V55.8481C69.6779 56.6038 66.3527 58.871 66.3527 58.871C65.5214 59.3244 64.6145 59.6267 63.6321 59.6267C62.6496 59.6267 61.7427 59.4 60.9114 58.871C60.9114 58.871 58.871 57.5107 57.4351 56.5282L59.1733 66.2015C60.0802 66.5794 61.0626 66.7305 62.1206 66.655Z" fill="#4E88A2"/>
</svg>
