<svg width="56" height="80" viewBox="0 0 56 80" fill="none" xmlns="http://www.w3.org/2000/svg">
<rect width="56" height="79.9999" fill="black" fill-opacity="0"/>
<path d="M16.21 37.8882C16.8962 38.417 17.8607 38.3096 18.4719 37.6956V37.6956C19.3143 36.8495 19.1267 35.4353 18.2001 34.6824C16.7109 33.4723 15.4516 31.9919 14.4915 30.3114C13.1392 27.9446 12.4277 25.2633 12.4277 22.5344C12.4277 19.8054 13.1392 17.1241 14.4915 14.7573C15.451 13.0778 16.7094 11.5982 18.1974 10.3885C19.1277 9.63226 19.321 8.21471 18.481 7.35929V7.35929C17.8654 6.73252 16.8868 6.62017 16.1916 7.1572C14.0552 8.80749 12.2822 10.8929 10.9926 13.2826C9.46284 16.1175 8.66162 19.2911 8.66162 22.5156C8.66162 25.7401 9.46284 28.9137 10.9926 31.7486C12.2859 34.1452 14.0654 36.2357 16.21 37.8882Z" fill="#4E88A2"/>
<path d="M43.5553 22.5C43.5544 25.2308 42.8409 27.9137 41.4861 30.2813C40.5283 31.955 39.2736 33.4298 37.7907 34.6364C36.8545 35.3981 36.664 36.828 37.5155 37.6833V37.6833C38.1337 38.3042 39.1096 38.4122 39.8023 37.8757C41.9345 36.2246 43.7036 34.1398 44.9901 31.7516C46.5155 28.9199 47.3143 25.7509 47.3143 22.5312C47.3143 19.3115 46.5155 16.1426 44.9901 13.3108C43.7012 10.9183 41.928 8.83014 39.7905 7.17762C39.1042 6.64701 38.1381 6.75385 37.526 7.36864V7.36864C36.6842 8.21426 36.8708 9.62744 37.796 10.3809C39.2797 11.5892 40.5345 13.066 41.4918 14.7417C42.8408 17.1031 43.5521 19.7775 43.5553 22.5Z" fill="#4E88A2"/>
<path d="M9.93654 43.9896C10.6438 44.5895 11.6872 44.5105 12.3415 43.8533V43.8533C13.149 43.0422 13.0337 41.7037 12.1674 40.9556C9.80489 38.9157 7.85084 36.4325 6.41884 33.6379C4.65358 30.1929 3.73265 26.3745 3.73265 22.5C3.73265 18.6255 4.65358 14.807 6.41884 11.3621C7.85084 8.56748 9.80489 6.08424 12.1674 4.04429C13.0337 3.29628 13.149 1.9577 12.3415 1.14659V1.14659C11.6872 0.489393 10.6438 0.41048 9.93654 1.01029C7.03578 3.47037 4.65887 6.50124 2.95604 9.9221C1.01206 13.8274 0 18.1337 0 22.5C0 26.8662 1.01206 31.1725 2.95604 35.0778C4.65887 38.4987 7.03578 41.5296 9.93654 43.9896Z" fill="#4E88A2"/>
<path d="M46.0634 1.01029C45.3561 0.41048 44.3127 0.489393 43.6584 1.14659V1.14659C42.8509 1.9577 42.9662 3.29628 43.8325 4.04429C46.1951 6.08424 48.1491 8.56748 49.5811 11.3621C51.3464 14.807 52.2673 18.6255 52.2673 22.5C52.2673 26.3745 51.3464 30.1929 49.5811 33.6379C48.1491 36.4325 46.1951 38.9157 43.8325 40.9556C42.9663 41.7037 42.8509 43.0422 43.6584 43.8533V43.8533C44.3127 44.5105 45.3561 44.5895 46.0634 43.9896C48.9642 41.5296 51.3411 38.4987 53.0439 35.0778C54.9879 31.1725 55.9999 26.8662 55.9999 22.5C55.9999 18.1337 54.9879 13.8274 53.0439 9.9221C51.3411 6.50124 48.9642 3.47037 46.0634 1.01029Z" fill="#4E88A2"/>
<path d="M36.7113 22.4999C36.7131 20.8629 36.2577 19.2583 35.3969 17.8683C34.536 16.4784 33.3043 15.3589 31.8416 14.637C30.379 13.9151 28.7441 13.6199 27.1227 13.7847C25.5013 13.9496 23.9585 14.5681 22.6695 15.5698C21.3806 16.5715 20.3973 17.9163 19.8313 19.4514C19.2653 20.9864 19.1394 22.6502 19.4678 24.2536C19.7962 25.8569 20.5658 27.3356 21.6891 28.5215C22.8125 29.7075 24.2445 30.5531 25.8224 30.9624V78.1332C25.8224 79.1642 26.6581 79.9999 27.6891 79.9999V79.9999C28.72 79.9999 29.5557 79.1642 29.5557 78.1332V31.1061C31.5629 30.7402 33.3786 29.6783 34.6863 28.1056C35.9939 26.5328 36.7106 24.549 36.7113 22.4999ZM28.0002 27.9686C26.9234 27.9686 25.8707 27.6479 24.9754 27.047C24.0801 26.4461 23.3822 25.592 22.9702 24.5927C22.5581 23.5934 22.4503 22.4938 22.6603 21.433C22.8704 20.3721 23.3889 19.3977 24.1504 18.6329C24.9118 17.8681 25.8819 17.3472 26.938 17.1362C27.9941 16.9252 29.0888 17.0335 30.0837 17.4474C31.0785 17.8613 31.9288 18.5623 32.5271 19.4616C33.1253 20.3609 33.4446 21.4183 33.4446 22.4999C33.443 23.9498 32.8688 25.3398 31.8482 26.365C30.8275 27.3903 29.4436 27.967 28.0002 27.9686Z" fill="#4E88A2"/>
</svg>
