<svg width="57" height="81" viewBox="0 0 57 81" fill="none" xmlns="http://www.w3.org/2000/svg">
<path d="M16.607 38.2061C17.2932 38.7349 18.2577 38.6275 18.8689 38.0135V38.0135C19.7113 37.1674 19.5237 35.7532 18.5971 35.0003C17.1079 33.7902 15.8485 32.3098 14.8884 30.6293C13.5362 28.2625 12.8247 25.5812 12.8247 22.8522C12.8247 20.1233 13.5362 17.442 14.8884 15.0751C15.848 13.3956 17.1064 11.9161 18.5944 10.7064C19.5247 9.95014 19.718 8.53258 18.8779 7.67716V7.67716C18.2624 7.05039 17.2838 6.93804 16.5886 7.47507C14.4522 9.12536 12.6792 11.2107 11.3896 13.6005C9.85981 16.4354 9.05859 19.609 9.05859 22.8335C9.05859 26.058 9.85981 29.2316 11.3896 32.0665C12.6829 34.4631 14.4624 36.5536 16.607 38.2061Z" fill="#4E88A2"/>
<path d="M43.9523 22.8169C43.9513 25.5477 43.2379 28.2306 41.8831 30.5982C40.9253 32.2719 39.6706 33.7467 38.1877 34.9533C37.2515 35.715 37.061 37.1449 37.9125 38.0002V38.0002C38.5307 38.6211 39.5065 38.7291 40.1993 38.1927C42.3315 36.5416 44.1006 34.4567 45.3871 32.0685C46.9125 29.2368 47.7113 26.0678 47.7113 22.8481C47.7113 19.6284 46.9125 16.4595 45.3871 13.6277C44.0982 11.2352 42.325 9.14704 40.1875 7.49452C39.5012 6.9639 38.5351 7.07074 37.923 7.68554V7.68554C37.0812 8.53115 37.2677 9.94434 38.193 10.6978C39.6767 11.9061 40.9315 13.3829 41.8888 15.0586C43.2378 17.42 43.9491 20.0944 43.9523 22.8169Z" fill="#4E88A2"/>
<path d="M10.335 44.3071C11.0423 44.9069 12.0857 44.828 12.7399 44.1708V44.1708C13.5475 43.3597 13.4321 42.0211 12.5659 41.2731C10.2033 39.2331 8.24928 36.7499 6.81728 33.9553C5.05202 30.5104 4.1311 26.6919 4.1311 22.8174C4.1311 18.9429 5.05202 15.1244 6.81728 11.6794C8.24928 8.88487 10.2033 6.40163 12.5659 4.36168C13.4321 3.61367 13.5475 2.27509 12.74 1.46398V1.46398C12.0857 0.806776 11.0423 0.727863 10.335 1.32768C7.43423 3.78775 5.05731 6.81863 3.35448 10.2395C1.4105 14.1448 0.398438 18.4511 0.398438 22.8174C0.398437 27.1836 1.4105 31.4899 3.35448 35.3953C5.05731 38.8161 7.43423 41.847 10.335 44.3071Z" fill="#4E88A2"/>
<path d="M46.4609 1.32768C45.7536 0.727863 44.7102 0.806777 44.0559 1.46398V1.46398C43.2484 2.27509 43.3637 3.61367 44.23 4.36168C46.5925 6.40163 48.5466 8.88487 49.9786 11.6794C51.7438 15.1244 52.6648 18.9429 52.6648 22.8174C52.6648 26.6919 51.7438 30.5104 49.9786 33.9553C48.5466 36.7499 46.5925 39.2331 44.23 41.2731C43.3637 42.0211 43.2484 43.3597 44.0559 44.1708V44.1708C44.7102 44.828 45.7536 44.9069 46.4609 44.3071C49.3616 41.847 51.7385 38.8161 53.4414 35.3953C55.3854 31.4899 56.3974 27.1836 56.3974 22.8174C56.3974 18.4511 55.3854 14.1448 53.4414 10.2395C51.7385 6.81863 49.3616 3.78775 46.4609 1.32768Z" fill="#4E88A2"/>
<path d="M37.1097 22.8173C37.1115 21.1803 36.6561 19.5757 35.7953 18.1857C34.9345 16.7958 33.7028 15.6762 32.2401 14.9544C30.7774 14.2325 29.1425 13.9372 27.5211 14.1021C25.8997 14.267 24.3569 14.8855 23.068 15.8872C21.779 16.8889 20.7957 18.2337 20.2297 19.7688C19.6637 21.3038 19.5378 22.9676 19.8662 24.5709C20.1946 26.1743 20.9642 27.653 22.0876 28.8389C23.2109 30.0249 24.6429 30.8705 26.2208 31.2798V78.4507C26.2208 79.4816 27.0566 80.3174 28.0875 80.3174V80.3174C29.1184 80.3174 29.9542 79.4816 29.9542 78.4507V31.4235C31.9614 31.0576 33.7771 29.9957 35.0847 28.423C36.3924 26.8502 37.109 24.8664 37.1097 22.8173ZM28.3986 28.286C27.3218 28.286 26.2692 27.9653 25.3738 27.3644C24.4785 26.7635 23.7807 25.9094 23.3686 24.9101C22.9565 23.9108 22.8487 22.8112 23.0588 21.7504C23.2689 20.6895 23.7874 19.7151 24.5488 18.9503C25.3102 18.1855 26.2803 17.6646 27.3365 17.4536C28.3926 17.2426 29.4873 17.3509 30.4821 17.7648C31.477 18.1787 32.3273 18.8797 32.9255 19.779C33.5238 20.6783 33.8431 21.7357 33.8431 22.8173C33.8414 24.2672 33.2673 25.6572 32.2466 26.6824C31.2259 27.7077 29.8421 28.2844 28.3986 28.286Z" fill="#4E88A2"/>
</svg>
