<svg width="99" height="99" viewBox="0 0 99 99" fill="none" xmlns="http://www.w3.org/2000/svg">
<path fill-rule="evenodd" clip-rule="evenodd" d="M49.5 99C76.8381 99 99 76.8381 99 49.5C99 22.1619 76.8381 0 49.5 0C22.1619 0 0 22.1619 0 49.5C0 76.8381 22.1619 99 49.5 99ZM74.3001 47.733H77.3569C79.7075 47.733 81.6206 49.6353 81.6183 51.9726V72.3483C81.6183 73.2938 80.8467 74.0611 79.8959 74.0611H19.8599C18.9079 74.0611 18.1374 73.2938 18.1374 72.3483V51.9737C18.1374 49.6364 20.0493 47.7342 22.4011 47.7342H27.0138C27.8337 46.9897 29.663 45.0509 29.8479 42.451C30.0121 40.1502 28.8592 37.7547 26.4259 35.334L26.4248 35.3329L24.9182 33.8359C24.5955 33.5139 24.4141 33.0778 24.4141 32.6245C24.4141 32.1689 24.5955 31.7338 24.9182 31.413L29.3886 26.9679C30.0615 26.2988 31.1512 26.2988 31.8241 26.9679L52.6717 47.693C52.6843 47.7067 52.6947 47.7204 52.7085 47.733H64.3098V44.6707C62.4886 43.1897 61.4264 40.9906 61.4264 38.6167C61.4264 34.2972 64.9598 30.7827 69.3038 30.7827C73.649 30.7827 77.1847 34.2972 77.1847 38.6167C77.1847 40.9906 76.1225 43.1897 74.3001 44.6695V47.733ZM73.7386 38.6167C73.7386 36.1858 71.7486 34.2082 69.3027 34.2082C66.8579 34.2082 64.8702 36.1869 64.8691 38.6179C64.8691 40.1376 65.6465 41.5329 66.9486 42.3482C66.9495 42.3487 66.9513 42.3498 66.9541 42.3515C67.0176 42.3902 67.5784 42.7326 68.2635 42.9054C69.1833 43.1406 69.7563 44.0529 69.5335 44.9732C69.344 45.7577 68.639 46.284 67.8604 46.284C67.84 46.284 67.8192 46.281 67.7985 46.2781C67.7831 46.2758 67.7677 46.2736 67.7525 46.2726V47.733H70.854V43.796C70.854 43.2068 71.1572 42.6588 71.659 42.3459C72.9612 41.5306 73.7386 40.1365 73.7386 38.6167ZM30.6058 30.6023L28.5721 32.6245L43.7689 47.7342H47.8396L30.6058 30.6023ZM31.5049 47.733H38.8989L33.3066 42.1735C33.3043 42.3596 33.2974 42.5457 33.2836 42.733C33.1309 44.738 32.3684 46.4245 31.5049 47.733ZM66.2252 54.6821H78.1745V51.9726C78.1745 51.5238 77.8082 51.1585 77.3558 51.1585H22.4022C21.9498 51.1585 21.5835 51.5238 21.5835 51.9726V54.6821H54.3264C55.2772 54.6821 56.0489 55.4494 56.0489 56.3949C56.0489 57.3403 55.2772 58.1076 54.3264 58.1076H21.5835V70.6345H78.1745V58.1076H66.2252C65.2744 58.1076 64.5027 57.3403 64.5027 56.3949C64.5027 55.4494 65.2744 54.6821 66.2252 54.6821ZM52.2009 39.6489C51.869 39.9538 51.4499 40.1034 51.0319 40.1034C50.568 40.1034 50.1052 39.9184 49.7665 39.5553C42.7423 31.9999 42.4127 24.3668 44.4464 19.7413C45.9059 16.4209 48.6308 14.3588 51.5601 14.3588C54.4413 14.3588 57.358 16.4803 57.358 20.5372C57.358 24.4627 54.1611 26.4335 52.4696 26.9279C51.5578 27.1905 50.6002 26.6744 50.3314 25.7667C50.0639 24.8589 50.5875 23.9067 51.5004 23.6406C51.7347 23.5676 53.9142 22.8208 53.9142 20.5372C53.9142 18.5059 52.6464 17.7842 51.5613 17.7842C50.0467 17.7842 48.493 19.0905 47.6031 21.1126C46.0058 24.7448 46.3996 30.8866 52.2962 37.2294C52.9427 37.9225 52.8991 39.0061 52.2009 39.6489Z" fill="#4E88A2"/>
</svg>
