<svg width="131" height="131" viewBox="0 0 131 131" fill="none" xmlns="http://www.w3.org/2000/svg">
<path fill-rule="evenodd" clip-rule="evenodd" d="M65.5 131C101.675 131 131 101.675 131 65.5C131 29.3252 101.675 0 65.5 0C29.3252 0 0 29.3252 0 65.5C0 101.675 29.3252 131 65.5 131ZM98.3164 63.1621H102.361C105.472 63.1621 108.003 65.6787 108 68.7715V95.7334C108 96.9844 106.979 98 105.721 98H26.2793C25.0195 98 24 96.9844 24 95.7334V68.7734C24 65.6807 26.5298 63.1631 29.6416 63.1631H35.7456C36.8306 62.1787 39.251 59.6123 39.4956 56.1724C39.7129 53.1279 38.1875 49.958 34.9663 46.7534L32.9727 44.7729C32.5454 44.3467 32.3057 43.7695 32.3057 43.1699C32.3057 42.5669 32.5454 41.9912 32.9727 41.5669L38.8877 35.6846C39.7783 34.7993 41.2202 34.7993 42.1108 35.6846L69.6968 63.1094L69.7144 63.1289C69.7241 63.1406 69.7339 63.1514 69.7456 63.1621H85.0967V59.1094C82.687 57.1499 81.2812 54.2402 81.2812 51.0991C81.2812 45.3833 85.957 40.7329 91.7051 40.7329C97.4546 40.7329 102.133 45.3833 102.133 51.0991C102.133 54.2402 100.728 57.1499 98.3164 59.1084V63.1621ZM97.5732 51.0991C97.5732 47.8823 94.9399 45.2651 91.7036 45.2651C88.4688 45.2651 85.8384 47.8838 85.8369 51.1006C85.8369 53.1113 86.8657 54.9575 88.5884 56.0366L88.5957 56.041C88.6792 56.0923 89.4219 56.5454 90.3286 56.7739C91.5454 57.085 92.3037 58.2925 92.0088 59.5098C91.7583 60.5479 90.8252 61.2441 89.7949 61.2441C89.7681 61.2441 89.7407 61.2402 89.7129 61.2363C89.6929 61.2334 89.6724 61.2305 89.6523 61.2295V63.1621H93.7563V57.9521C93.7563 57.1729 94.1577 56.4473 94.8213 56.0337C96.5444 54.9546 97.5732 53.1099 97.5732 51.0991ZM40.4985 40.4941L37.8076 43.1699L57.9165 63.1631H63.3027L40.4985 40.4941ZM41.6885 63.1621H51.4722L44.0723 55.8052C44.0693 56.0518 44.0601 56.2979 44.042 56.5459C43.8398 59.1992 42.8311 61.4307 41.6885 63.1621ZM87.6313 72.3574H103.445L103.443 68.7715C103.443 68.1777 102.958 67.6943 102.36 67.6943H29.6436C29.0449 67.6943 28.5601 68.1777 28.5601 68.7715V72.3574H71.8862C73.1445 72.3574 74.1655 73.3721 74.1655 74.623C74.1655 75.874 73.1445 76.8896 71.8862 76.8896H28.5601V93.4658H103.443V76.8896H87.6313C86.373 76.8896 85.3521 75.874 85.3521 74.623C85.3521 73.3721 86.373 72.3574 87.6313 72.3574ZM69.0737 52.4648C68.6348 52.8682 68.0801 53.0659 67.5269 53.0659C66.9131 53.0659 66.3008 52.8213 65.8525 52.3408C56.5581 42.3433 56.1221 32.2432 58.813 26.1226C60.7441 21.7285 64.3496 19 68.2261 19C72.0386 19 75.8979 21.8071 75.8979 27.1753C75.8979 32.3701 71.6675 34.9775 69.4297 35.6318C68.2231 35.9795 66.9556 35.2964 66.6001 34.0952C66.2461 32.894 66.939 31.6343 68.147 31.2822C68.457 31.1855 71.3408 30.1973 71.3408 27.1753C71.3408 24.4878 69.6636 23.5327 68.2275 23.5327C66.2231 23.5327 64.1675 25.2612 62.9897 27.937C60.8765 32.7432 61.3975 40.8701 69.2002 49.2632C70.0557 50.1802 69.9976 51.6143 69.0737 52.4648Z" fill="#4E88A2"/>
</svg>
