<svg width="83" height="80" viewBox="0 0 83 80" fill="none" xmlns="http://www.w3.org/2000/svg">
<path d="M3.7727 80H56.5905C58.6705 80 60.3632 78.3175 60.3632 76.25V57.5C60.3632 57.475 60.3506 57.455 60.3481 57.43C60.4864 57.3425 60.6298 57.26 60.7656 57.1675L80.8514 77.1325C81.0979 77.3775 81.4199 77.5 81.7418 77.5C82.0637 77.5 82.3857 77.3775 82.6322 77.135C83.1226 76.6475 83.1226 75.855 82.6322 75.3675L62.7299 55.585C65.909 52.6175 67.9086 48.415 67.9086 43.75C67.9086 38.0075 64.8879 32.96 60.3481 30.07C60.3506 30.045 60.3632 30.025 60.3632 30V23.75C60.3632 23.7075 60.3431 23.6725 60.3405 23.6325C60.3355 23.575 60.3204 23.525 60.3078 23.47C60.2651 23.2925 60.1922 23.1325 60.0815 22.9925C60.0639 22.97 60.0664 22.9425 60.0488 22.92L39.9277 0.42C39.9202 0.4125 39.9101 0.4125 39.9026 0.405C39.7517 0.2425 39.558 0.135 39.3417 0.07C39.2939 0.055 39.2512 0.05 39.2009 0.0425C39.1279 0.03 39.06 0 38.9846 0H3.7727C1.69268 0 0 1.6825 0 3.75V76.25C0 78.3175 1.69268 80 3.7727 80V80ZM65.3934 43.75C65.3934 51.3325 59.1861 57.5 51.5602 57.5C43.9343 57.5 37.727 51.3325 37.727 43.75C37.727 36.1675 43.9343 30 51.5602 30C59.1861 30 65.3934 36.1675 65.3934 43.75ZM40.2421 4.5375L56.3063 22.5H41.4997C40.9464 22.5 40.2421 21.45 40.2421 20.625V4.5375V4.5375ZM2.51513 3.75C2.51513 3.06 3.08104 2.5 3.7727 2.5H37.727V20.625C37.727 22.6475 39.3744 25 41.4997 25H57.848V28.7525C55.9114 27.9475 53.7886 27.5 51.5602 27.5C46.9374 27.5 42.7673 29.425 39.7919 32.5H13.8332C13.1391 32.5 12.5757 33.06 12.5757 33.75C12.5757 34.44 13.1391 35 13.8332 35H37.8075C36.3864 37.1975 35.4885 39.7525 35.2772 42.5H13.8332C13.1391 42.5 12.5757 43.06 12.5757 43.75C12.5757 44.44 13.1391 45 13.8332 45H35.2747C35.486 47.7475 36.3864 50.3025 37.805 52.5H13.8332C13.1391 52.5 12.5757 53.06 12.5757 53.75C12.5757 54.44 13.1391 55 13.8332 55H39.6133C39.6662 55 39.7114 54.9775 39.7642 54.97C42.7422 58.0625 46.9248 60 51.5602 60C53.7886 60 55.9114 59.5525 57.848 58.745V76.25C57.848 76.94 57.2821 77.5 56.5905 77.5H3.7727C3.06846 77.5 2.51513 76.95 2.51513 76.25V3.75ZM13.8332 25H28.924C29.6182 25 30.1816 24.44 30.1816 23.75C30.1816 23.06 29.6182 22.5 28.924 22.5H13.8332C13.1391 22.5 12.5757 23.06 12.5757 23.75C12.5757 24.44 13.1391 25 13.8332 25ZM13.8332 65H46.5299C47.2241 65 47.7875 64.44 47.7875 63.75C47.7875 63.06 47.2241 62.5 46.5299 62.5H13.8332C13.1391 62.5 12.5757 63.06 12.5757 63.75C12.5757 64.44 13.1391 65 13.8332 65Z" fill="#4E88A2"/>
</svg>
