<svg width="515" height="504" viewBox="0 0 515 504" fill="none" xmlns="http://www.w3.org/2000/svg">
<rect width="342.999" height="336" fill="black" fill-opacity="0" transform="scale(1.5)"/>
<rect x="259.995" y="89.8037" width="254.504" height="324.393" fill="#008FF6" fill-opacity="0.4"/>
<rect x="97.04" width="318.588" height="252.916" fill="#ED5858" fill-opacity="0.4"/>
<rect y="89.8037" width="259.997" height="324.393" fill="#DCD40D" fill-opacity="0.4"/>
<rect x="97.04" y="252.917" width="318.588" height="243.753" fill="#3AAD1D" fill-opacity="0.4"/>
<path d="M19.1174 284.204C19.1174 282.37 19.5514 280.956 20.4194 279.962C21.2874 278.954 22.5054 278.45 24.0734 278.45C25.7114 278.45 26.9854 278.954 27.8954 279.962C28.7914 280.97 29.2394 282.384 29.2394 284.204V287.858H33.8174V289.874H19.1174V284.204ZM27.4124 284.288C27.4124 283.028 27.1394 282.062 26.5934 281.39C26.0334 280.718 25.2144 280.382 24.1364 280.382C23.0864 280.382 22.2954 280.718 21.7634 281.39C21.2174 282.062 20.9444 283.028 20.9444 284.288L20.9654 287.858H27.4124V284.288ZM25.1024 274.021C24.3044 273.657 23.7024 273.139 23.2964 272.467C22.8764 271.795 22.6594 270.997 22.6454 270.073H24.5354C24.4934 271.207 24.7874 272.124 25.4174 272.824C26.0474 273.524 26.8944 273.923 27.9584 274.021H33.8174V275.974H22.7084V274.021H25.1024ZM22.6454 263.335C22.6454 262.229 22.8834 261.249 23.3594 260.395C23.8354 259.527 24.5004 258.855 25.3544 258.379C26.1944 257.889 27.1604 257.644 28.2524 257.644C29.3444 257.644 30.3174 257.889 31.1714 258.379C32.0254 258.855 32.6904 259.527 33.1664 260.395C33.6424 261.249 33.8804 262.229 33.8804 263.335C33.8804 264.455 33.6424 265.449 33.1664 266.317C32.6904 267.171 32.0324 267.843 31.1924 268.333C30.3384 268.809 29.3584 269.047 28.2524 269.047C27.1604 269.047 26.1944 268.809 25.3544 268.333C24.5004 267.843 23.8354 267.171 23.3594 266.317C22.8834 265.449 22.6454 264.455 22.6454 263.335ZM24.3464 263.335C24.3464 264.063 24.5144 264.714 24.8504 265.288C25.1864 265.848 25.6554 266.289 26.2574 266.611C26.8454 266.919 27.5174 267.073 28.2734 267.073C29.0434 267.073 29.7294 266.919 30.3314 266.611C30.9334 266.289 31.4024 265.848 31.7384 265.288C32.0604 264.714 32.2214 264.063 32.2214 263.335C32.2214 262.621 32.0604 261.984 31.7384 261.424C31.4024 260.85 30.9334 260.409 30.3314 260.101C29.7294 259.779 29.0434 259.618 28.2734 259.618C27.5174 259.618 26.8454 259.779 26.2574 260.101C25.6554 260.409 25.1864 260.85 24.8504 261.424C24.5144 261.984 24.3464 262.621 24.3464 263.335ZM25.6694 247.121C24.8154 248.003 24.3884 249.06 24.3884 250.292C24.3884 251.02 24.5494 251.671 24.8714 252.245C25.1934 252.805 25.6484 253.246 26.2364 253.568C26.8244 253.89 27.5034 254.051 28.2734 254.051C29.0434 254.051 29.7224 253.897 30.3104 253.589C30.8984 253.267 31.3604 252.833 31.6964 252.287C32.0184 251.727 32.1794 251.09 32.1794 250.376C32.1794 249.662 32.0604 249.018 31.8224 248.444C31.5844 247.87 31.2414 247.394 30.7934 247.016L31.9274 245.903C32.5574 246.407 33.0404 247.051 33.3764 247.835C33.7124 248.605 33.8804 249.48 33.8804 250.46C33.8804 251.538 33.6424 252.497 33.1664 253.337C32.6904 254.177 32.0324 254.835 31.1924 255.311C30.3384 255.773 29.3654 256.004 28.2734 256.004C27.1814 256.004 26.2084 255.773 25.3544 255.311C24.5004 254.835 23.8354 254.177 23.3594 253.337C22.8834 252.497 22.6454 251.538 22.6454 250.46C22.6454 249.522 22.7924 248.682 23.0864 247.94C23.3664 247.184 23.7794 246.554 24.3254 246.05L25.6694 247.121ZM22.6454 239.16C22.6454 237.438 23.1564 236.136 24.1784 235.254C25.1864 234.372 26.5934 233.931 28.3994 233.931C28.6794 233.931 28.8894 233.938 29.0294 233.952V242.73C30.0234 242.576 30.8144 242.163 31.4024 241.491C31.9904 240.805 32.2844 239.965 32.2844 238.971C32.2844 238.313 32.1654 237.704 31.9274 237.144C31.6894 236.57 31.3534 236.073 30.9194 235.653L32.0324 234.582C32.6204 235.128 33.0754 235.786 33.3974 236.556C33.7194 237.326 33.8804 238.18 33.8804 239.118C33.8804 240.21 33.6494 241.183 33.1874 242.037C32.7114 242.877 32.0464 243.535 31.1924 244.011C30.3384 244.473 29.3654 244.704 28.2734 244.704C27.1814 244.704 26.2154 244.473 25.3754 244.011C24.5214 243.535 23.8564 242.877 23.3804 242.037C22.8904 241.197 22.6454 240.238 22.6454 239.16ZM27.5174 235.695C26.5094 235.751 25.7184 236.087 25.1444 236.703C24.5564 237.319 24.2624 238.131 24.2624 239.139C24.2624 240.119 24.5564 240.938 25.1444 241.596C25.7324 242.24 26.5234 242.625 27.5174 242.751V235.695ZM25.1654 225.198C24.8854 225.66 24.6614 226.171 24.4934 226.731C24.3254 227.277 24.2414 227.802 24.2414 228.306C24.2414 228.894 24.3534 229.37 24.5774 229.734C24.7874 230.084 25.1164 230.259 25.5644 230.259C26.0124 230.259 26.3554 230.063 26.5934 229.671C26.8174 229.265 27.0484 228.656 27.2864 227.844C27.5104 227.074 27.7344 226.444 27.9584 225.954C28.1824 225.464 28.5114 225.051 28.9454 224.715C29.3794 224.365 29.9534 224.19 30.6674 224.19C31.7174 224.19 32.5154 224.589 33.0614 225.387C33.6074 226.171 33.8804 227.151 33.8804 228.327C33.8804 229.153 33.7474 229.958 33.4814 230.742C33.2154 231.512 32.8374 232.163 32.3474 232.695L30.9194 231.96C31.3394 231.498 31.6754 230.931 31.9274 230.259C32.1794 229.573 32.3054 228.908 32.3054 228.264C32.3054 227.62 32.1864 227.102 31.9484 226.71C31.7104 226.318 31.3464 226.122 30.8564 226.122C30.3524 226.122 29.9744 226.332 29.7224 226.752C29.4704 227.158 29.2184 227.781 28.9664 228.621C28.7564 229.363 28.5464 229.972 28.3364 230.448C28.1124 230.91 27.7904 231.309 27.3704 231.645C26.9504 231.967 26.4044 232.128 25.7324 232.128C24.6964 232.128 23.9194 231.75 23.4014 230.994C22.8834 230.238 22.6244 229.293 22.6244 228.159C22.6244 227.487 22.7224 226.829 22.9184 226.185C23.1004 225.527 23.3524 224.96 23.6744 224.484L25.1654 225.198ZM25.1654 215.538C24.8854 216 24.6614 216.511 24.4934 217.071C24.3254 217.617 24.2414 218.142 24.2414 218.646C24.2414 219.234 24.3534 219.71 24.5774 220.074C24.7874 220.424 25.1164 220.599 25.5644 220.599C26.0124 220.599 26.3554 220.403 26.5934 220.011C26.8174 219.605 27.0484 218.996 27.2864 218.184C27.5104 217.414 27.7344 216.784 27.9584 216.294C28.1824 215.804 28.5114 215.391 28.9454 215.055C29.3794 214.705 29.9534 214.53 30.6674 214.53C31.7174 214.53 32.5154 214.929 33.0614 215.727C33.6074 216.511 33.8804 217.491 33.8804 218.667C33.8804 219.493 33.7474 220.298 33.4814 221.082C33.2154 221.852 32.8374 222.503 32.3474 223.035L30.9194 222.3C31.3394 221.838 31.6754 221.271 31.9274 220.599C32.1794 219.913 32.3054 219.248 32.3054 218.604C32.3054 217.96 32.1864 217.442 31.9484 217.05C31.7104 216.658 31.3464 216.462 30.8564 216.462C30.3524 216.462 29.9744 216.672 29.7224 217.092C29.4704 217.498 29.2184 218.121 28.9664 218.961C28.7564 219.703 28.5464 220.312 28.3364 220.788C28.1124 221.25 27.7904 221.649 27.3704 221.985C26.9504 222.307 26.4044 222.468 25.7324 222.468C24.6964 222.468 23.9194 222.09 23.4014 221.334C22.8834 220.578 22.6244 219.633 22.6244 218.499C22.6244 217.827 22.7224 217.169 22.9184 216.525C23.1004 215.867 23.3524 215.3 23.6744 214.824L25.1654 215.538ZM43.2674 332.746V323.72H44.7194V327.449H54.8174V329.033H44.7194V332.746H43.2674ZM46.0394 319.742C46.0394 318.389 46.4409 317.366 47.2439 316.673C48.0359 315.98 49.1414 315.633 50.5604 315.633C50.7804 315.633 50.9454 315.639 51.0554 315.65V322.547C51.8364 322.426 52.4579 322.101 52.9199 321.573C53.3819 321.034 53.6129 320.374 53.6129 319.593C53.6129 319.076 53.5194 318.598 53.3324 318.158C53.1454 317.707 52.8814 317.316 52.5404 316.986L53.4149 316.145C53.8769 316.574 54.2344 317.091 54.4874 317.696C54.7404 318.301 54.8669 318.972 54.8669 319.709C54.8669 320.567 54.6854 321.331 54.3224 322.002C53.9484 322.662 53.4259 323.179 52.7549 323.553C52.0839 323.916 51.3194 324.098 50.4614 324.098C49.6034 324.098 48.8444 323.916 48.1844 323.553C47.5134 323.179 46.9909 322.662 46.6169 322.002C46.2319 321.342 46.0394 320.589 46.0394 319.742ZM49.8674 317.019C49.0754 317.063 48.4539 317.327 48.0029 317.811C47.5409 318.295 47.3099 318.933 47.3099 319.725C47.3099 320.495 47.5409 321.139 48.0029 321.656C48.4649 322.162 49.0864 322.464 49.8674 322.563V317.019ZM48.4154 307.418C47.7444 308.111 47.4089 308.942 47.4089 309.91C47.4089 310.482 47.5354 310.993 47.7884 311.444C48.0414 311.884 48.3989 312.231 48.8609 312.484C49.3229 312.737 49.8564 312.863 50.4614 312.863C51.0664 312.863 51.5999 312.742 52.0619 312.5C52.5239 312.247 52.8869 311.906 53.1509 311.477C53.4039 311.037 53.5304 310.537 53.5304 309.976C53.5304 309.415 53.4369 308.909 53.2499 308.458C53.0629 308.007 52.7934 307.633 52.4414 307.336L53.3324 306.461C53.8274 306.857 54.2069 307.363 54.4709 307.979C54.7349 308.584 54.8669 309.272 54.8669 310.042C54.8669 310.889 54.6799 311.642 54.3059 312.302C53.9319 312.962 53.4149 313.479 52.7549 313.853C52.0839 314.216 51.3194 314.398 50.4614 314.398C49.6034 314.398 48.8389 314.216 48.1679 313.853C47.4969 313.479 46.9744 312.962 46.6004 312.302C46.2264 311.642 46.0394 310.889 46.0394 310.042C46.0394 309.305 46.1549 308.645 46.3859 308.062C46.6059 307.468 46.9304 306.973 47.3594 306.577L48.4154 307.418ZM46.0394 299.324C46.0394 298.301 46.3419 297.498 46.9469 296.915C47.5409 296.332 48.3659 296.041 49.4219 296.041H54.8174V297.575H49.8344C49.0974 297.575 48.5254 297.784 48.1184 298.202C47.7004 298.609 47.4914 299.176 47.4914 299.902C47.5024 300.749 47.7884 301.42 48.3494 301.915C48.9104 302.41 49.6364 302.657 50.5274 302.657H54.8174V304.192H42.5744V302.657H47.9699C46.7049 302.074 46.0614 300.963 46.0394 299.324ZM46.0394 288.45C46.0394 287.427 46.3419 286.624 46.9469 286.041C47.5409 285.458 48.3659 285.167 49.4219 285.167H54.8174V286.701H49.8344C49.0974 286.701 48.5254 286.91 48.1184 287.328C47.7004 287.735 47.4914 288.302 47.4914 289.028C47.5024 289.809 47.7554 290.447 48.2504 290.942C48.7344 291.426 49.3669 291.701 50.1479 291.767H54.8174V293.301H46.0889V291.767H47.9369C46.6939 291.184 46.0614 290.078 46.0394 288.45ZM46.0889 282.425V280.89H54.8174V282.425H46.0889ZM42.6074 281.666C42.6074 281.391 42.7009 281.165 42.8879 280.989C43.0749 280.802 43.3114 280.709 43.5974 280.709C43.8834 280.709 44.1199 280.802 44.3069 280.989C44.4939 281.165 44.5874 281.391 44.5874 281.666C44.5874 281.941 44.4939 282.172 44.3069 282.359C44.1199 282.535 43.8834 282.623 43.5974 282.623C43.3114 282.623 43.0749 282.535 42.8879 282.359C42.7009 282.172 42.6074 281.941 42.6074 281.666ZM48.4154 271.776C47.7444 272.469 47.4089 273.299 47.4089 274.267C47.4089 274.839 47.5354 275.351 47.7884 275.802C48.0414 276.242 48.3989 276.588 48.8609 276.841C49.3229 277.094 49.8564 277.221 50.4614 277.221C51.0664 277.221 51.5999 277.1 52.0619 276.858C52.5239 276.605 52.8869 276.264 53.1509 275.835C53.4039 275.395 53.5304 274.894 53.5304 274.333C53.5304 273.772 53.4369 273.266 53.2499 272.815C53.0629 272.364 52.7934 271.99 52.4414 271.693L53.3324 270.819C53.8274 271.215 54.2069 271.721 54.4709 272.337C54.7349 272.942 54.8669 273.629 54.8669 274.399C54.8669 275.246 54.6799 276 54.3059 276.66C53.9319 277.32 53.4149 277.837 52.7549 278.211C52.0839 278.574 51.3194 278.755 50.4614 278.755C49.6034 278.755 48.8389 278.574 48.1679 278.211C47.4969 277.837 46.9744 277.32 46.6004 276.66C46.2264 276 46.0394 275.246 46.0394 274.399C46.0394 273.662 46.1549 273.002 46.3859 272.419C46.6059 271.825 46.9304 271.33 47.3594 270.934L48.4154 271.776ZM54.8174 263.737H53.5964C54.4544 264.386 54.8834 265.404 54.8834 266.79C54.8834 267.395 54.7679 267.928 54.5369 268.39C54.3059 268.841 53.9869 269.193 53.5799 269.446C53.1729 269.688 52.7164 269.809 52.2104 269.809C51.4294 269.809 50.8134 269.523 50.3624 268.951C49.9004 268.368 49.6639 267.56 49.6529 266.526V263.754H49.2404C48.6244 263.754 48.1514 263.946 47.8214 264.331C47.4804 264.705 47.3099 265.255 47.3099 265.981C47.3099 266.861 47.6234 267.758 48.2504 268.671L47.1944 269.314C46.7874 268.687 46.4959 268.11 46.3199 267.582C46.1329 267.043 46.0394 266.405 46.0394 265.668C46.0394 264.579 46.3089 263.737 46.8479 263.143C47.3759 262.549 48.1184 262.247 49.0754 262.236L54.8174 262.219V263.737ZM53.6129 266.476C53.6129 265.761 53.4424 265.156 53.1014 264.661C52.7494 264.155 52.2874 263.853 51.7154 263.754H50.8409V266.311C50.8409 267.004 50.9454 267.521 51.1544 267.862C51.3634 268.192 51.6934 268.357 52.1444 268.357C52.5954 268.357 52.9529 268.187 53.2169 267.846C53.4809 267.505 53.6129 267.048 53.6129 266.476ZM42.5744 259.397V257.863H54.8174V259.397H42.5744ZM48.0194 245.688C47.7994 246.051 47.6234 246.452 47.4914 246.892C47.3594 247.321 47.2934 247.734 47.2934 248.13C47.2934 248.592 47.3814 248.966 47.5574 249.252C47.7224 249.527 47.9809 249.664 48.3329 249.664C48.6849 249.664 48.9544 249.51 49.1414 249.202C49.3174 248.883 49.4989 248.405 49.6859 247.767C49.8619 247.162 50.0379 246.667 50.2139 246.282C50.3899 245.897 50.6484 245.572 50.9894 245.308C51.3304 245.033 51.7814 244.896 52.3424 244.896C53.1674 244.896 53.7944 245.209 54.2234 245.836C54.6524 246.452 54.8669 247.222 54.8669 248.146C54.8669 248.795 54.7624 249.428 54.5534 250.044C54.3444 250.649 54.0474 251.16 53.6624 251.578L52.5404 251.001C52.8704 250.638 53.1344 250.192 53.3324 249.664C53.5304 249.125 53.6294 248.603 53.6294 248.097C53.6294 247.591 53.5359 247.184 53.3489 246.876C53.1619 246.568 52.8759 246.414 52.4909 246.414C52.0949 246.414 51.7979 246.579 51.5999 246.909C51.4019 247.228 51.2039 247.717 51.0059 248.377C50.8409 248.96 50.6759 249.439 50.5109 249.813C50.3349 250.176 50.0819 250.489 49.7519 250.753C49.4219 251.006 48.9929 251.133 48.4649 251.133C47.6509 251.133 47.0404 250.836 46.6334 250.242C46.2264 249.648 46.0229 248.905 46.0229 248.014C46.0229 247.486 46.0999 246.969 46.2539 246.463C46.3969 245.946 46.5949 245.501 46.8479 245.127L48.0194 245.688ZM54.8174 236.762L50.5769 239.55L52.3424 241.25H54.8174V242.784H42.5744V241.25H50.3789L46.0889 237.026V235.227L49.4714 238.478L54.8174 234.914V236.762ZM46.0889 233.263V231.729H54.8174V233.263H46.0889ZM42.6074 232.504C42.6074 232.229 42.7009 232.004 42.8879 231.828C43.0749 231.641 43.3114 231.547 43.5974 231.547C43.8834 231.547 44.1199 231.641 44.3069 231.828C44.4939 232.004 44.5874 232.229 44.5874 232.504C44.5874 232.779 44.4939 233.01 44.3069 233.197C44.1199 233.373 43.8834 233.461 43.5974 233.461C43.3114 233.461 43.0749 233.373 42.8879 233.197C42.7009 233.01 42.6074 232.779 42.6074 232.504ZM42.5744 228.653V227.118H54.8174V228.653H42.5744ZM42.5744 223.948V222.413H54.8174V223.948H42.5744ZM48.0194 214.557C47.7994 214.92 47.6234 215.321 47.4914 215.761C47.3594 216.19 47.2934 216.603 47.2934 216.999C47.2934 217.461 47.3814 217.835 47.5574 218.121C47.7224 218.396 47.9809 218.533 48.3329 218.533C48.6849 218.533 48.9544 218.379 49.1414 218.071C49.3174 217.752 49.4989 217.274 49.6859 216.636C49.8619 216.031 50.0379 215.536 50.2139 215.151C50.3899 214.766 50.6484 214.441 50.9894 214.177C51.3304 213.902 51.7814 213.765 52.3424 213.765C53.1674 213.765 53.7944 214.078 54.2234 214.705C54.6524 215.321 54.8669 216.091 54.8669 217.015C54.8669 217.664 54.7624 218.297 54.5534 218.913C54.3444 219.518 54.0474 220.029 53.6624 220.447L52.5404 219.87C52.8704 219.507 53.1344 219.061 53.3324 218.533C53.5304 217.994 53.6294 217.472 53.6294 216.966C53.6294 216.46 53.5359 216.053 53.3489 215.745C53.1619 215.437 52.8759 215.283 52.4909 215.283C52.0949 215.283 51.7979 215.448 51.5999 215.778C51.4019 216.097 51.2039 216.586 51.0059 217.246C50.8409 217.829 50.6759 218.308 50.5109 218.682C50.3349 219.045 50.0819 219.358 49.7519 219.622C49.4219 219.875 48.9929 220.002 48.4649 220.002C47.6509 220.002 47.0404 219.705 46.6334 219.111C46.2264 218.517 46.0229 217.774 46.0229 216.883C46.0229 216.355 46.0999 215.838 46.2539 215.332C46.3969 214.815 46.5949 214.37 46.8479 213.996L48.0194 214.557ZM54.8174 202.088H53.5964C54.4544 202.737 54.8834 203.755 54.8834 205.141C54.8834 205.746 54.7679 206.279 54.5369 206.741C54.3059 207.192 53.9869 207.544 53.5799 207.797C53.1729 208.039 52.7164 208.16 52.2104 208.16C51.4294 208.16 50.8134 207.874 50.3624 207.302C49.9004 206.719 49.6639 205.911 49.6529 204.877V202.105H49.2404C48.6244 202.105 48.1514 202.297 47.8214 202.682C47.4804 203.056 47.3099 203.606 47.3099 204.332C47.3099 205.212 47.6234 206.109 48.2504 207.022L47.1944 207.665C46.7874 207.038 46.4959 206.461 46.3199 205.933C46.1329 205.394 46.0394 204.756 46.0394 204.019C46.0394 202.93 46.3089 202.088 46.8479 201.494C47.3759 200.9 48.1184 200.598 49.0754 200.587L54.8174 200.57V202.088ZM53.6129 204.827C53.6129 204.112 53.4424 203.507 53.1014 203.012C52.7494 202.506 52.2874 202.204 51.7154 202.105H50.8409V204.662C50.8409 205.355 50.9454 205.872 51.1544 206.213C51.3634 206.543 51.6934 206.708 52.1444 206.708C52.5954 206.708 52.9529 206.538 53.2169 206.197C53.4809 205.856 53.6129 205.399 53.6129 204.827ZM46.0394 192.979C46.0394 191.956 46.3419 191.153 46.9469 190.57C47.5409 189.987 48.3659 189.696 49.4219 189.696H54.8174V191.23H49.8344C49.0974 191.23 48.5254 191.439 48.1184 191.857C47.7004 192.264 47.4914 192.831 47.4914 193.557C47.5024 194.338 47.7554 194.976 48.2504 195.471C48.7344 195.955 49.3669 196.23 50.1479 196.296H54.8174V197.83H46.0889V196.296H47.9369C46.6939 195.713 46.0614 194.607 46.0394 192.979ZM42.5744 178.819H54.8174V180.354H53.0849C53.6679 180.684 54.1189 181.129 54.4379 181.69C54.7459 182.24 54.8999 182.884 54.8999 183.621C54.8999 184.446 54.7129 185.177 54.3389 185.815C53.9539 186.442 53.4259 186.932 52.7549 187.284C52.0729 187.636 51.2974 187.812 50.4284 187.812C49.5704 187.812 48.8114 187.636 48.1514 187.284C47.4804 186.932 46.9579 186.442 46.5839 185.815C46.2099 185.177 46.0229 184.451 46.0229 183.637C46.0229 182.889 46.1769 182.235 46.4849 181.674C46.7929 181.113 47.2384 180.673 47.8214 180.354H42.5744V178.819ZM53.5799 183.307C53.5799 182.735 53.4479 182.229 53.1839 181.789C52.9199 181.338 52.5514 180.986 52.0784 180.733C51.6054 180.48 51.0719 180.354 50.4779 180.354C49.8729 180.354 49.3339 180.48 48.8609 180.733C48.3879 180.986 48.0194 181.338 47.7554 181.789C47.4914 182.229 47.3594 182.735 47.3594 183.307C47.3594 183.879 47.4969 184.391 47.7719 184.842C48.0359 185.282 48.4044 185.628 48.8774 185.881C49.3504 186.134 49.8839 186.261 50.4779 186.261C51.0719 186.261 51.6054 186.134 52.0784 185.881C52.5514 185.628 52.9199 185.282 53.1839 184.842C53.4479 184.391 53.5799 183.879 53.5799 183.307ZM67.9154 312.881C67.2444 313.574 66.9089 314.404 66.9089 315.372C66.9089 315.944 67.0354 316.456 67.2884 316.907C67.5414 317.347 67.8989 317.693 68.3609 317.946C68.8229 318.199 69.3564 318.326 69.9614 318.326C70.5664 318.326 71.0999 318.205 71.5619 317.963C72.0239 317.71 72.3869 317.369 72.6509 316.94C72.9039 316.5 73.0304 315.999 73.0304 315.438C73.0304 314.877 72.9369 314.371 72.7499 313.92C72.5629 313.469 72.2934 313.095 71.9414 312.798L72.8324 311.924C73.3274 312.32 73.7069 312.826 73.9709 313.442C74.2349 314.047 74.3669 314.734 74.3669 315.504C74.3669 316.351 74.1799 317.105 73.8059 317.765C73.4319 318.425 72.9149 318.942 72.2549 319.316C71.5839 319.679 70.8194 319.86 69.9614 319.86C69.1034 319.86 68.3389 319.679 67.6679 319.316C66.9969 318.942 66.4744 318.425 66.1004 317.765C65.7264 317.105 65.5394 316.351 65.5394 315.504C65.5394 314.767 65.6549 314.107 65.8859 313.524C66.1059 312.93 66.4304 312.435 66.8594 312.039L67.9154 312.881ZM67.4699 308.202C66.8429 307.916 66.3699 307.509 66.0509 306.981C65.7209 306.453 65.5504 305.826 65.5394 305.1H67.0244C66.9914 305.991 67.2224 306.712 67.7174 307.262C68.2124 307.812 68.8779 308.125 69.7139 308.202H74.3174V309.737H65.5889V308.202H67.4699ZM65.5394 299.939C65.5394 298.586 65.9409 297.563 66.7439 296.87C67.5359 296.177 68.6414 295.83 70.0604 295.83C70.2804 295.83 70.4454 295.836 70.5554 295.847V302.744C71.3364 302.623 71.9579 302.298 72.4199 301.77C72.8819 301.231 73.1129 300.571 73.1129 299.79C73.1129 299.273 73.0194 298.795 72.8324 298.355C72.6454 297.904 72.3814 297.513 72.0404 297.183L72.9149 296.342C73.3769 296.771 73.7344 297.288 73.9874 297.893C74.2404 298.498 74.3669 299.169 74.3669 299.906C74.3669 300.764 74.1854 301.528 73.8224 302.199C73.4484 302.859 72.9259 303.376 72.2549 303.75C71.5839 304.113 70.8194 304.295 69.9614 304.295C69.1034 304.295 68.3444 304.113 67.6844 303.75C67.0134 303.376 66.4909 302.859 66.1169 302.199C65.7319 301.539 65.5394 300.786 65.5394 299.939ZM69.3674 297.216C68.5754 297.26 67.9539 297.524 67.5029 298.008C67.0409 298.492 66.8099 299.13 66.8099 299.922C66.8099 300.692 67.0409 301.336 67.5029 301.853C67.9649 302.359 68.5864 302.661 69.3674 302.76V297.216ZM74.3174 288.407H73.0964C73.9544 289.056 74.3834 290.073 74.3834 291.459C74.3834 292.064 74.2679 292.598 74.0369 293.06C73.8059 293.511 73.4869 293.863 73.0799 294.116C72.6729 294.358 72.2164 294.479 71.7104 294.479C70.9294 294.479 70.3134 294.193 69.8624 293.621C69.4004 293.038 69.1639 292.229 69.1529 291.195V288.423H68.7404C68.1244 288.423 67.6514 288.616 67.3214 289.001C66.9804 289.375 66.8099 289.925 66.8099 290.651C66.8099 291.531 67.1234 292.427 67.7504 293.34L66.6944 293.984C66.2874 293.357 65.9959 292.779 65.8199 292.251C65.6329 291.712 65.5394 291.074 65.5394 290.337C65.5394 289.248 65.8089 288.407 66.3479 287.813C66.8759 287.219 67.6184 286.916 68.5754 286.905L74.3174 286.889V288.407ZM73.1129 291.146C73.1129 290.431 72.9424 289.826 72.6014 289.331C72.2494 288.825 71.7874 288.522 71.2154 288.423H70.3409V290.981C70.3409 291.674 70.4454 292.191 70.6544 292.532C70.8634 292.862 71.1934 293.027 71.6444 293.027C72.0954 293.027 72.4529 292.856 72.7169 292.515C72.9809 292.174 73.1129 291.718 73.1129 291.146ZM73.7399 279.463C74.1689 280.134 74.3834 280.816 74.3834 281.509C74.3834 282.202 74.1799 282.763 73.7729 283.192C73.3549 283.621 72.7279 283.836 71.8919 283.836H67.0574V285.073H65.8859V283.836H63.5429V282.285H65.8859V279.612H67.0574V282.285H71.6114C72.0954 282.285 72.4419 282.197 72.6509 282.021C72.8599 281.845 72.9644 281.581 72.9644 281.229C72.9644 280.811 72.8269 280.36 72.5519 279.876L73.7399 279.463ZM65.5889 277.591V276.056H74.3174V277.591H65.5889ZM62.1074 276.832C62.1074 276.557 62.2009 276.331 62.3879 276.155C62.5749 275.968 62.8114 275.875 63.0974 275.875C63.3834 275.875 63.6199 275.968 63.8069 276.155C63.9939 276.331 64.0874 276.557 64.0874 276.832C64.0874 277.107 63.9939 277.338 63.8069 277.525C63.6199 277.701 63.3834 277.789 63.0974 277.789C62.8114 277.789 62.5749 277.701 62.3879 277.525C62.2009 277.338 62.1074 277.107 62.1074 276.832ZM65.5889 274.515V272.882L72.7994 270.258L65.5889 267.651V266.1L74.3174 269.499V271.1L65.5889 274.515ZM65.5394 261.444C65.5394 260.091 65.9409 259.068 66.7439 258.375C67.5359 257.682 68.6414 257.335 70.0604 257.335C70.2804 257.335 70.4454 257.341 70.5554 257.352V264.249C71.3364 264.128 71.9579 263.803 72.4199 263.275C72.8819 262.736 73.1129 262.076 73.1129 261.295C73.1129 260.778 73.0194 260.3 72.8324 259.86C72.6454 259.409 72.3814 259.018 72.0404 258.688L72.9149 257.847C73.3769 258.276 73.7344 258.793 73.9874 259.398C74.2404 260.003 74.3669 260.674 74.3669 261.411C74.3669 262.269 74.1854 263.033 73.8224 263.704C73.4484 264.364 72.9259 264.881 72.2549 265.255C71.5839 265.618 70.8194 265.8 69.9614 265.8C69.1034 265.8 68.3444 265.618 67.6844 265.255C67.0134 264.881 66.4909 264.364 66.1169 263.704C65.7319 263.044 65.5394 262.291 65.5394 261.444ZM69.3674 258.721C68.5754 258.765 67.9539 259.029 67.5029 259.513C67.0409 259.997 66.8099 260.635 66.8099 261.427C66.8099 262.197 67.0409 262.841 67.5029 263.358C67.9649 263.864 68.5864 264.166 69.3674 264.265V258.721ZM62.0744 250.841V249.306H74.3174V250.841H62.0744ZM65.5394 242.72C65.5394 241.367 65.9409 240.344 66.7439 239.651C67.5359 238.958 68.6414 238.612 70.0604 238.612C70.2804 238.612 70.4454 238.617 70.5554 238.628V245.525C71.3364 245.404 71.9579 245.08 72.4199 244.552C72.8819 244.013 73.1129 243.353 73.1129 242.572C73.1129 242.055 73.0194 241.576 72.8324 241.136C72.6454 240.685 72.3814 240.295 72.0404 239.965L72.9149 239.123C73.3769 239.552 73.7344 240.069 73.9874 240.674C74.2404 241.279 74.3669 241.95 74.3669 242.687C74.3669 243.545 74.1854 244.31 73.8224 244.981C73.4484 245.641 72.9259 246.158 72.2549 246.532C71.5839 246.895 70.8194 247.076 69.9614 247.076C69.1034 247.076 68.3444 246.895 67.6844 246.532C67.0134 246.158 66.4909 245.641 66.1169 244.981C65.7319 244.321 65.5394 243.567 65.5394 242.72ZM69.3674 239.998C68.5754 240.042 67.9539 240.306 67.5029 240.79C67.0409 241.274 66.8099 241.912 66.8099 242.704C66.8099 243.474 67.0409 244.117 67.5029 244.634C67.9649 245.14 68.5864 245.443 69.3674 245.542V239.998ZM74.3174 231.189H73.0964C73.9544 231.838 74.3834 232.855 74.3834 234.241C74.3834 234.846 74.2679 235.38 74.0369 235.842C73.8059 236.293 73.4869 236.645 73.0799 236.898C72.6729 237.14 72.2164 237.261 71.7104 237.261C70.9294 237.261 70.3134 236.975 69.8624 236.403C69.4004 235.82 69.1639 235.011 69.1529 233.977V231.205H68.7404C68.1244 231.205 67.6514 231.398 67.3214 231.783C66.9804 232.157 66.8099 232.707 66.8099 233.433C66.8099 234.313 67.1234 235.209 67.7504 236.122L66.6944 236.766C66.2874 236.139 65.9959 235.561 65.8199 235.033C65.6329 234.494 65.5394 233.856 65.5394 233.119C65.5394 232.03 65.8089 231.189 66.3479 230.595C66.8759 230.001 67.6184 229.698 68.5754 229.687L74.3174 229.671V231.189ZM73.1129 233.928C73.1129 233.213 72.9424 232.608 72.6014 232.113C72.2494 231.607 71.7874 231.304 71.2154 231.205H70.3409V233.763C70.3409 234.456 70.4454 234.973 70.6544 235.314C70.8634 235.644 71.1934 235.809 71.6444 235.809C72.0954 235.809 72.4529 235.638 72.7169 235.297C72.9809 234.956 73.1129 234.5 73.1129 233.928ZM67.4699 225.396C66.8429 225.11 66.3699 224.703 66.0509 224.175C65.7209 223.647 65.5504 223.02 65.5394 222.294H67.0244C66.9914 223.185 67.2224 223.906 67.7174 224.456C68.2124 225.006 68.8779 225.319 69.7139 225.396H74.3174V226.931H65.5889V225.396H67.4699ZM65.5394 215.779C65.5394 214.756 65.8419 213.953 66.4469 213.37C67.0409 212.787 67.8659 212.496 68.9219 212.496H74.3174V214.03H69.3344C68.5974 214.03 68.0254 214.239 67.6184 214.657C67.2004 215.064 66.9914 215.631 66.9914 216.357C67.0024 217.138 67.2554 217.776 67.7504 218.271C68.2344 218.755 68.8669 219.03 69.6479 219.096H74.3174L74.3174 220.63H65.5889L65.5889 219.096H67.4369C66.1939 218.513 65.5614 217.407 65.5394 215.779ZM65.5889 209.754V208.219H74.3174V209.754H65.5889ZM62.1074 208.995C62.1074 208.72 62.2009 208.494 62.3879 208.318C62.5749 208.131 62.8114 208.038 63.0974 208.038C63.3834 208.038 63.6199 208.131 63.8069 208.318C63.9939 208.494 64.0874 208.72 64.0874 208.995C64.0874 209.27 63.9939 209.501 63.8069 209.688C63.6199 209.864 63.3834 209.952 63.0974 209.952C62.8114 209.952 62.5749 209.864 62.3879 209.688C62.2009 209.501 62.1074 209.27 62.1074 208.995ZM65.5394 200.375C65.5394 199.352 65.8419 198.549 66.4469 197.966C67.0409 197.383 67.8659 197.092 68.9219 197.092H74.3174V198.626H69.3344C68.5974 198.626 68.0254 198.835 67.6184 199.253C67.2004 199.66 66.9914 200.227 66.9914 200.953C67.0024 201.734 67.2554 202.372 67.7504 202.867C68.2344 203.351 68.8669 203.626 69.6479 203.692H74.3174V205.226H65.5889V203.692H67.4369C66.1939 203.109 65.5614 202.003 65.5394 200.375ZM65.5889 186.628H73.4264C74.2624 186.628 74.9939 186.815 75.6209 187.189C76.2479 187.552 76.7264 188.069 77.0564 188.74C77.3974 189.411 77.5679 190.192 77.5679 191.083C77.5679 192.37 77.1609 193.569 76.3469 194.68L75.2249 194.003C75.5769 193.574 75.8354 193.129 76.0004 192.667C76.1764 192.205 76.2644 191.699 76.2644 191.149C76.2644 190.247 76.0114 189.526 75.5054 188.987C74.9994 188.448 74.3229 188.179 73.4759 188.179H72.2549C72.7829 188.487 73.1954 188.905 73.4924 189.433C73.7784 189.961 73.9214 190.566 73.9214 191.248C73.9214 192.029 73.7454 192.722 73.3934 193.327C73.0304 193.921 72.5299 194.383 71.8919 194.713C71.2539 195.043 70.5224 195.208 69.6974 195.208C68.8834 195.208 68.1629 195.043 67.5359 194.713C66.9089 194.383 66.4194 193.921 66.0674 193.327C65.7154 192.722 65.5394 192.029 65.5394 191.248C65.5394 190.555 65.6824 189.95 65.9684 189.433C66.2544 188.905 66.6614 188.487 67.1894 188.179H65.5889V186.628ZM72.6839 190.951C72.6839 190.412 72.5574 189.933 72.3044 189.515C72.0514 189.097 71.7049 188.773 71.2649 188.542C70.8139 188.3 70.3079 188.179 69.7469 188.179C69.1749 188.179 68.6689 188.3 68.2289 188.542C67.7779 188.773 67.4259 189.097 67.1729 189.515C66.9199 189.933 66.7934 190.412 66.7934 190.951C66.7934 191.49 66.9199 191.974 67.1729 192.403C67.4259 192.821 67.7779 193.151 68.2289 193.393C68.6689 193.635 69.1749 193.756 69.7469 193.756C70.6049 193.745 71.3089 193.481 71.8589 192.964C72.4089 192.447 72.6839 191.776 72.6839 190.951Z" fill="black"/>
<path d="M484.399 216.337C484.399 218.171 483.965 219.585 483.097 220.579C482.229 221.587 481.011 222.091 479.443 222.091C477.805 222.091 476.531 221.587 475.621 220.579C474.725 219.571 474.277 218.157 474.277 216.337V212.683H469.699V210.667H484.399V216.337ZM476.104 216.253C476.104 217.513 476.377 218.479 476.923 219.151C477.483 219.823 478.302 220.159 479.38 220.159C480.43 220.159 481.221 219.823 481.753 219.151C482.299 218.479 482.572 217.513 482.572 216.253L482.551 212.683H476.104V216.253ZM478.414 226.52C479.212 226.884 479.814 227.402 480.22 228.074C480.64 228.746 480.857 229.544 480.871 230.468H478.981C479.023 229.334 478.729 228.417 478.099 227.717C477.469 227.017 476.622 226.618 475.558 226.52H469.699V224.567H480.808V226.52H478.414ZM480.871 237.206C480.871 238.312 480.633 239.292 480.157 240.146C479.681 241.014 479.016 241.686 478.162 242.162C477.322 242.652 476.356 242.897 475.264 242.897C474.172 242.897 473.199 242.652 472.345 242.162C471.491 241.686 470.826 241.014 470.35 240.146C469.874 239.292 469.636 238.312 469.636 237.206C469.636 236.086 469.874 235.092 470.35 234.224C470.826 233.37 471.484 232.698 472.324 232.208C473.178 231.732 474.158 231.494 475.264 231.494C476.356 231.494 477.322 231.732 478.162 232.208C479.016 232.698 479.681 233.37 480.157 234.224C480.633 235.092 480.871 236.086 480.871 237.206ZM479.17 237.206C479.17 236.478 479.002 235.827 478.666 235.253C478.33 234.693 477.861 234.252 477.259 233.93C476.671 233.622 475.999 233.468 475.243 233.468C474.473 233.468 473.787 233.622 473.185 233.93C472.583 234.252 472.114 234.693 471.778 235.253C471.456 235.827 471.295 236.478 471.295 237.206C471.295 237.92 471.456 238.557 471.778 239.117C472.114 239.691 472.583 240.132 473.185 240.44C473.787 240.762 474.473 240.923 475.243 240.923C475.999 240.923 476.671 240.762 477.259 240.44C477.861 240.132 478.33 239.691 478.666 239.117C479.002 238.557 479.17 237.92 479.17 237.206ZM485.281 255.982H469.699V254.029H471.904C471.162 253.609 470.588 253.042 470.182 252.328C469.79 251.628 469.594 250.809 469.594 249.871C469.594 248.821 469.832 247.89 470.308 247.078C470.798 246.28 471.47 245.657 472.324 245.209C473.192 244.761 474.179 244.537 475.285 244.537C476.377 244.537 477.343 244.761 478.183 245.209C479.037 245.657 479.702 246.28 480.178 247.078C480.654 247.89 480.892 248.814 480.892 249.85C480.892 250.802 480.696 251.635 480.304 252.349C479.912 253.063 479.345 253.623 478.603 254.029H485.281V255.982ZM471.274 250.27C471.274 250.998 471.442 251.642 471.778 252.202C472.114 252.776 472.583 253.224 473.185 253.546C473.787 253.868 474.466 254.029 475.222 254.029C475.992 254.029 476.678 253.868 477.28 253.546C477.882 253.224 478.351 252.776 478.687 252.202C479.023 251.642 479.191 250.998 479.191 250.27C479.191 249.542 479.016 248.891 478.666 248.317C478.33 247.757 477.861 247.316 477.259 246.994C476.657 246.672 475.978 246.511 475.222 246.511C474.466 246.511 473.787 246.672 473.185 246.994C472.583 247.316 472.114 247.757 471.778 248.317C471.442 248.891 471.274 249.542 471.274 250.27ZM480.808 269.73H469.699V267.756H472.051C470.469 267.028 469.664 265.656 469.636 263.64C469.636 262.352 470.014 261.344 470.77 260.616C471.54 259.888 472.597 259.524 473.941 259.524H480.808V261.498H474.466C473.528 261.498 472.793 261.75 472.261 262.254C471.743 262.772 471.484 263.479 471.484 264.375C471.498 265.411 471.862 266.23 472.576 266.832C473.304 267.448 474.228 267.756 475.348 267.756H480.808V269.73ZM477.847 281.331C478.701 280.449 479.128 279.392 479.128 278.16C479.128 277.432 478.967 276.781 478.645 276.207C478.323 275.647 477.868 275.206 477.28 274.884C476.692 274.562 476.013 274.401 475.243 274.401C474.473 274.401 473.794 274.555 473.206 274.863C472.618 275.185 472.156 275.619 471.82 276.165C471.498 276.725 471.337 277.362 471.337 278.076C471.337 278.79 471.456 279.434 471.694 280.008C471.932 280.582 472.275 281.058 472.723 281.436L471.589 282.549C470.959 282.045 470.476 281.401 470.14 280.617C469.804 279.847 469.636 278.972 469.636 277.992C469.636 276.914 469.874 275.955 470.35 275.115C470.826 274.275 471.484 273.617 472.324 273.141C473.178 272.679 474.151 272.448 475.243 272.448C476.335 272.448 477.308 272.679 478.162 273.141C479.016 273.617 479.681 274.275 480.157 275.115C480.633 275.955 480.871 276.914 480.871 277.992C480.871 278.93 480.724 279.77 480.43 280.512C480.15 281.268 479.737 281.898 479.191 282.402L477.847 281.331ZM470.434 291.296C469.888 290.442 469.615 289.574 469.615 288.692C469.615 287.81 469.874 287.096 470.392 286.55C470.924 286.004 471.722 285.731 472.786 285.731H478.939V284.156H480.43V285.731H483.412V287.705H480.43V291.107H478.939V287.705H473.143C472.527 287.705 472.086 287.817 471.82 288.041C471.554 288.265 471.421 288.601 471.421 289.049C471.421 289.581 471.596 290.155 471.946 290.771L470.434 291.296ZM460.249 189.975V197.499L458.814 197.482V191.559H455.019V196.888H453.583V191.559H448.699V189.975H460.249ZM457.428 199.204V200.739H448.699V199.204H457.428ZM460.909 199.963C460.909 200.238 460.816 200.464 460.629 200.64C460.442 200.827 460.205 200.92 459.919 200.92C459.633 200.92 459.397 200.827 459.21 200.64C459.023 200.464 458.929 200.238 458.929 199.963C458.929 199.688 459.023 199.457 459.21 199.27C459.397 199.094 459.633 199.006 459.919 199.006C460.205 199.006 460.442 199.094 460.629 199.27C460.816 199.457 460.909 199.688 460.909 199.963ZM457.477 208.583C457.477 209.606 457.175 210.409 456.57 210.992C455.976 211.575 455.151 211.867 454.095 211.867H448.699V210.332H453.682C454.419 210.332 454.991 210.123 455.398 209.705C455.816 209.298 456.025 208.732 456.025 208.006C456.014 207.225 455.761 206.587 455.266 206.092C454.782 205.608 454.15 205.333 453.369 205.267H448.699V203.732H457.428V205.267H455.58C456.823 205.85 457.455 206.955 457.477 208.583ZM457.428 214.609V216.143H448.699V214.609H457.428ZM460.909 215.368C460.909 215.643 460.816 215.868 460.629 216.044C460.442 216.231 460.205 216.325 459.919 216.325C459.633 216.325 459.397 216.231 459.21 216.044C459.023 215.868 458.929 215.643 458.929 215.368C458.929 215.093 459.023 214.862 459.21 214.675C459.397 214.499 459.633 214.411 459.919 214.411C460.205 214.411 460.442 214.499 460.629 214.675C460.816 214.862 460.909 215.093 460.909 215.368ZM455.497 223.905C455.717 223.542 455.893 223.14 456.025 222.7C456.157 222.271 456.223 221.859 456.223 221.463C456.223 221.001 456.135 220.627 455.959 220.341C455.794 220.066 455.536 219.928 455.184 219.928C454.832 219.928 454.562 220.082 454.375 220.39C454.199 220.709 454.018 221.188 453.831 221.826C453.655 222.431 453.479 222.926 453.303 223.311C453.127 223.696 452.868 224.02 452.527 224.284C452.186 224.559 451.735 224.697 451.174 224.697C450.349 224.697 449.722 224.383 449.293 223.756C448.864 223.14 448.65 222.37 448.65 221.446C448.65 220.797 448.754 220.165 448.963 219.549C449.172 218.944 449.469 218.432 449.854 218.014L450.976 218.592C450.646 218.955 450.382 219.4 450.184 219.928C449.986 220.467 449.887 220.99 449.887 221.496C449.887 222.002 449.981 222.409 450.168 222.717C450.355 223.025 450.641 223.179 451.026 223.179C451.422 223.179 451.719 223.014 451.917 222.684C452.115 222.365 452.313 221.875 452.511 221.215C452.676 220.632 452.841 220.154 453.006 219.78C453.182 219.417 453.435 219.103 453.765 218.839C454.095 218.586 454.524 218.46 455.052 218.46C455.866 218.46 456.476 218.757 456.883 219.351C457.29 219.945 457.494 220.687 457.494 221.578C457.494 222.106 457.417 222.623 457.263 223.129C457.12 223.646 456.922 224.092 456.669 224.466L455.497 223.905ZM457.477 231.676C457.477 232.699 457.175 233.502 456.57 234.085C455.976 234.668 455.151 234.959 454.095 234.959H448.699V233.425H453.682C454.419 233.425 454.991 233.216 455.398 232.798C455.816 232.391 456.025 231.824 456.025 231.098C456.014 230.251 455.728 229.58 455.167 229.085C454.606 228.59 453.88 228.343 452.989 228.343H448.699V226.808H460.942V228.343H455.547C456.812 228.926 457.455 230.037 457.477 231.676ZM448.699 247.347H449.92C449.062 246.698 448.633 245.68 448.633 244.294C448.633 243.689 448.749 243.156 448.98 242.694C449.211 242.243 449.53 241.891 449.937 241.638C450.344 241.396 450.8 241.275 451.306 241.275C452.087 241.275 452.703 241.561 453.154 242.133C453.616 242.716 453.853 243.524 453.864 244.558V247.33H454.276C454.892 247.33 455.365 247.138 455.695 246.753C456.036 246.379 456.207 245.829 456.207 245.103C456.207 244.223 455.893 243.326 455.266 242.413L456.322 241.77C456.729 242.397 457.021 242.974 457.197 243.502C457.384 244.041 457.477 244.679 457.477 245.416C457.477 246.505 457.208 247.347 456.669 247.941C456.141 248.535 455.398 248.837 454.441 248.848L448.699 248.865V247.347ZM449.904 244.608C449.904 245.323 450.074 245.928 450.415 246.423C450.767 246.929 451.229 247.231 451.801 247.33H452.676V244.773C452.676 244.08 452.571 243.563 452.362 243.222C452.153 242.892 451.823 242.727 451.372 242.727C450.921 242.727 450.564 242.897 450.3 243.238C450.036 243.579 449.904 244.036 449.904 244.608ZM457.477 260.774C457.477 261.588 457.29 262.314 456.916 262.952C456.542 263.59 456.02 264.085 455.349 264.437C454.678 264.789 453.908 264.965 453.039 264.965C452.181 264.965 451.416 264.789 450.745 264.437C450.085 264.096 449.568 263.606 449.194 262.968C448.831 262.341 448.65 261.621 448.65 260.807C448.65 260.07 448.804 259.421 449.112 258.86C449.42 258.299 449.86 257.859 450.432 257.54H445.498V256.005H457.428V257.54H455.695C456.267 257.859 456.707 258.293 457.015 258.843C457.323 259.404 457.477 260.048 457.477 260.774ZM449.986 260.477C449.986 261.038 450.118 261.538 450.382 261.978C450.646 262.429 451.015 262.776 451.488 263.018C451.961 263.271 452.494 263.397 453.088 263.397C453.671 263.397 454.199 263.271 454.672 263.018C455.145 262.765 455.514 262.418 455.778 261.978C456.042 261.538 456.174 261.038 456.174 260.477C456.174 259.916 456.042 259.41 455.778 258.959C455.514 258.519 455.145 258.172 454.672 257.919C454.199 257.666 453.671 257.54 453.088 257.54C452.483 257.54 451.944 257.666 451.471 257.919C451.009 258.172 450.646 258.519 450.382 258.959C450.118 259.41 449.986 259.916 449.986 260.477ZM455.547 268.64C456.174 268.926 456.647 269.333 456.966 269.861C457.296 270.389 457.466 271.016 457.477 271.742H455.992C456.025 270.851 455.794 270.131 455.299 269.581C454.804 269.031 454.139 268.717 453.303 268.64H448.699V267.106H457.428V268.64H455.547ZM457.477 277.036C457.477 277.905 457.29 278.675 456.916 279.346C456.542 280.028 456.02 280.556 455.349 280.93C454.689 281.315 453.93 281.507 453.072 281.507C452.214 281.507 451.449 281.315 450.778 280.93C450.107 280.556 449.585 280.028 449.211 279.346C448.837 278.675 448.65 277.905 448.65 277.036C448.65 276.156 448.837 275.375 449.211 274.693C449.585 274.022 450.102 273.494 450.762 273.109C451.433 272.735 452.203 272.548 453.072 272.548C453.93 272.548 454.689 272.735 455.349 273.109C456.02 273.494 456.542 274.022 456.916 274.693C457.29 275.375 457.477 276.156 457.477 277.036ZM456.141 277.036C456.141 276.464 456.009 275.952 455.745 275.501C455.481 275.061 455.112 274.715 454.639 274.462C454.177 274.22 453.649 274.099 453.055 274.099C452.45 274.099 451.911 274.22 451.438 274.462C450.965 274.715 450.597 275.061 450.333 275.501C450.08 275.952 449.953 276.464 449.953 277.036C449.953 277.597 450.08 278.097 450.333 278.537C450.597 278.988 450.965 279.335 451.438 279.577C451.911 279.83 452.45 279.956 453.055 279.956C453.649 279.956 454.177 279.83 454.639 279.577C455.112 279.335 455.481 278.988 455.745 278.537C456.009 278.097 456.141 277.597 456.141 277.036ZM446.917 281.542C446.829 281.784 446.774 282.048 446.752 282.334C446.741 282.752 446.884 283.071 447.181 283.291C447.478 283.511 447.913 283.621 448.485 283.621H457.428V285.172H448.27C447.368 285.172 446.675 284.952 446.191 284.512C445.696 284.083 445.449 283.472 445.449 282.68C445.449 282.185 445.548 281.685 445.746 281.179L446.917 281.542ZM460.909 284.38C460.909 284.655 460.816 284.88 460.629 285.056C460.442 285.243 460.205 285.337 459.919 285.337C459.633 285.337 459.397 285.243 459.21 285.056C459.023 284.88 458.929 284.655 458.929 284.38C458.929 284.105 459.023 283.874 459.21 283.687C459.397 283.511 459.633 283.423 459.919 283.423C460.205 283.423 460.442 283.511 460.629 283.687C460.816 283.874 460.909 284.105 460.909 284.38ZM457.477 291.486C457.477 292.839 457.076 293.862 456.273 294.555C455.481 295.248 454.375 295.595 452.956 295.595C452.736 295.595 452.571 295.589 452.461 295.578V288.681C451.68 288.802 451.059 289.127 450.597 289.655C450.135 290.194 449.904 290.854 449.904 291.635C449.904 292.152 449.997 292.63 450.184 293.07C450.371 293.521 450.635 293.912 450.976 294.242L450.102 295.083C449.64 294.654 449.282 294.137 449.029 293.532C448.776 292.927 448.65 292.256 448.65 291.519C448.65 290.661 448.831 289.897 449.194 289.226C449.568 288.566 450.091 288.049 450.762 287.675C451.433 287.312 452.197 287.13 453.055 287.13C453.913 287.13 454.672 287.312 455.332 287.675C456.003 288.049 456.526 288.566 456.9 289.226C457.285 289.886 457.477 290.639 457.477 291.486ZM453.649 294.209C454.441 294.165 455.063 293.901 455.514 293.417C455.976 292.933 456.207 292.295 456.207 291.503C456.207 290.733 455.976 290.089 455.514 289.572C455.052 289.066 454.43 288.764 453.649 288.665V294.209ZM455.101 303.81C455.772 303.117 456.108 302.287 456.108 301.319C456.108 300.747 455.981 300.235 455.728 299.784C455.475 299.344 455.118 298.998 454.656 298.745C454.194 298.492 453.66 298.365 453.055 298.365C452.45 298.365 451.917 298.486 451.455 298.728C450.993 298.981 450.63 299.322 450.366 299.751C450.113 300.191 449.986 300.692 449.986 301.253C449.986 301.814 450.08 302.32 450.267 302.771C450.454 303.222 450.723 303.596 451.075 303.893L450.184 304.767C449.689 304.371 449.31 303.865 449.046 303.249C448.782 302.644 448.65 301.957 448.65 301.187C448.65 300.34 448.837 299.586 449.211 298.926C449.585 298.266 450.102 297.749 450.762 297.375C451.433 297.012 452.197 296.831 453.055 296.831C453.913 296.831 454.678 297.012 455.349 297.375C456.02 297.749 456.542 298.266 456.916 298.926C457.29 299.586 457.477 300.34 457.477 301.187C457.477 301.924 457.362 302.584 457.131 303.167C456.911 303.761 456.586 304.256 456.157 304.652L455.101 303.81ZM449.277 311.64C448.848 310.969 448.633 310.287 448.633 309.594C448.633 308.901 448.837 308.34 449.244 307.911C449.662 307.482 450.289 307.267 451.125 307.267H455.959V306.03H457.131V307.267H459.474V308.818H457.131V311.491H455.959V308.818H451.405C450.921 308.818 450.575 308.906 450.366 309.082C450.157 309.258 450.052 309.522 450.052 309.874C450.052 310.292 450.19 310.743 450.465 311.227L449.277 311.64Z" fill="black"/>
<path d="M206.056 41.1606L203.137 36.5406C202.801 36.5686 202.528 36.5826 202.318 36.5826H198.58V41.1606H196.564V26.4606H202.318C204.18 26.4606 205.615 26.8946 206.623 27.7626C207.645 28.6166 208.156 29.8346 208.156 31.4166C208.156 32.6066 207.876 33.6076 207.316 34.4196C206.77 35.2316 205.979 35.8196 204.943 36.1836L208.366 41.1606H206.056ZM202.318 34.7556C203.578 34.7556 204.544 34.4826 205.216 33.9366C205.888 33.3766 206.224 32.5576 206.224 31.4796C206.224 30.4296 205.888 29.6386 205.216 29.1066C204.544 28.5606 203.578 28.2876 202.318 28.2876H198.58V34.7556H202.318ZM216.002 29.9886C217.724 29.9886 219.026 30.4996 219.908 31.5216C220.79 32.5296 221.231 33.9366 221.231 35.7426C221.231 36.0226 221.224 36.2326 221.21 36.3726H212.432C212.586 37.3666 212.999 38.1576 213.671 38.7456C214.357 39.3336 215.197 39.6276 216.191 39.6276C216.849 39.6276 217.458 39.5086 218.018 39.2706C218.592 39.0326 219.089 38.6966 219.509 38.2626L220.58 39.3756C220.034 39.9636 219.376 40.4186 218.606 40.7406C217.836 41.0626 216.982 41.2236 216.044 41.2236C214.952 41.2236 213.979 40.9926 213.125 40.5306C212.285 40.0546 211.627 39.3896 211.151 38.5356C210.689 37.6816 210.458 36.7086 210.458 35.6166C210.458 34.5246 210.689 33.5586 211.151 32.7186C211.627 31.8646 212.285 31.1996 213.125 30.7236C213.965 30.2336 214.924 29.9886 216.002 29.9886ZM219.467 34.8606C219.411 33.8526 219.075 33.0616 218.459 32.4876C217.843 31.8996 217.031 31.6056 216.023 31.6056C215.043 31.6056 214.224 31.8996 213.566 32.4876C212.922 33.0756 212.537 33.8666 212.411 34.8606H219.467ZM231.687 33.0126C230.805 32.1586 229.748 31.7316 228.516 31.7316C227.788 31.7316 227.137 31.8926 226.563 32.2146C226.003 32.5366 225.562 32.9916 225.24 33.5796C224.918 34.1676 224.757 34.8466 224.757 35.6166C224.757 36.3866 224.911 37.0656 225.219 37.6536C225.541 38.2416 225.975 38.7036 226.521 39.0396C227.081 39.3616 227.718 39.5226 228.432 39.5226C229.146 39.5226 229.79 39.4036 230.364 39.1656C230.938 38.9276 231.414 38.5846 231.792 38.1366L232.905 39.2706C232.401 39.9006 231.757 40.3836 230.973 40.7196C230.203 41.0556 229.328 41.2236 228.348 41.2236C227.27 41.2236 226.311 40.9856 225.471 40.5096C224.631 40.0336 223.973 39.3756 223.497 38.5356C223.035 37.6816 222.804 36.7086 222.804 35.6166C222.804 34.5246 223.035 33.5516 223.497 32.6976C223.973 31.8436 224.631 31.1786 225.471 30.7026C226.311 30.2266 227.27 29.9886 228.348 29.9886C229.286 29.9886 230.126 30.1356 230.868 30.4296C231.624 30.7096 232.254 31.1226 232.758 31.6686L231.687 33.0126ZM237.641 32.4456C238.005 31.6476 238.523 31.0456 239.195 30.6396C239.867 30.2196 240.665 30.0026 241.589 29.9886V31.8786C240.455 31.8366 239.538 32.1306 238.838 32.7606C238.138 33.3906 237.739 34.2376 237.641 35.3016V41.1606H235.688V30.0516H237.641V32.4456ZM248.159 29.9886C249.881 29.9886 251.183 30.4996 252.065 31.5216C252.947 32.5296 253.388 33.9366 253.388 35.7426C253.388 36.0226 253.381 36.2326 253.367 36.3726H244.589C244.743 37.3666 245.156 38.1576 245.828 38.7456C246.514 39.3336 247.354 39.6276 248.348 39.6276C249.006 39.6276 249.615 39.5086 250.175 39.2706C250.749 39.0326 251.246 38.6966 251.666 38.2626L252.737 39.3756C252.191 39.9636 251.533 40.4186 250.763 40.7406C249.993 41.0626 249.139 41.2236 248.201 41.2236C247.109 41.2236 246.136 40.9926 245.282 40.5306C244.442 40.0546 243.784 39.3896 243.308 38.5356C242.846 37.6816 242.615 36.7086 242.615 35.6166C242.615 34.5246 242.846 33.5586 243.308 32.7186C243.784 31.8646 244.442 31.1996 245.282 30.7236C246.122 30.2336 247.081 29.9886 248.159 29.9886ZM251.624 34.8606C251.568 33.8526 251.232 33.0616 250.616 32.4876C250 31.8996 249.188 31.6056 248.18 31.6056C247.2 31.6056 246.381 31.8996 245.723 32.4876C245.079 33.0756 244.694 33.8666 244.568 34.8606H251.624ZM262.835 41.1606V39.6066C262.009 40.6986 260.714 41.2446 258.95 41.2446C258.18 41.2446 257.501 41.0976 256.913 40.8036C256.339 40.5096 255.891 40.1036 255.569 39.5856C255.261 39.0676 255.107 38.4866 255.107 37.8426C255.107 36.8486 255.471 36.0646 256.199 35.4906C256.941 34.9026 257.97 34.6016 259.286 34.5876H262.814V34.0626C262.814 33.2786 262.569 32.6766 262.079 32.2566C261.603 31.8226 260.903 31.6056 259.979 31.6056C258.859 31.6056 257.718 32.0046 256.556 32.8026L255.737 31.4586C256.535 30.9406 257.27 30.5696 257.942 30.3456C258.628 30.1076 259.44 29.9886 260.378 29.9886C261.764 29.9886 262.835 30.3316 263.591 31.0176C264.347 31.6896 264.732 32.6346 264.746 33.8526L264.767 41.1606H262.835ZM259.349 39.6276C260.259 39.6276 261.029 39.4106 261.659 38.9766C262.303 38.5286 262.688 37.9406 262.814 37.2126V36.0996H259.559C258.677 36.0996 258.019 36.2326 257.585 36.4986C257.165 36.7646 256.955 37.1846 256.955 37.7586C256.955 38.3326 257.172 38.7876 257.606 39.1236C258.04 39.4596 258.621 39.6276 259.349 39.6276ZM274.219 40.4256C273.365 40.9716 272.497 41.2446 271.615 41.2446C270.733 41.2446 270.019 40.9856 269.473 40.4676C268.927 39.9356 268.654 39.1376 268.654 38.0736V31.9206H267.079V30.4296H268.654V27.4476H270.628V30.4296H274.03V31.9206H270.628V37.7166C270.628 38.3326 270.74 38.7736 270.964 39.0396C271.188 39.3056 271.524 39.4386 271.972 39.4386C272.504 39.4386 273.078 39.2636 273.694 38.9136L274.219 40.4256ZM276.601 30.0516H278.554V41.1606H276.601V30.0516ZM277.567 25.6206C277.917 25.6206 278.204 25.7396 278.428 25.9776C278.666 26.2156 278.785 26.5166 278.785 26.8806C278.785 27.2446 278.666 27.5456 278.428 27.7836C278.204 28.0216 277.917 28.1406 277.567 28.1406C277.217 28.1406 276.923 28.0216 276.685 27.7836C276.461 27.5456 276.349 27.2446 276.349 26.8806C276.349 26.5166 276.461 26.2156 276.685 25.9776C276.923 25.7396 277.217 25.6206 277.567 25.6206ZM286.984 29.9886C288.09 29.9886 289.07 30.2266 289.924 30.7026C290.792 31.1786 291.464 31.8436 291.94 32.6976C292.43 33.5376 292.675 34.5036 292.675 35.5956C292.675 36.6876 292.43 37.6606 291.94 38.5146C291.464 39.3686 290.792 40.0336 289.924 40.5096C289.07 40.9856 288.09 41.2236 286.984 41.2236C285.864 41.2236 284.87 40.9856 284.002 40.5096C283.148 40.0336 282.476 39.3756 281.986 38.5356C281.51 37.6816 281.272 36.7016 281.272 35.5956C281.272 34.5036 281.51 33.5376 281.986 32.6976C282.476 31.8436 283.148 31.1786 284.002 30.7026C284.87 30.2266 285.864 29.9886 286.984 29.9886ZM286.984 31.6896C286.256 31.6896 285.605 31.8576 285.031 32.1936C284.471 32.5296 284.03 32.9986 283.708 33.6006C283.4 34.1886 283.246 34.8606 283.246 35.6166C283.246 36.3866 283.4 37.0726 283.708 37.6746C284.03 38.2766 284.471 38.7456 285.031 39.0816C285.605 39.4036 286.256 39.5646 286.984 39.5646C287.698 39.5646 288.335 39.4036 288.895 39.0816C289.469 38.7456 289.91 38.2766 290.218 37.6746C290.54 37.0726 290.701 36.3866 290.701 35.6166C290.701 34.8606 290.54 34.1886 290.218 33.6006C289.91 32.9986 289.469 32.5296 288.895 32.1936C288.335 31.8576 287.698 31.6896 286.984 31.6896ZM301.581 29.9886C302.883 29.9886 303.905 30.3736 304.647 31.1436C305.389 31.8996 305.76 32.9496 305.76 34.2936V41.1606H303.807V34.8186C303.807 33.8806 303.541 33.1526 303.009 32.6346C302.491 32.1026 301.77 31.8366 300.846 31.8366C299.852 31.8506 299.04 32.1726 298.41 32.8026C297.794 33.4186 297.444 34.2236 297.36 35.2176V41.1606H295.407V30.0516H297.36V32.4036C298.102 30.8216 299.509 30.0166 301.581 29.9886ZM316.033 41.1606V39.6066C315.207 40.6986 313.912 41.2446 312.148 41.2446C311.378 41.2446 310.699 41.0976 310.111 40.8036C309.537 40.5096 309.089 40.1036 308.767 39.5856C308.459 39.0676 308.305 38.4866 308.305 37.8426C308.305 36.8486 308.669 36.0646 309.397 35.4906C310.139 34.9026 311.168 34.6016 312.484 34.5876H316.012V34.0626C316.012 33.2786 315.767 32.6766 315.277 32.2566C314.801 31.8226 314.101 31.6056 313.177 31.6056C312.057 31.6056 310.916 32.0046 309.754 32.8026L308.935 31.4586C309.733 30.9406 310.468 30.5696 311.14 30.3456C311.826 30.1076 312.638 29.9886 313.576 29.9886C314.962 29.9886 316.033 30.3316 316.789 31.0176C317.545 31.6896 317.93 32.6346 317.944 33.8526L317.965 41.1606H316.033ZM312.547 39.6276C313.457 39.6276 314.227 39.4106 314.857 38.9766C315.501 38.5286 315.886 37.9406 316.012 37.2126V36.0996H312.757C311.875 36.0996 311.217 36.2326 310.783 36.4986C310.363 36.7646 310.153 37.1846 310.153 37.7586C310.153 38.3326 310.37 38.7876 310.804 39.1236C311.238 39.4596 311.819 39.6276 312.547 39.6276ZM321.557 25.5786H323.51V41.1606H321.557V25.5786ZM173.579 50.6106C175.02 50.6106 176.131 50.9516 176.912 51.6336C177.704 52.3156 178.1 53.2726 178.1 54.5046C178.1 55.7916 177.704 56.7926 176.912 57.5076C176.12 58.2116 175.009 58.5636 173.579 58.5636H170.708V62.1606H169.124V50.6106H173.579ZM173.513 57.1281C174.503 57.1281 175.262 56.9136 175.79 56.4846C176.318 56.0446 176.582 55.4011 176.582 54.5541C176.582 53.7291 176.318 53.1076 175.79 52.6896C175.262 52.2606 174.503 52.0461 173.513 52.0461L170.708 52.0626V57.1281H173.513ZM183.543 53.3826C184.896 53.3826 185.919 53.7841 186.612 54.5871C187.305 55.3791 187.652 56.4846 187.652 57.9036C187.652 58.1236 187.646 58.2886 187.635 58.3986H180.738C180.859 59.1796 181.184 59.8011 181.712 60.2631C182.251 60.7251 182.911 60.9561 183.692 60.9561C184.209 60.9561 184.687 60.8626 185.127 60.6756C185.578 60.4886 185.969 60.2246 186.299 59.8836L187.14 60.7581C186.711 61.2201 186.194 61.5776 185.589 61.8306C184.984 62.0836 184.313 62.2101 183.576 62.2101C182.718 62.2101 181.954 62.0286 181.283 61.6656C180.623 61.2916 180.106 60.7691 179.732 60.0981C179.369 59.4271 179.187 58.6626 179.187 57.8046C179.187 56.9466 179.369 56.1876 179.732 55.5276C180.106 54.8566 180.623 54.3341 181.283 53.9601C181.943 53.5751 182.696 53.3826 183.543 53.3826ZM186.266 57.2106C186.222 56.4186 185.958 55.7971 185.474 55.3461C184.99 54.8841 184.352 54.6531 183.56 54.6531C182.79 54.6531 182.146 54.8841 181.629 55.3461C181.123 55.8081 180.821 56.4296 180.722 57.2106H186.266ZM191.28 55.3131C191.566 54.6861 191.973 54.2131 192.501 53.8941C193.029 53.5641 193.656 53.3936 194.382 53.3826V54.8676C193.491 54.8346 192.77 55.0656 192.22 55.5606C191.67 56.0556 191.357 56.7211 191.28 57.5571V62.1606H189.745V53.4321H191.28V55.3131ZM200.814 55.3626C200.451 55.1426 200.05 54.9666 199.61 54.8346C199.181 54.7026 198.768 54.6366 198.372 54.6366C197.91 54.6366 197.536 54.7246 197.25 54.9006C196.975 55.0656 196.838 55.3241 196.838 55.6761C196.838 56.0281 196.992 56.2976 197.3 56.4846C197.619 56.6606 198.097 56.8421 198.735 57.0291C199.34 57.2051 199.835 57.3811 200.22 57.5571C200.605 57.7331 200.93 57.9916 201.194 58.3326C201.469 58.6736 201.606 59.1246 201.606 59.6856C201.606 60.5106 201.293 61.1376 200.666 61.5666C200.05 61.9956 199.28 62.2101 198.356 62.2101C197.707 62.2101 197.074 62.1056 196.458 61.8966C195.853 61.6876 195.342 61.3906 194.924 61.0056L195.501 59.8836C195.864 60.2136 196.31 60.4776 196.838 60.6756C197.377 60.8736 197.899 60.9726 198.405 60.9726C198.911 60.9726 199.318 60.8791 199.626 60.6921C199.934 60.5051 200.088 60.2191 200.088 59.8341C200.088 59.4381 199.923 59.1411 199.593 58.9431C199.274 58.7451 198.785 58.5471 198.125 58.3491C197.542 58.1841 197.063 58.0191 196.689 57.8541C196.326 57.6781 196.013 57.4251 195.749 57.0951C195.496 56.7651 195.369 56.3361 195.369 55.8081C195.369 54.9941 195.666 54.3836 196.26 53.9766C196.854 53.5696 197.597 53.3661 198.488 53.3661C199.016 53.3661 199.533 53.4431 200.039 53.5971C200.556 53.7401 201.001 53.9381 201.375 54.1911L200.814 55.3626ZM207.265 53.3826C208.134 53.3826 208.904 53.5696 209.575 53.9436C210.257 54.3176 210.785 54.8401 211.159 55.5111C211.544 56.1711 211.737 56.9301 211.737 57.7881C211.737 58.6461 211.544 59.4106 211.159 60.0816C210.785 60.7526 210.257 61.2751 209.575 61.6491C208.904 62.0231 208.134 62.2101 207.265 62.2101C206.385 62.2101 205.604 62.0231 204.922 61.6491C204.251 61.2751 203.723 60.7581 203.338 60.0981C202.964 59.4271 202.777 58.6571 202.777 57.7881C202.777 56.9301 202.964 56.1711 203.338 55.5111C203.723 54.8401 204.251 54.3176 204.922 53.9436C205.604 53.5696 206.385 53.3826 207.265 53.3826ZM207.265 54.7191C206.693 54.7191 206.182 54.8511 205.731 55.1151C205.291 55.3791 204.944 55.7476 204.691 56.2206C204.449 56.6826 204.328 57.2106 204.328 57.8046C204.328 58.4096 204.449 58.9486 204.691 59.4216C204.944 59.8946 205.291 60.2631 205.731 60.5271C206.182 60.7801 206.693 60.9066 207.265 60.9066C207.826 60.9066 208.327 60.7801 208.767 60.5271C209.218 60.2631 209.564 59.8946 209.806 59.4216C210.059 58.9486 210.186 58.4096 210.186 57.8046C210.186 57.2106 210.059 56.6826 209.806 56.2206C209.564 55.7476 209.218 55.3791 208.767 55.1151C208.327 54.8511 207.826 54.7191 207.265 54.7191ZM218.734 53.3826C219.757 53.3826 220.56 53.6851 221.143 54.2901C221.726 54.8841 222.018 55.7091 222.018 56.7651V62.1606H220.483V57.1776C220.483 56.4406 220.274 55.8686 219.856 55.4616C219.449 55.0436 218.883 54.8346 218.157 54.8346C217.376 54.8456 216.738 55.0986 216.243 55.5936C215.759 56.0776 215.484 56.7101 215.418 57.4911V62.1606H213.883V53.4321H215.418V55.2801C216.001 54.0371 217.106 53.4046 218.734 53.3826ZM230.089 62.1606V60.9396C229.44 61.7976 228.423 62.2266 227.037 62.2266C226.432 62.2266 225.898 62.1111 225.436 61.8801C224.985 61.6491 224.633 61.3301 224.38 60.9231C224.138 60.5161 224.017 60.0596 224.017 59.5536C224.017 58.7726 224.303 58.1566 224.875 57.7056C225.458 57.2436 226.267 57.0071 227.301 56.9961H230.073V56.5836C230.073 55.9676 229.88 55.4946 229.495 55.1646C229.121 54.8236 228.571 54.6531 227.845 54.6531C226.965 54.6531 226.069 54.9666 225.156 55.5936L224.512 54.5376C225.139 54.1306 225.717 53.8391 226.245 53.6631C226.784 53.4761 227.422 53.3826 228.159 53.3826C229.248 53.3826 230.089 53.6521 230.683 54.1911C231.277 54.7191 231.58 55.4616 231.591 56.4186L231.607 62.1606H230.089ZM227.35 60.9561C228.065 60.9561 228.67 60.7856 229.165 60.4446C229.671 60.0926 229.974 59.6306 230.073 59.0586V58.1841H227.515C226.822 58.1841 226.305 58.2886 225.964 58.4976C225.634 58.7066 225.469 59.0366 225.469 59.4876C225.469 59.9386 225.64 60.2961 225.981 60.5601C226.322 60.8241 226.778 60.9561 227.35 60.9561ZM234.43 49.9176H235.964V62.1606H234.43V49.9176ZM248.221 50.6106C249.343 50.6106 250.355 50.8636 251.257 51.3696C252.17 51.8646 252.885 52.5521 253.402 53.4321C253.919 54.3121 254.178 55.2966 254.178 56.3856C254.178 57.4746 253.914 58.4591 253.386 59.3391C252.869 60.2191 252.154 60.9121 251.241 61.4181C250.328 61.9131 249.305 62.1606 248.172 62.1606H243.519V50.6106H248.221ZM248.254 60.7251C249.057 60.7251 249.783 60.5381 250.432 60.1641C251.092 59.7901 251.609 59.2731 251.983 58.6131C252.368 57.9531 252.561 57.2161 252.561 56.4021C252.561 55.5771 252.368 54.8346 251.983 54.1746C251.598 53.5146 251.07 52.9976 250.399 52.6236C249.739 52.2386 249.002 52.0461 248.188 52.0461H245.103V60.7251H248.254ZM259.791 53.3826C261.144 53.3826 262.167 53.7841 262.86 54.5871C263.553 55.3791 263.9 56.4846 263.9 57.9036C263.9 58.1236 263.894 58.2886 263.883 58.3986H256.986C257.107 59.1796 257.432 59.8011 257.96 60.2631C258.499 60.7251 259.159 60.9561 259.94 60.9561C260.457 60.9561 260.935 60.8626 261.375 60.6756C261.826 60.4886 262.217 60.2246 262.547 59.8836L263.388 60.7581C262.959 61.2201 262.442 61.5776 261.837 61.8306C261.232 62.0836 260.561 62.2101 259.824 62.2101C258.966 62.2101 258.202 62.0286 257.531 61.6656C256.871 61.2916 256.354 60.7691 255.98 60.0981C255.617 59.4271 255.435 58.6626 255.435 57.8046C255.435 56.9466 255.617 56.1876 255.98 55.5276C256.354 54.8566 256.871 54.3341 257.531 53.9601C258.191 53.5751 258.944 53.3826 259.791 53.3826ZM262.514 57.2106C262.47 56.4186 262.206 55.7971 261.722 55.3461C261.238 54.8841 260.6 54.6531 259.808 54.6531C259.038 54.6531 258.394 54.8841 257.877 55.3461C257.371 55.8081 257.069 56.4296 256.97 57.2106H262.514ZM264.251 53.4321H265.885L268.508 60.6426L271.115 53.4321H272.666L269.267 62.1606H267.667L264.251 53.4321ZM277.323 53.3826C278.676 53.3826 279.699 53.7841 280.392 54.5871C281.085 55.3791 281.431 56.4846 281.431 57.9036C281.431 58.1236 281.426 58.2886 281.415 58.3986H274.518C274.639 59.1796 274.963 59.8011 275.491 60.2631C276.03 60.7251 276.69 60.9561 277.471 60.9561C277.988 60.9561 278.467 60.8626 278.907 60.6756C279.358 60.4886 279.748 60.2246 280.078 59.8836L280.92 60.7581C280.491 61.2201 279.974 61.5776 279.369 61.8306C278.764 62.0836 278.093 62.2101 277.356 62.2101C276.498 62.2101 275.733 62.0286 275.062 61.6656C274.402 61.2916 273.885 60.7691 273.511 60.0981C273.148 59.4271 272.967 58.6626 272.967 57.8046C272.967 56.9466 273.148 56.1876 273.511 55.5276C273.885 54.8566 274.402 54.3341 275.062 53.9601C275.722 53.5751 276.476 53.3826 277.323 53.3826ZM280.045 57.2106C280.001 56.4186 279.737 55.7971 279.253 55.3461C278.769 54.8841 278.131 54.6531 277.339 54.6531C276.569 54.6531 275.926 54.8841 275.409 55.3461C274.903 55.8081 274.6 56.4296 274.501 57.2106H280.045ZM283.607 49.9176H285.142V62.1606H283.607V49.9176ZM291.86 53.3826C292.729 53.3826 293.499 53.5696 294.17 53.9436C294.852 54.3176 295.38 54.8401 295.754 55.5111C296.139 56.1711 296.331 56.9301 296.331 57.7881C296.331 58.6461 296.139 59.4106 295.754 60.0816C295.38 60.7526 294.852 61.2751 294.17 61.6491C293.499 62.0231 292.729 62.2101 291.86 62.2101C290.98 62.2101 290.199 62.0231 289.517 61.6491C288.846 61.2751 288.318 60.7581 287.933 60.0981C287.559 59.4271 287.372 58.6571 287.372 57.7881C287.372 56.9301 287.559 56.1711 287.933 55.5111C288.318 54.8401 288.846 54.3176 289.517 53.9436C290.199 53.5696 290.98 53.3826 291.86 53.3826ZM291.86 54.7191C291.288 54.7191 290.776 54.8511 290.325 55.1151C289.885 55.3791 289.539 55.7476 289.286 56.2206C289.044 56.6826 288.923 57.2106 288.923 57.8046C288.923 58.4096 289.044 58.9486 289.286 59.4216C289.539 59.8946 289.885 60.2631 290.325 60.5271C290.776 60.7801 291.288 60.9066 291.86 60.9066C292.421 60.9066 292.921 60.7801 293.361 60.5271C293.812 60.2631 294.159 59.8946 294.401 59.4216C294.654 58.9486 294.78 58.4096 294.78 57.8046C294.78 57.2106 294.654 56.6826 294.401 56.2206C294.159 55.7476 293.812 55.3791 293.361 55.1151C292.921 54.8511 292.421 54.7191 291.86 54.7191ZM303.329 53.3826C304.143 53.3826 304.869 53.5696 305.507 53.9436C306.145 54.3176 306.64 54.8401 306.992 55.5111C307.344 56.1821 307.52 56.9521 307.52 57.8211C307.52 58.6791 307.344 59.4436 306.992 60.1146C306.651 60.7746 306.161 61.2916 305.523 61.6656C304.896 62.0286 304.176 62.2101 303.362 62.2101C302.625 62.2101 301.976 62.0561 301.415 61.7481C300.854 61.4401 300.414 61.0001 300.095 60.4281V65.3616H298.56V53.4321H300.095V55.1646C300.414 54.5926 300.848 54.1526 301.398 53.8446C301.959 53.5366 302.603 53.3826 303.329 53.3826ZM303.032 60.8736C303.593 60.8736 304.093 60.7416 304.533 60.4776C304.984 60.2136 305.331 59.8451 305.573 59.3721C305.826 58.8991 305.952 58.3656 305.952 57.7716C305.952 57.1886 305.826 56.6606 305.573 56.1876C305.32 55.7146 304.973 55.3461 304.533 55.0821C304.093 54.8181 303.593 54.6861 303.032 54.6861C302.471 54.6861 301.965 54.8181 301.514 55.0821C301.074 55.3461 300.727 55.7146 300.474 56.1876C300.221 56.6606 300.095 57.1886 300.095 57.7716C300.095 58.3766 300.221 58.9156 300.474 59.3886C300.727 59.8506 301.074 60.2136 301.514 60.4776C301.965 60.7416 302.471 60.8736 303.032 60.8736ZM320.93 53.3826C321.931 53.3826 322.718 53.6851 323.29 54.2901C323.862 54.8951 324.148 55.7201 324.148 56.7651V62.1606H322.597V57.1776C322.597 56.4406 322.393 55.8631 321.986 55.4451C321.59 55.0271 321.04 54.8181 320.336 54.8181C319.511 54.8401 318.862 55.1316 318.389 55.6926C317.916 56.2536 317.68 56.9741 317.68 57.8541V62.1606H316.129V57.1776C316.129 56.4406 315.931 55.8631 315.535 55.4451C315.139 55.0271 314.583 54.8181 313.868 54.8181C313.043 54.8401 312.389 55.1316 311.905 55.6926C311.432 56.2536 311.195 56.9741 311.195 57.8541V62.1606H309.661V53.4321H311.195V55.2636C311.767 54.0316 312.851 53.4046 314.446 53.3826C315.249 53.3826 315.914 53.5751 316.442 53.9601C316.981 54.3451 317.344 54.8841 317.531 55.5771C318.07 54.1361 319.203 53.4046 320.93 53.3826ZM330.384 53.3826C331.737 53.3826 332.76 53.7841 333.453 54.5871C334.146 55.3791 334.492 56.4846 334.492 57.9036C334.492 58.1236 334.487 58.2886 334.476 58.3986H327.579C327.7 59.1796 328.024 59.8011 328.552 60.2631C329.091 60.7251 329.751 60.9561 330.532 60.9561C331.049 60.9561 331.528 60.8626 331.968 60.6756C332.419 60.4886 332.809 60.2246 333.139 59.8836L333.981 60.7581C333.552 61.2201 333.035 61.5776 332.43 61.8306C331.825 62.0836 331.154 62.2101 330.417 62.2101C329.559 62.2101 328.794 62.0286 328.123 61.6656C327.463 61.2916 326.946 60.7691 326.572 60.0981C326.209 59.4271 326.028 58.6626 326.028 57.8046C326.028 56.9466 326.209 56.1876 326.572 55.5276C326.946 54.8566 327.463 54.3341 328.123 53.9601C328.783 53.5751 329.537 53.3826 330.384 53.3826ZM333.106 57.2106C333.062 56.4186 332.798 55.7971 332.314 55.3461C331.83 54.8841 331.192 54.6531 330.4 54.6531C329.63 54.6531 328.987 54.8841 328.47 55.3461C327.964 55.8081 327.661 56.4296 327.562 57.2106H333.106ZM341.437 53.3826C342.46 53.3826 343.263 53.6851 343.846 54.2901C344.429 54.8841 344.72 55.7091 344.72 56.7651V62.1606H343.186V57.1776C343.186 56.4406 342.977 55.8686 342.559 55.4616C342.152 55.0436 341.585 54.8346 340.859 54.8346C340.078 54.8456 339.44 55.0986 338.945 55.5936C338.461 56.0776 338.186 56.7101 338.12 57.4911V62.1606H336.586V53.4321H338.12V55.2801C338.703 54.0371 339.809 53.4046 341.437 53.3826ZM352.148 61.5831C351.477 62.0121 350.795 62.2266 350.102 62.2266C349.409 62.2266 348.848 62.0231 348.419 61.6161C347.99 61.1981 347.776 60.5711 347.776 59.7351V54.9006H346.538V53.7291H347.776V51.3861H349.327V53.7291H352V54.9006H349.327V59.4546C349.327 59.9386 349.415 60.2851 349.591 60.4941C349.767 60.7031 350.031 60.8076 350.383 60.8076C350.801 60.8076 351.252 60.6701 351.736 60.3951L352.148 61.5831Z" fill="black"/>
<path d="M204.787 433.325H206.95L211.801 445.778L216.652 433.325H218.773L212.809 448.025H210.709L204.787 433.325ZM224.338 436.853C225.444 436.853 226.424 437.091 227.278 437.567C228.146 438.043 228.818 438.708 229.294 439.562C229.784 440.402 230.029 441.368 230.029 442.46C230.029 443.552 229.784 444.525 229.294 445.379C228.818 446.233 228.146 446.898 227.278 447.374C226.424 447.85 225.444 448.088 224.338 448.088C223.218 448.088 222.224 447.85 221.356 447.374C220.502 446.898 219.83 446.24 219.34 445.4C218.864 444.546 218.626 443.566 218.626 442.46C218.626 441.368 218.864 440.402 219.34 439.562C219.83 438.708 220.502 438.043 221.356 437.567C222.224 437.091 223.218 436.853 224.338 436.853ZM224.338 438.554C223.61 438.554 222.959 438.722 222.385 439.058C221.825 439.394 221.384 439.863 221.062 440.465C220.754 441.053 220.6 441.725 220.6 442.481C220.6 443.251 220.754 443.937 221.062 444.539C221.384 445.141 221.825 445.61 222.385 445.946C222.959 446.268 223.61 446.429 224.338 446.429C225.052 446.429 225.689 446.268 226.249 445.946C226.823 445.61 227.264 445.141 227.572 444.539C227.894 443.937 228.055 443.251 228.055 442.481C228.055 441.725 227.894 441.053 227.572 440.465C227.264 439.863 226.823 439.394 226.249 439.058C225.689 438.722 225.052 438.554 224.338 438.554ZM240.552 439.877C239.67 439.023 238.613 438.596 237.381 438.596C236.653 438.596 236.002 438.757 235.428 439.079C234.868 439.401 234.427 439.856 234.105 440.444C233.783 441.032 233.622 441.711 233.622 442.481C233.622 443.251 233.776 443.93 234.084 444.518C234.406 445.106 234.84 445.568 235.386 445.904C235.946 446.226 236.583 446.387 237.297 446.387C238.011 446.387 238.655 446.268 239.229 446.03C239.803 445.792 240.279 445.449 240.657 445.001L241.77 446.135C241.266 446.765 240.622 447.248 239.838 447.584C239.068 447.92 238.193 448.088 237.213 448.088C236.135 448.088 235.176 447.85 234.336 447.374C233.496 446.898 232.838 446.24 232.362 445.4C231.9 444.546 231.669 443.573 231.669 442.481C231.669 441.389 231.9 440.416 232.362 439.562C232.838 438.708 233.496 438.043 234.336 437.567C235.176 437.091 236.135 436.853 237.213 436.853C238.151 436.853 238.991 437 239.733 437.294C240.489 437.574 241.119 437.987 241.623 438.533L240.552 439.877ZM250.782 448.025V446.471C249.956 447.563 248.661 448.109 246.897 448.109C246.127 448.109 245.448 447.962 244.86 447.668C244.286 447.374 243.838 446.968 243.516 446.45C243.208 445.932 243.054 445.351 243.054 444.707C243.054 443.713 243.418 442.929 244.146 442.355C244.888 441.767 245.917 441.466 247.233 441.452H250.761V440.927C250.761 440.143 250.516 439.541 250.026 439.121C249.55 438.687 248.85 438.47 247.926 438.47C246.806 438.47 245.665 438.869 244.503 439.667L243.684 438.323C244.482 437.805 245.217 437.434 245.889 437.21C246.575 436.972 247.387 436.853 248.325 436.853C249.711 436.853 250.782 437.196 251.538 437.882C252.294 438.554 252.679 439.499 252.693 440.717L252.714 448.025H250.782ZM247.296 446.492C248.206 446.492 248.976 446.275 249.606 445.841C250.25 445.393 250.635 444.805 250.761 444.077V442.964H247.506C246.624 442.964 245.966 443.097 245.532 443.363C245.112 443.629 244.902 444.049 244.902 444.623C244.902 445.197 245.119 445.652 245.553 445.988C245.987 446.324 246.568 446.492 247.296 446.492ZM262.165 447.29C261.311 447.836 260.443 448.109 259.561 448.109C258.679 448.109 257.965 447.85 257.419 447.332C256.873 446.8 256.6 446.002 256.6 444.938V438.785H255.025V437.294H256.6V434.312H258.574V437.294H261.976V438.785H258.574V444.581C258.574 445.197 258.686 445.638 258.91 445.904C259.134 446.17 259.47 446.303 259.918 446.303C260.45 446.303 261.024 446.128 261.64 445.778L262.165 447.29ZM264.548 436.916H266.501V448.025H264.548V436.916ZM265.514 432.485C265.864 432.485 266.151 432.604 266.375 432.842C266.613 433.08 266.732 433.381 266.732 433.745C266.732 434.109 266.613 434.41 266.375 434.648C266.151 434.886 265.864 435.005 265.514 435.005C265.164 435.005 264.87 434.886 264.632 434.648C264.408 434.41 264.296 434.109 264.296 433.745C264.296 433.381 264.408 433.08 264.632 432.842C264.87 432.604 265.164 432.485 265.514 432.485ZM274.93 436.853C276.036 436.853 277.016 437.091 277.87 437.567C278.738 438.043 279.41 438.708 279.886 439.562C280.376 440.402 280.621 441.368 280.621 442.46C280.621 443.552 280.376 444.525 279.886 445.379C279.41 446.233 278.738 446.898 277.87 447.374C277.016 447.85 276.036 448.088 274.93 448.088C273.81 448.088 272.816 447.85 271.948 447.374C271.094 446.898 270.422 446.24 269.932 445.4C269.456 444.546 269.218 443.566 269.218 442.46C269.218 441.368 269.456 440.402 269.932 439.562C270.422 438.708 271.094 438.043 271.948 437.567C272.816 437.091 273.81 436.853 274.93 436.853ZM274.93 438.554C274.202 438.554 273.551 438.722 272.977 439.058C272.417 439.394 271.976 439.863 271.654 440.465C271.346 441.053 271.192 441.725 271.192 442.481C271.192 443.251 271.346 443.937 271.654 444.539C271.976 445.141 272.417 445.61 272.977 445.946C273.551 446.268 274.202 446.429 274.93 446.429C275.644 446.429 276.281 446.268 276.841 445.946C277.415 445.61 277.856 445.141 278.164 444.539C278.486 443.937 278.647 443.251 278.647 442.481C278.647 441.725 278.486 441.053 278.164 440.465C277.856 439.863 277.415 439.394 276.841 439.058C276.281 438.722 275.644 438.554 274.93 438.554ZM289.527 436.853C290.829 436.853 291.851 437.238 292.593 438.008C293.335 438.764 293.706 439.814 293.706 441.158V448.025H291.753V441.683C291.753 440.745 291.487 440.017 290.955 439.499C290.437 438.967 289.716 438.701 288.792 438.701C287.798 438.715 286.986 439.037 286.356 439.667C285.74 440.283 285.39 441.088 285.306 442.082V448.025H283.353V436.916H285.306V439.268C286.048 437.686 287.455 436.881 289.527 436.853ZM303.979 448.025V446.471C303.153 447.563 301.858 448.109 300.094 448.109C299.324 448.109 298.645 447.962 298.057 447.668C297.483 447.374 297.035 446.968 296.713 446.45C296.405 445.932 296.251 445.351 296.251 444.707C296.251 443.713 296.615 442.929 297.343 442.355C298.085 441.767 299.114 441.466 300.43 441.452H303.958V440.927C303.958 440.143 303.713 439.541 303.223 439.121C302.747 438.687 302.047 438.47 301.123 438.47C300.003 438.47 298.862 438.869 297.7 439.667L296.881 438.323C297.679 437.805 298.414 437.434 299.086 437.21C299.772 436.972 300.584 436.853 301.522 436.853C302.908 436.853 303.979 437.196 304.735 437.882C305.491 438.554 305.876 439.499 305.89 440.717L305.911 448.025H303.979ZM300.493 446.492C301.403 446.492 302.173 446.275 302.803 445.841C303.447 445.393 303.832 444.805 303.958 444.077V442.964H300.703C299.821 442.964 299.163 443.097 298.729 443.363C298.309 443.629 298.099 444.049 298.099 444.623C298.099 445.197 298.316 445.652 298.75 445.988C299.184 446.324 299.765 446.492 300.493 446.492ZM309.503 432.443H311.456V448.025H309.503V432.443ZM158.772 457.475C160.213 457.475 161.324 457.816 162.105 458.498C162.897 459.18 163.293 460.137 163.293 461.369C163.293 462.656 162.897 463.657 162.105 464.372C161.313 465.076 160.202 465.428 158.772 465.428H155.901V469.025H154.317V457.475H158.772ZM158.706 463.993C159.696 463.993 160.455 463.778 160.983 463.349C161.511 462.909 161.775 462.266 161.775 461.419C161.775 460.594 161.511 459.972 160.983 459.554C160.455 459.125 159.696 458.911 158.706 458.911L155.901 458.927V463.993H158.706ZM166.772 462.178C167.058 461.551 167.465 461.078 167.993 460.759C168.521 460.429 169.148 460.258 169.874 460.247V461.732C168.983 461.699 168.263 461.93 167.713 462.425C167.163 462.92 166.849 463.586 166.772 464.422V469.025H165.238V460.297H166.772V462.178ZM175.168 460.247C176.037 460.247 176.807 460.434 177.478 460.808C178.16 461.182 178.688 461.705 179.062 462.376C179.447 463.036 179.64 463.795 179.64 464.653C179.64 465.511 179.447 466.275 179.062 466.946C178.688 467.617 178.16 468.14 177.478 468.514C176.807 468.888 176.037 469.075 175.168 469.075C174.288 469.075 173.507 468.888 172.825 468.514C172.154 468.14 171.626 467.623 171.241 466.963C170.867 466.292 170.68 465.522 170.68 464.653C170.68 463.795 170.867 463.036 171.241 462.376C171.626 461.705 172.154 461.182 172.825 460.808C173.507 460.434 174.288 460.247 175.168 460.247ZM175.168 461.584C174.596 461.584 174.085 461.716 173.634 461.98C173.194 462.244 172.847 462.612 172.594 463.085C172.352 463.547 172.231 464.075 172.231 464.669C172.231 465.274 172.352 465.813 172.594 466.286C172.847 466.759 173.194 467.128 173.634 467.392C174.085 467.645 174.596 467.771 175.168 467.771C175.729 467.771 176.23 467.645 176.67 467.392C177.121 467.128 177.467 466.759 177.709 466.286C177.962 465.813 178.089 465.274 178.089 464.669C178.089 464.075 177.962 463.547 177.709 463.085C177.467 462.612 177.121 462.244 176.67 461.98C176.23 461.716 175.729 461.584 175.168 461.584ZM184.939 458.053C184.543 458.053 184.213 458.174 183.949 458.416C183.685 458.658 183.553 459.004 183.553 459.455V460.594H185.962V461.765H183.553V469.025H182.019V461.765H180.88V460.594H182.019V459.653C182.019 459.015 182.151 458.476 182.415 458.036C182.69 457.585 183.047 457.25 183.487 457.03C183.927 456.799 184.4 456.683 184.906 456.683C185.39 456.683 185.896 456.815 186.424 457.079L186.061 458.333C185.665 458.146 185.291 458.053 184.939 458.053ZM190.698 460.247C192.051 460.247 193.074 460.649 193.767 461.452C194.46 462.244 194.807 463.349 194.807 464.768C194.807 464.988 194.801 465.153 194.79 465.263H187.893C188.014 466.044 188.339 466.666 188.867 467.128C189.406 467.59 190.066 467.821 190.847 467.821C191.364 467.821 191.842 467.727 192.282 467.54C192.733 467.353 193.124 467.089 193.454 466.748L194.295 467.623C193.866 468.085 193.349 468.442 192.744 468.695C192.139 468.948 191.468 469.075 190.731 469.075C189.873 469.075 189.109 468.893 188.438 468.53C187.778 468.156 187.261 467.634 186.887 466.963C186.524 466.292 186.342 465.527 186.342 464.669C186.342 463.811 186.524 463.052 186.887 462.392C187.261 461.721 187.778 461.199 188.438 460.825C189.098 460.44 189.851 460.247 190.698 460.247ZM193.421 464.075C193.377 463.283 193.113 462.662 192.629 462.211C192.145 461.749 191.507 461.518 190.715 461.518C189.945 461.518 189.301 461.749 188.784 462.211C188.278 462.673 187.976 463.294 187.877 464.075H193.421ZM201.669 462.227C201.306 462.007 200.904 461.831 200.464 461.699C200.035 461.567 199.623 461.501 199.227 461.501C198.765 461.501 198.391 461.589 198.105 461.765C197.83 461.93 197.692 462.189 197.692 462.541C197.692 462.893 197.846 463.162 198.154 463.349C198.473 463.525 198.952 463.707 199.59 463.894C200.195 464.07 200.69 464.246 201.075 464.422C201.46 464.598 201.784 464.856 202.048 465.197C202.323 465.538 202.461 465.989 202.461 466.55C202.461 467.375 202.147 468.002 201.52 468.431C200.904 468.86 200.134 469.075 199.21 469.075C198.561 469.075 197.929 468.97 197.313 468.761C196.708 468.552 196.196 468.255 195.778 467.87L196.356 466.748C196.719 467.078 197.164 467.342 197.692 467.54C198.231 467.738 198.754 467.837 199.26 467.837C199.766 467.837 200.173 467.744 200.481 467.557C200.789 467.37 200.943 467.084 200.943 466.699C200.943 466.303 200.778 466.006 200.448 465.808C200.129 465.61 199.639 465.412 198.979 465.214C198.396 465.049 197.918 464.884 197.544 464.719C197.181 464.543 196.867 464.29 196.603 463.96C196.35 463.63 196.224 463.201 196.224 462.673C196.224 461.859 196.521 461.248 197.115 460.841C197.709 460.434 198.451 460.231 199.342 460.231C199.87 460.231 200.387 460.308 200.893 460.462C201.41 460.605 201.856 460.803 202.23 461.056L201.669 462.227ZM209.258 462.227C208.895 462.007 208.494 461.831 208.054 461.699C207.625 461.567 207.212 461.501 206.816 461.501C206.354 461.501 205.98 461.589 205.694 461.765C205.419 461.93 205.282 462.189 205.282 462.541C205.282 462.893 205.436 463.162 205.744 463.349C206.063 463.525 206.541 463.707 207.179 463.894C207.784 464.07 208.279 464.246 208.664 464.422C209.049 464.598 209.374 464.856 209.638 465.197C209.913 465.538 210.05 465.989 210.05 466.55C210.05 467.375 209.737 468.002 209.11 468.431C208.494 468.86 207.724 469.075 206.8 469.075C206.151 469.075 205.518 468.97 204.902 468.761C204.297 468.552 203.786 468.255 203.368 467.87L203.945 466.748C204.308 467.078 204.754 467.342 205.282 467.54C205.821 467.738 206.343 467.837 206.849 467.837C207.355 467.837 207.762 467.744 208.07 467.557C208.378 467.37 208.532 467.084 208.532 466.699C208.532 466.303 208.367 466.006 208.037 465.808C207.718 465.61 207.229 465.412 206.569 465.214C205.986 465.049 205.507 464.884 205.133 464.719C204.77 464.543 204.457 464.29 204.193 463.96C203.94 463.63 203.813 463.201 203.813 462.673C203.813 461.859 204.11 461.248 204.704 460.841C205.298 460.434 206.041 460.231 206.932 460.231C207.46 460.231 207.977 460.308 208.483 460.462C209 460.605 209.445 460.803 209.819 461.056L209.258 462.227ZM212.079 460.297H213.614V469.025H212.079V460.297ZM212.838 456.815C213.113 456.815 213.339 456.909 213.515 457.096C213.702 457.283 213.795 457.519 213.795 457.805C213.795 458.091 213.702 458.328 213.515 458.515C213.339 458.702 213.113 458.795 212.838 458.795C212.563 458.795 212.332 458.702 212.145 458.515C211.969 458.328 211.881 458.091 211.881 457.805C211.881 457.519 211.969 457.283 212.145 457.096C212.332 456.909 212.563 456.815 212.838 456.815ZM220.237 460.247C221.106 460.247 221.876 460.434 222.547 460.808C223.229 461.182 223.757 461.705 224.131 462.376C224.516 463.036 224.709 463.795 224.709 464.653C224.709 465.511 224.516 466.275 224.131 466.946C223.757 467.617 223.229 468.14 222.547 468.514C221.876 468.888 221.106 469.075 220.237 469.075C219.357 469.075 218.576 468.888 217.894 468.514C217.223 468.14 216.695 467.623 216.31 466.963C215.936 466.292 215.749 465.522 215.749 464.653C215.749 463.795 215.936 463.036 216.31 462.376C216.695 461.705 217.223 461.182 217.894 460.808C218.576 460.434 219.357 460.247 220.237 460.247ZM220.237 461.584C219.665 461.584 219.154 461.716 218.703 461.98C218.263 462.244 217.916 462.612 217.663 463.085C217.421 463.547 217.3 464.075 217.3 464.669C217.3 465.274 217.421 465.813 217.663 466.286C217.916 466.759 218.263 467.128 218.703 467.392C219.154 467.645 219.665 467.771 220.237 467.771C220.798 467.771 221.299 467.645 221.739 467.392C222.19 467.128 222.536 466.759 222.778 466.286C223.031 465.813 223.158 465.274 223.158 464.669C223.158 464.075 223.031 463.547 222.778 463.085C222.536 462.612 222.19 462.244 221.739 461.98C221.299 461.716 220.798 461.584 220.237 461.584ZM231.706 460.247C232.729 460.247 233.532 460.55 234.115 461.155C234.698 461.749 234.99 462.574 234.99 463.63V469.025H233.455V464.042C233.455 463.305 233.246 462.733 232.828 462.326C232.421 461.908 231.855 461.699 231.129 461.699C230.348 461.71 229.71 461.963 229.215 462.458C228.731 462.942 228.456 463.575 228.39 464.356V469.025H226.855V460.297H228.39V462.145C228.973 460.902 230.078 460.269 231.706 460.247ZM243.061 469.025V467.804C242.412 468.662 241.395 469.091 240.009 469.091C239.404 469.091 238.87 468.976 238.408 468.745C237.957 468.514 237.605 468.195 237.352 467.788C237.11 467.381 236.989 466.924 236.989 466.418C236.989 465.637 237.275 465.021 237.847 464.57C238.43 464.108 239.239 463.872 240.273 463.861H243.045V463.448C243.045 462.832 242.852 462.359 242.467 462.029C242.093 461.688 241.543 461.518 240.817 461.518C239.937 461.518 239.041 461.831 238.128 462.458L237.484 461.402C238.111 460.995 238.689 460.704 239.217 460.528C239.756 460.341 240.394 460.247 241.131 460.247C242.22 460.247 243.061 460.517 243.655 461.056C244.249 461.584 244.552 462.326 244.563 463.283L244.579 469.025H243.061ZM240.322 467.821C241.037 467.821 241.642 467.65 242.137 467.309C242.643 466.957 242.946 466.495 243.045 465.923V465.049H240.487C239.794 465.049 239.277 465.153 238.936 465.362C238.606 465.571 238.441 465.901 238.441 466.352C238.441 466.803 238.612 467.161 238.953 467.425C239.294 467.689 239.75 467.821 240.322 467.821ZM247.401 456.782H248.936V469.025H247.401V456.782ZM261.193 457.475C262.315 457.475 263.327 457.728 264.229 458.234C265.142 458.729 265.857 459.417 266.374 460.297C266.891 461.177 267.15 462.161 267.15 463.25C267.15 464.339 266.886 465.324 266.358 466.204C265.841 467.084 265.126 467.777 264.213 468.283C263.3 468.778 262.277 469.025 261.144 469.025H256.491V457.475H261.193ZM261.226 467.59C262.029 467.59 262.755 467.403 263.404 467.029C264.064 466.655 264.581 466.138 264.955 465.478C265.34 464.818 265.533 464.081 265.533 463.267C265.533 462.442 265.34 461.699 264.955 461.039C264.57 460.379 264.042 459.862 263.371 459.488C262.711 459.103 261.974 458.911 261.16 458.911H258.075V467.59H261.226ZM272.763 460.247C274.116 460.247 275.139 460.649 275.832 461.452C276.525 462.244 276.872 463.349 276.872 464.768C276.872 464.988 276.866 465.153 276.855 465.263H269.958C270.079 466.044 270.404 466.666 270.932 467.128C271.471 467.59 272.131 467.821 272.912 467.821C273.429 467.821 273.907 467.727 274.347 467.54C274.798 467.353 275.189 467.089 275.519 466.748L276.36 467.623C275.931 468.085 275.414 468.442 274.809 468.695C274.204 468.948 273.533 469.075 272.796 469.075C271.938 469.075 271.174 468.893 270.503 468.53C269.843 468.156 269.326 467.634 268.952 466.963C268.589 466.292 268.407 465.527 268.407 464.669C268.407 463.811 268.589 463.052 268.952 462.392C269.326 461.721 269.843 461.199 270.503 460.825C271.163 460.44 271.916 460.247 272.763 460.247ZM275.486 464.075C275.442 463.283 275.178 462.662 274.694 462.211C274.21 461.749 273.572 461.518 272.78 461.518C272.01 461.518 271.366 461.749 270.849 462.211C270.343 462.673 270.041 463.294 269.942 464.075H275.486ZM277.223 460.297H278.857L281.48 467.507L284.087 460.297H285.638L282.239 469.025H280.639L277.223 460.297ZM290.294 460.247C291.647 460.247 292.67 460.649 293.363 461.452C294.056 462.244 294.403 463.349 294.403 464.768C294.403 464.988 294.397 465.153 294.386 465.263H287.489C287.61 466.044 287.935 466.666 288.463 467.128C289.002 467.59 289.662 467.821 290.443 467.821C290.96 467.821 291.438 467.727 291.878 467.54C292.329 467.353 292.72 467.089 293.05 466.748L293.891 467.623C293.462 468.085 292.945 468.442 292.34 468.695C291.735 468.948 291.064 469.075 290.327 469.075C289.469 469.075 288.705 468.893 288.034 468.53C287.374 468.156 286.857 467.634 286.483 466.963C286.12 466.292 285.938 465.527 285.938 464.669C285.938 463.811 286.12 463.052 286.483 462.392C286.857 461.721 287.374 461.199 288.034 460.825C288.694 460.44 289.447 460.247 290.294 460.247ZM293.017 464.075C292.973 463.283 292.709 462.662 292.225 462.211C291.741 461.749 291.103 461.518 290.311 461.518C289.541 461.518 288.897 461.749 288.38 462.211C287.874 462.673 287.572 463.294 287.473 464.075H293.017ZM296.579 456.782H298.114V469.025H296.579V456.782ZM304.832 460.247C305.701 460.247 306.471 460.434 307.142 460.808C307.824 461.182 308.352 461.705 308.726 462.376C309.111 463.036 309.303 463.795 309.303 464.653C309.303 465.511 309.111 466.275 308.726 466.946C308.352 467.617 307.824 468.14 307.142 468.514C306.471 468.888 305.701 469.075 304.832 469.075C303.952 469.075 303.171 468.888 302.489 468.514C301.818 468.14 301.29 467.623 300.905 466.963C300.531 466.292 300.344 465.522 300.344 464.653C300.344 463.795 300.531 463.036 300.905 462.376C301.29 461.705 301.818 461.182 302.489 460.808C303.171 460.434 303.952 460.247 304.832 460.247ZM304.832 461.584C304.26 461.584 303.748 461.716 303.297 461.98C302.857 462.244 302.511 462.612 302.258 463.085C302.016 463.547 301.895 464.075 301.895 464.669C301.895 465.274 302.016 465.813 302.258 466.286C302.511 466.759 302.857 467.128 303.297 467.392C303.748 467.645 304.26 467.771 304.832 467.771C305.393 467.771 305.893 467.645 306.333 467.392C306.784 467.128 307.131 466.759 307.373 466.286C307.626 465.813 307.752 465.274 307.752 464.669C307.752 464.075 307.626 463.547 307.373 463.085C307.131 462.612 306.784 462.244 306.333 461.98C305.893 461.716 305.393 461.584 304.832 461.584ZM316.301 460.247C317.115 460.247 317.841 460.434 318.479 460.808C319.117 461.182 319.612 461.705 319.964 462.376C320.316 463.047 320.492 463.817 320.492 464.686C320.492 465.544 320.316 466.308 319.964 466.979C319.623 467.639 319.133 468.156 318.495 468.53C317.868 468.893 317.148 469.075 316.334 469.075C315.597 469.075 314.948 468.921 314.387 468.613C313.826 468.305 313.386 467.865 313.067 467.293V472.226H311.532V460.297H313.067V462.029C313.386 461.457 313.82 461.017 314.37 460.709C314.931 460.401 315.575 460.247 316.301 460.247ZM316.004 467.738C316.565 467.738 317.065 467.606 317.505 467.342C317.956 467.078 318.303 466.71 318.545 466.237C318.798 465.764 318.924 465.23 318.924 464.636C318.924 464.053 318.798 463.525 318.545 463.052C318.292 462.579 317.945 462.211 317.505 461.947C317.065 461.683 316.565 461.551 316.004 461.551C315.443 461.551 314.937 461.683 314.486 461.947C314.046 462.211 313.699 462.579 313.446 463.052C313.193 463.525 313.067 464.053 313.067 464.636C313.067 465.241 313.193 465.78 313.446 466.253C313.699 466.715 314.046 467.078 314.486 467.342C314.937 467.606 315.443 467.738 316.004 467.738ZM333.902 460.247C334.903 460.247 335.689 460.55 336.261 461.155C336.833 461.76 337.119 462.585 337.119 463.63V469.025H335.568V464.042C335.568 463.305 335.365 462.728 334.958 462.31C334.562 461.892 334.012 461.683 333.308 461.683C332.483 461.705 331.834 461.996 331.361 462.557C330.888 463.118 330.651 463.839 330.651 464.719V469.025H329.1V464.042C329.1 463.305 328.902 462.728 328.506 462.31C328.11 461.892 327.555 461.683 326.84 461.683C326.015 461.705 325.36 461.996 324.876 462.557C324.403 463.118 324.167 463.839 324.167 464.719V469.025H322.632V460.297H324.167V462.128C324.739 460.896 325.822 460.269 327.417 460.247C328.22 460.247 328.886 460.44 329.414 460.825C329.953 461.21 330.316 461.749 330.503 462.442C331.042 461.001 332.175 460.269 333.902 460.247ZM343.355 460.247C344.708 460.247 345.731 460.649 346.424 461.452C347.117 462.244 347.464 463.349 347.464 464.768C347.464 464.988 347.458 465.153 347.447 465.263H340.55C340.671 466.044 340.996 466.666 341.524 467.128C342.063 467.59 342.723 467.821 343.504 467.821C344.021 467.821 344.499 467.727 344.939 467.54C345.39 467.353 345.781 467.089 346.111 466.748L346.952 467.623C346.523 468.085 346.006 468.442 345.401 468.695C344.796 468.948 344.125 469.075 343.388 469.075C342.53 469.075 341.766 468.893 341.095 468.53C340.435 468.156 339.918 467.634 339.544 466.963C339.181 466.292 338.999 465.527 338.999 464.669C338.999 463.811 339.181 463.052 339.544 462.392C339.918 461.721 340.435 461.199 341.095 460.825C341.755 460.44 342.508 460.247 343.355 460.247ZM346.078 464.075C346.034 463.283 345.77 462.662 345.286 462.211C344.802 461.749 344.164 461.518 343.372 461.518C342.602 461.518 341.958 461.749 341.441 462.211C340.935 462.673 340.633 463.294 340.534 464.075H346.078ZM354.409 460.247C355.432 460.247 356.235 460.55 356.818 461.155C357.401 461.749 357.692 462.574 357.692 463.63V469.025H356.158V464.042C356.158 463.305 355.949 462.733 355.531 462.326C355.124 461.908 354.557 461.699 353.831 461.699C353.05 461.71 352.412 461.963 351.917 462.458C351.433 462.942 351.158 463.575 351.092 464.356V469.025H349.558V460.297H351.092V462.145C351.675 460.902 352.781 460.269 354.409 460.247ZM365.12 468.448C364.449 468.877 363.767 469.091 363.074 469.091C362.381 469.091 361.82 468.888 361.391 468.481C360.962 468.063 360.748 467.436 360.748 466.6V461.765H359.51V460.594H360.748V458.251H362.299V460.594H364.972V461.765H362.299V466.319C362.299 466.803 362.387 467.15 362.563 467.359C362.739 467.568 363.003 467.672 363.355 467.672C363.773 467.672 364.224 467.535 364.708 467.26L365.12 468.448Z" fill="black"/>
<path d="M170.417 158.618H178.067V179.618H175.187V161.228H170.417V158.618Z" fill="black"/>
<path d="M348.208 177.008V179.618H333.028V177.398L341.158 168.968C342.038 168.088 342.738 167.218 343.258 166.358C343.778 165.478 344.038 164.718 344.038 164.078C344.038 163.138 343.668 162.398 342.928 161.858C342.208 161.318 341.208 161.048 339.928 161.048C338.948 161.048 337.928 161.278 336.868 161.738C335.808 162.178 334.848 162.798 333.988 163.598L332.758 161.408C333.898 160.488 335.108 159.778 336.388 159.278C337.688 158.758 338.988 158.498 340.288 158.498C342.328 158.498 343.958 158.968 345.178 159.908C346.418 160.848 347.038 162.108 347.038 163.688C347.038 165.548 345.738 167.828 343.138 170.528L336.808 177.008H348.208Z" fill="black"/>
<path d="M348.528 336.583V339.163H345.288V344.563H342.588V339.163H332.178V336.943L339.678 323.563H342.498L335.298 336.583H342.588V331.213H345.288V336.583H348.528Z" fill="black"/>
<path d="M176.149 332.473C178.249 332.593 179.919 333.143 181.159 334.123C182.399 335.103 183.019 336.423 183.019 338.083C183.019 339.383 182.679 340.533 181.999 341.533C181.339 342.533 180.389 343.313 179.149 343.873C177.929 344.433 176.499 344.713 174.859 344.713C173.539 344.713 172.209 344.513 170.869 344.113C169.549 343.713 168.409 343.183 167.449 342.523L168.679 340.183C169.519 340.843 170.459 341.353 171.499 341.713C172.539 342.073 173.599 342.253 174.679 342.253C176.399 342.253 177.749 341.883 178.729 341.143C179.709 340.403 180.199 339.413 180.199 338.173C180.199 336.933 179.709 335.993 178.729 335.353C177.749 334.693 176.369 334.363 174.589 334.363H171.709V332.533L178.159 326.173H168.469L168.439 323.563H181.939V325.393L174.889 332.383L176.149 332.473Z" fill="black"/>
</svg>
