<svg width="109" height="109" viewBox="0 0 109 109" fill="none" xmlns="http://www.w3.org/2000/svg">
<rect width="109" height="109" fill="black" fill-opacity="0"/>
<rect width="109" height="109" fill="black" fill-opacity="0"/>
<mask id="mask0" mask-type="alpha" maskUnits="userSpaceOnUse" x="0" y="0" width="109" height="109">
<circle cx="54.5" cy="54.5" r="53" fill="#C4C4C4" stroke="#4E88A2" stroke-width="3"/>
</mask>
<g mask="url(#mask0)">
<rect width="63" height="84.3085" fill="black" fill-opacity="0" transform="translate(39.959 16) rotate(28.2919)"/>
<rect width="63" height="84.3085" fill="black" fill-opacity="0" transform="translate(39.959 16) rotate(28.2919)"/>
<rect width="62.9998" height="84.3079" fill="black" fill-opacity="0" transform="translate(39.959 16.0005) rotate(28.2919)"/>
<path d="M50.8514 117.609L4.62295 92.7257C2.07377 91.3535 1.12037 88.1561 2.49754 85.5976L32.5529 29.7598C32.774 29.349 33.1479 29.0438 33.5929 28.9093L52.3331 23.2454C52.7781 23.1109 53.2572 23.1584 53.6665 23.3787L90.8103 43.3718C93.3594 44.7439 94.3128 47.9414 92.9357 50.4999L57.9717 115.457C56.5945 118.016 53.4006 118.981 50.8514 117.609ZM35.2901 32.0591L5.57943 87.2564C5.12011 88.1098 5.43767 89.1748 6.2879 89.6325L52.5163 114.515C53.3666 114.973 54.4304 114.652 54.8898 113.798L89.8538 48.841C90.3131 47.9877 89.9955 46.9226 89.1453 46.465L52.6396 26.8154L35.2901 32.0591Z" fill="#4E88A2"/>
<rect width="17.3175" height="17.3835" fill="black" fill-opacity="0" transform="translate(39.959 16) rotate(28.2919)"/>
<path d="M45.4277 38.6853L33.2611 32.1365C32.6381 31.8012 32.2778 31.1222 32.3514 30.4157C32.4235 29.7085 32.9136 29.1152 33.5927 28.91L52.3329 23.2461C53.012 23.0409 53.748 23.2637 54.1928 23.8148C54.6392 24.3628 54.7113 25.1302 54.3748 25.7555L47.8011 37.9682C47.341 38.823 46.2794 39.1438 45.4277 38.6853ZM38.646 31.0456L45.5517 34.7627L49.2832 27.8302L38.646 31.0456Z" fill="#4E88A2"/>
<rect width="17.891" height="52.6922" fill="black" fill-opacity="0" transform="translate(38.4248 41.0039) rotate(28.2919)"/>
<rect width="17.8906" height="10.3901" fill="black" fill-opacity="0" transform="translate(38.4253 41.0039) rotate(28.2919)"/>
<path d="M38.059 52.6064C37.7189 52.4234 37.439 52.1285 37.278 51.7497L35.5648 47.7031C35.189 46.8112 35.6042 45.7802 36.4947 45.3986C37.3858 45.0231 38.4121 45.4313 38.7918 46.3233L39.9323 49.0215C42.8801 48.3875 49.2747 47.2597 52.4739 48.5745C53.3754 48.9585 53.7927 49.9681 53.4246 50.8647C53.0542 51.762 52.0298 52.1904 51.1361 51.8243C48.9168 50.9103 42.7051 51.9146 39.3106 52.762C38.8732 52.8713 38.4307 52.8065 38.059 52.6064Z" fill="#4E88A2"/>
<rect width="17.8906" height="10.3894" fill="black" fill-opacity="0" transform="translate(31.7407 53.4214) rotate(28.2919)"/>
<path d="M31.3748 65.0232C31.0347 64.8402 30.7548 64.5453 30.5938 64.1665L28.8806 60.1199C28.5048 59.228 28.92 58.197 29.8105 57.8154C30.7016 57.4399 31.7279 57.8481 32.1076 58.7401L33.2481 61.4383C36.1959 60.8043 42.5905 59.6765 45.7897 60.9913C46.6888 61.3798 47.1085 62.3849 46.7404 63.2815C46.37 64.1788 45.3456 64.6072 44.4519 64.2411C42.2326 63.3271 36.0209 64.3314 32.6264 65.1787C32.189 65.2881 31.7465 65.2233 31.3748 65.0232Z" fill="#4E88A2"/>
<rect width="17.8906" height="10.3874" fill="black" fill-opacity="0" transform="translate(25.0576 65.8379) rotate(28.2919)"/>
<path d="M24.6926 77.438C24.3525 77.2549 24.0726 76.9601 23.9116 76.5813L22.1985 72.5346C21.8226 71.6428 22.2378 70.6118 23.1283 70.2301C24.0195 69.8546 25.0457 70.2629 25.4254 71.1549L26.566 73.8531C29.5137 73.2191 35.9084 72.0912 39.1082 73.4084C39.9749 73.7814 40.4255 74.8012 40.0566 75.6993C39.687 76.5951 38.6626 77.0235 37.7674 76.6566C35.5496 75.7433 29.3379 76.7476 25.9442 77.5935C25.5069 77.7029 25.0643 77.6381 24.6926 77.438Z" fill="#4E88A2"/>
<rect width="17.8906" height="10.3896" fill="black" fill-opacity="0" transform="translate(18.375 78.2534) rotate(28.2919)"/>
<path d="M18.009 89.8555C17.6689 89.6724 17.3889 89.3776 17.228 88.9988L15.5148 84.9521C15.1389 84.0602 15.5541 83.0293 16.4447 82.6476C17.3358 82.2721 18.362 82.6804 18.7417 83.5723L19.8823 86.2706C22.8301 85.6366 29.2247 84.5087 32.4238 85.8236C33.3237 86.2106 33.7426 87.2172 33.3745 88.1138C33.0041 89.0111 31.9797 89.4395 31.086 89.0734C28.8667 88.1593 22.6551 89.1636 19.2605 90.011C18.8232 90.1204 18.3807 90.0555 18.009 89.8555Z" fill="#4E88A2"/>
<rect width="17.1103" height="3.51283" fill="black" fill-opacity="0" transform="translate(60.3418 52.7998) rotate(28.2919)"/>
<path d="M72.2023 63.1732L60.2178 56.7224C59.3661 56.264 59.0492 55.2013 59.5093 54.3464C59.9695 53.4915 61.031 53.1708 61.8827 53.6292L73.8672 60.08C74.719 60.5385 75.0358 61.6012 74.5757 62.4561C74.1156 63.3109 73.054 63.6317 72.2023 63.1732Z" fill="#4E88A2"/>
<rect width="17.1103" height="3.51283" fill="black" fill-opacity="0" transform="translate(53.6582 65.2168) rotate(28.2919)"/>
<path d="M65.5187 75.5902L53.5342 69.1394C52.6825 68.681 52.3656 67.6183 52.8257 66.7634C53.2859 65.9085 54.3474 65.5878 55.1992 66.0462L67.1836 72.497C68.0354 72.9555 68.3522 74.0182 67.8921 74.8731C67.432 75.7279 66.3704 76.0487 65.5187 75.5902Z" fill="#4E88A2"/>
<rect width="17.1103" height="3.51283" fill="black" fill-opacity="0" transform="translate(46.9746 77.6333) rotate(28.2919)"/>
<path d="M58.8351 88.0067L46.8506 81.5559C45.9989 81.0975 45.682 80.0348 46.1421 79.1799C46.6023 78.325 47.6638 78.0043 48.5156 78.4627L60.5 84.9135C61.3518 85.372 61.6686 86.4347 61.2085 87.2896C60.7484 88.1444 59.6868 88.4652 58.8351 88.0067Z" fill="#4E88A2"/>
<rect width="17.1103" height="3.51283" fill="black" fill-opacity="0" transform="translate(40.292 90.0483) rotate(28.2919)"/>
<path d="M52.1525 100.422L40.168 93.971C39.3163 93.5125 38.9994 92.4498 39.4595 91.5949C39.9197 90.7401 40.9812 90.4193 41.8329 90.8778L53.8174 97.3286C54.6692 97.787 54.986 98.8497 54.5259 99.7046C54.0658 100.559 53.0042 100.88 52.1525 100.422Z" fill="#4E88A2"/>
</g>
<circle cx="54.5" cy="54.5" r="53" stroke="#4E88A2" stroke-width="3"/>
</svg>
