<svg width="99" height="99" viewBox="0 0 99 99" fill="none" xmlns="http://www.w3.org/2000/svg">
<mask id="mask0" mask-type="alpha" maskUnits="userSpaceOnUse" x="0" y="0" width="99" height="99">
<circle cx="49.5" cy="49.5" r="48" fill="#C4C4C4" stroke="#4E88A2" stroke-width="3"/>
</mask>
<g mask="url(#mask0)">
<path d="M46.1861 106.819L4.19877 84.2189C1.88346 82.9726 1.01753 80.0685 2.26835 77.7447L29.5663 27.0297C29.7672 26.6566 30.1067 26.3794 30.5109 26.2572L47.5319 21.1129C47.936 20.9908 48.3712 21.0339 48.7429 21.234L82.479 39.3929C84.7943 40.6391 85.6602 43.5432 84.4094 45.867L52.6531 104.865C51.4023 107.189 48.5014 108.065 46.1861 106.819ZM32.0524 29.118L5.0675 79.2514C4.65032 80.0265 4.93875 80.9938 5.71098 81.4095L47.6983 104.01C48.4705 104.425 49.4368 104.133 49.854 103.358L81.6103 44.3604C82.0274 43.5853 81.739 42.618 80.9668 42.2023L47.8102 24.3554L32.0524 29.118Z" fill="#4E88A2"/>
<path d="M41.26 35.1363L30.2096 29.1884C29.6438 28.8838 29.3164 28.2671 29.3833 27.6254C29.4488 26.9831 29.8939 26.4442 30.5107 26.2578L47.5317 21.1135C48.1485 20.9272 48.8169 21.1295 49.2209 21.63C49.6264 22.1278 49.6919 22.8248 49.3862 23.3927L43.4157 34.485C42.9977 35.2614 42.0336 35.5527 41.26 35.1363ZM35.1005 28.1975L41.3726 31.5736L44.7618 25.2771L35.1005 28.1975Z" fill="#4E88A2"/>
<path d="M34.5658 47.7803C34.2569 47.614 34.0026 47.3462 33.8564 47.0021L32.3004 43.3267C31.959 42.5167 32.3361 41.5803 33.145 41.2337C33.9543 40.8926 34.8864 41.2634 35.2313 42.0736L36.2672 44.5242C38.9446 43.9484 44.7525 42.924 47.6582 44.1182C48.477 44.467 48.856 45.384 48.5216 46.1983C48.1852 47.0133 47.2548 47.4024 46.4431 47.0699C44.4274 46.2397 38.7856 47.1519 35.7025 47.9215C35.3053 48.0209 34.9033 47.962 34.5658 47.7803Z" fill="#4E88A2"/>
<path d="M28.4958 59.0575C28.1869 58.8912 27.9326 58.6234 27.7864 58.2793L26.2304 54.604C25.8891 53.7939 26.2662 52.8575 27.075 52.5109C27.8844 52.1698 28.8165 52.5406 29.1613 53.3508L30.1972 55.8015C32.8746 55.2256 38.6825 54.2012 41.5882 55.3955C42.4048 55.7483 42.786 56.6612 42.4517 57.4755C42.1152 58.2905 41.1848 58.6796 40.3731 58.3471C38.3574 57.5169 32.7156 58.4291 29.6325 59.1987C29.2353 59.2981 28.8334 59.2392 28.4958 59.0575Z" fill="#4E88A2"/>
<path d="M22.4263 70.3332C22.1174 70.167 21.8632 69.8992 21.717 69.5551L20.161 65.8797C19.8196 65.0697 20.1967 64.1333 21.0055 63.7866C21.8149 63.4456 22.747 63.8164 23.0918 64.6265L24.1278 67.0772C26.8051 66.5014 32.6131 65.477 35.5193 66.6733C36.3065 67.0121 36.7158 67.9383 36.3807 68.7541C36.045 69.5677 35.1146 69.9568 34.3015 69.6235C32.2872 68.7941 26.6454 69.7062 23.5631 70.4745C23.1658 70.5738 22.7639 70.515 22.4263 70.3332Z" fill="#4E88A2"/>
<path d="M16.355 81.6114C16.0462 81.4451 15.7919 81.1773 15.6457 80.8333L14.0897 77.1579C13.7483 76.3478 14.1254 75.4114 14.9343 75.0648C15.7436 74.7237 16.6757 75.0945 17.0206 75.9047L18.0565 78.3554C20.7338 77.7796 26.5418 76.7551 29.4474 77.9494C30.2648 78.3009 30.6453 79.2151 30.3109 80.0295C29.9745 80.8444 29.0441 81.2336 28.2324 80.901C26.2167 80.0708 20.5749 80.983 17.4918 81.7526C17.0946 81.852 16.6926 81.7931 16.355 81.6114Z" fill="#4E88A2"/>
<path d="M65.579 57.3773L54.694 51.5183C53.9204 51.1019 53.6326 50.1367 54.0505 49.3603C54.4685 48.5838 55.4326 48.2925 56.2062 48.7089L67.0912 54.5679C67.8648 54.9843 68.1526 55.9495 67.7347 56.7259C67.3168 57.5024 66.3526 57.7937 65.579 57.3773Z" fill="#4E88A2"/>
<path d="M59.5087 68.6551L48.6237 62.7962C47.8501 62.3798 47.5623 61.4145 47.9802 60.6381C48.3981 59.8617 49.3623 59.5703 50.1359 59.9867L61.0209 65.8457C61.7945 66.2621 62.0823 67.2273 61.6644 68.0038C61.2464 68.7802 60.2823 69.0715 59.5087 68.6551Z" fill="#4E88A2"/>
<path d="M53.4364 79.9325L42.5514 74.0735C41.7778 73.6571 41.49 72.6919 41.908 71.9155C42.3259 71.139 43.29 70.8477 44.0636 71.2641L54.9486 77.1231C55.7222 77.5395 56.01 78.5047 55.5921 79.2811C55.1742 80.0575 54.21 80.3489 53.4364 79.9325Z" fill="#4E88A2"/>
<path d="M47.3681 91.2088L36.4831 85.3499C35.7095 84.9335 35.4217 83.9683 35.8396 83.1918C36.2575 82.4154 37.2217 82.1241 37.9953 82.5404L48.8803 88.3994C49.6539 88.8158 49.9417 89.781 49.5237 90.5575C49.1058 91.3339 48.1417 91.6252 47.3681 91.2088Z" fill="#4E88A2"/>
</g>
<circle cx="49.5" cy="49.5" r="48" stroke="#4E88A2" stroke-width="3"/>
</svg>
