<svg width="233" height="20" viewBox="0 0 233 20" fill="none" xmlns="http://www.w3.org/2000/svg">
<path d="M219.114 7.55245C223.429 7.73893 226.524 8.06527 228.4 8.53147C230.463 8.99767 231.87 9.60373 232.621 10.3497C232.808 9.51049 233.371 11.0023 232.621 10.3497C232.433 11.1888 232.339 12.028 232.339 12.8671C227.462 13.8928 221.271 14.6853 213.768 15.2448C206.452 15.8042 198.385 16.2238 189.568 16.5035C180.752 16.7832 171.56 16.9231 161.992 16.9231C152.425 17.0163 143.139 17.0629 134.135 17.0629C125.131 17.0629 116.783 17.0629 109.092 17.0629C101.4 17.0629 95.0221 17.1096 89.9571 17.2028C74.387 17.669 62.2873 18.1352 53.6581 18.6014C45.0288 19.0676 39.1197 19.5338 35.9306 20C30.3029 19.9068 25.8945 19.5804 22.7054 19.021C19.3287 18.4615 16.6087 17.7622 14.5451 16.9231C12.4816 16.0839 10.6995 15.1515 9.19877 14.1259C7.69804 13.007 5.91592 11.8881 3.8524 10.7692C4.97796 10.0233 6.10351 11.1888 5.54073 9.79021C4.79036 8.39161 -1.13813 8.00154 0.194358 6.71329C3.85243 6.71329 4.13379 5.96737 5.25934 5.03497C6.3849 4.10256 6.47869 3.40326 5.54073 2.93706C10.2305 2.5641 15.2955 2.331 20.7357 2.23776C25.9883 2.14452 31.2408 2.0979 36.4934 2.0979C41.746 2.00466 46.7172 1.8648 51.407 1.67832C56.0968 1.3986 60.2238 0.979021 63.788 0.41958C78.2326 0.41958 93.3338 0.41958 109.092 0.41958C124.849 0.32634 139.575 0.18648 153.269 0C158.147 0.4662 163.868 0.745921 170.434 0.839161C177.187 0.932401 183.753 1.1655 190.131 1.53846C196.697 1.81818 202.606 2.37762 207.859 3.21678C213.299 4.05594 217.051 5.50117 219.114 7.55245Z" fill="#ED5858" fill-opacity="0.64"/>
</svg>
